<ttFont>
    <TTGlyph name="A" xMin="-26" yMin="0" xMax="565" yMax="720">
      <contour>
        <pt x="375" y="0" on="1"/>
        <pt x="381" y="157" on="1"/>
        <pt x="214" y="157" on="1"/>
        <pt x="165" y="0" on="1"/>
        <pt x="-26" y="0" on="1"/>
        <pt x="231" y="720" on="1"/>
        <pt x="561" y="720" on="1"/>
        <pt x="565" y="0" on="1"/>
      </contour>
      <contour>
        <pt x="334" y="545" on="1"/>
        <pt x="255" y="291" on="1"/>
        <pt x="386" y="291" on="1"/>
        <pt x="397" y="545" on="1"/>
      </contour>
    </TTGlyph>
    <TTGlyph name="AE" xMin="-26" yMin="0" xMax="931" yMax="720">
      <contour>
        <pt x="804" y="0" on="1"/>
        <pt x="375" y="0" on="1"/>
        <pt x="381" y="157" on="1"/>
        <pt x="214" y="157" on="1"/>
        <pt x="165" y="0" on="1"/>
        <pt x="-26" y="0" on="1"/>
        <pt x="231" y="720" on="1"/>
        <pt x="931" y="720" on="1"/>
        <pt x="903" y="564" on="1"/>
        <pt x="561" y="564" on="1"/>
        <pt x="563" y="429" on="1"/>
        <pt x="824" y="429" on="1"/>
        <pt x="796" y="273" on="1"/>
        <pt x="563" y="273" on="1"/>
        <pt x="564" y="156" on="1"/>
        <pt x="832" y="156" on="1"/>
      </contour>
      <contour>
        <pt x="334" y="545" on="1"/>
        <pt x="255" y="291" on="1"/>
        <pt x="386" y="291" on="1"/>
        <pt x="397" y="545" on="1"/>
      </contour>
    </TTGlyph>
    <TTGlyph name="Aacute" xMin="-26" yMin="0" xMax="664" yMax="1046">
      <contour>
        <pt x="375" y="0" on="1"/>
        <pt x="381" y="157" on="1"/>
        <pt x="214" y="157" on="1"/>
        <pt x="165" y="0" on="1"/>
        <pt x="-26" y="0" on="1"/>
        <pt x="231" y="720" on="1"/>
        <pt x="561" y="720" on="1"/>
        <pt x="565" y="0" on="1"/>
      </contour>
      <contour>
        <pt x="334" y="545" on="1"/>
        <pt x="255" y="291" on="1"/>
        <pt x="386" y="291" on="1"/>
        <pt x="397" y="545" on="1"/>
      </contour>
      <contour>
        <pt x="468" y="807" on="1"/>
        <pt x="320" y="807" on="1"/>
        <pt x="484" y="1046" on="1"/>
        <pt x="664" y="1046" on="1"/>
      </contour>
    </TTGlyph>
    <TTGlyph name="Acircumflex" xMin="-26" yMin="0" xMax="622" yMax="1046">
      <component glyphName="A" x="0" y="0" flags="0x1004"/>
      <component glyphName="circumflex" x="49" y="239" flags="0x1004"/>
    </TTGlyph>
    <TTGlyph name="Adieresis" xMin="-26" yMin="0" xMax="651" yMax="959">
      <component glyphName="A" x="0" y="0" flags="0x1004"/>
      <component glyphName="dieresis" x="47" y="239" flags="0x1004"/>
    </TTGlyph>
    <TTGlyph name="Agrave" xMin="-26" yMin="0" xMax="565" yMax="1046">
      <component glyphName="A" x="0" y="0" flags="0x1004"/>
      <component glyphName="grave" x="32" y="239" flags="0x1004"/>
    </TTGlyph>
    <TTGlyph name="Aring" xMin="-26" yMin="0" xMax="565" yMax="1006">
      <contour>
        <pt x="375" y="0" on="1"/>
        <pt x="381" y="157" on="1"/>
        <pt x="214" y="157" on="1"/>
        <pt x="165" y="0" on="1"/>
        <pt x="-26" y="0" on="1"/>
        <pt x="231" y="720" on="1"/>
        <pt x="561" y="720" on="1"/>
        <pt x="565" y="0" on="1"/>
      </contour>
      <contour>
        <pt x="334" y="545" on="1"/>
        <pt x="255" y="291" on="1"/>
        <pt x="386" y="291" on="1"/>
        <pt x="397" y="545" on="1"/>
      </contour>
      <contour>
        <pt x="544" y="862" on="0"/>
        <pt x="465" y="788" on="0"/>
        <pt x="374" y="788" on="0"/>
        <pt x="322" y="841" on="0"/>
        <pt x="322" y="932" on="0"/>
        <pt x="401" y="1006" on="0"/>
        <pt x="493" y="1006" on="0"/>
        <pt x="544" y="953" on="0"/>
      </contour>
      <contour>
        <pt x="445" y="859" on="0"/>
        <pt x="472" y="884" on="0"/>
        <pt x="472" y="917" on="0"/>
        <pt x="454" y="935" on="0"/>
        <pt x="421" y="935" on="0"/>
        <pt x="394" y="910" on="0"/>
        <pt x="394" y="877" on="0"/>
        <pt x="412" y="859" on="0"/>
      </contour>
    </TTGlyph>
    <TTGlyph name="Atilde" xMin="-26" yMin="0" xMax="654" yMax="1005">
      <contour>
        <pt x="375" y="0" on="1"/>
        <pt x="381" y="157" on="1"/>
        <pt x="214" y="157" on="1"/>
        <pt x="165" y="0" on="1"/>
        <pt x="-26" y="0" on="1"/>
        <pt x="231" y="720" on="1"/>
        <pt x="561" y="720" on="1"/>
        <pt x="565" y="0" on="1"/>
      </contour>
      <contour>
        <pt x="334" y="545" on="1"/>
        <pt x="255" y="291" on="1"/>
        <pt x="386" y="291" on="1"/>
        <pt x="397" y="545" on="1"/>
      </contour>
      <contour>
        <pt x="538" y="823" on="0"/>
        <pt x="474" y="823" on="0"/>
        <pt x="366" y="866" on="0"/>
        <pt x="332" y="866" on="1"/>
        <pt x="272" y="866" on="0"/>
        <pt x="221" y="846" on="1"/>
        <pt x="204" y="840" on="1"/>
        <pt x="224" y="951" on="1"/>
        <pt x="228" y="957" on="0"/>
        <pt x="245" y="975" on="0"/>
        <pt x="310" y="1005" on="0"/>
        <pt x="392" y="1005" on="0"/>
        <pt x="513" y="959" on="0"/>
        <pt x="584" y="959" on="0"/>
        <pt x="635" y="974" on="0"/>
        <pt x="644" y="982" on="1"/>
        <pt x="654" y="989" on="1"/>
        <pt x="634" y="869" on="1"/>
        <pt x="612" y="851" on="0"/>
      </contour>
    </TTGlyph>
    <TTGlyph name="B" xMin="19" yMin="0" xMax="634" yMax="720">
      <contour>
        <pt x="436" y="720" on="1"/>
        <pt x="550" y="720" on="0"/>
        <pt x="598" y="670" on="1"/>
        <pt x="634" y="632" on="0"/>
        <pt x="634" y="574" on="1"/>
        <pt x="634" y="554" on="0"/>
        <pt x="630" y="532" on="1"/>
        <pt x="621" y="484" on="1"/>
        <pt x="610" y="427" on="0"/>
        <pt x="547" y="363" on="0"/>
        <pt x="523" y="363" on="1"/>
        <pt x="522" y="355" on="1"/>
        <pt x="550" y="355" on="0"/>
        <pt x="608" y="293" on="0"/>
        <pt x="608" y="251" on="1"/>
        <pt x="608" y="234" on="0"/>
        <pt x="604" y="215" on="1"/>
        <pt x="598" y="184" on="1"/>
        <pt x="582" y="98" on="0"/>
        <pt x="461" y="0" on="0"/>
        <pt x="353" y="0" on="1"/>
        <pt x="19" y="0" on="1"/>
        <pt x="146" y="720" on="1"/>
      </contour>
      <contour>
        <pt x="346" y="294" on="1"/>
        <pt x="251" y="294" on="1"/>
        <pt x="227" y="156" on="1"/>
        <pt x="322" y="156" on="1"/>
        <pt x="324" y="156" on="0"/>
        <pt x="326" y="156" on="1"/>
        <pt x="372" y="156" on="0"/>
        <pt x="426" y="199" on="0"/>
        <pt x="426" y="230" on="1"/>
        <pt x="426" y="294" on="0"/>
      </contour>
      <contour>
        <pt x="373" y="564" on="1"/>
        <pt x="298" y="564" on="1"/>
        <pt x="272" y="415" on="1"/>
        <pt x="346" y="415" on="1"/>
        <pt x="442" y="415" on="0"/>
        <pt x="442" y="499" on="1"/>
        <pt x="442" y="528" on="0"/>
        <pt x="407" y="564" on="0"/>
      </contour>
    </TTGlyph>
    <TTGlyph name="C" xMin="36" yMin="-14" xMax="645" yMax="727">
      <contour>
        <pt x="272" y="-14" on="1"/>
        <pt x="129" y="-14" on="0"/>
        <pt x="74" y="48" on="1"/>
        <pt x="36" y="92" on="0"/>
        <pt x="36" y="171" on="1"/>
        <pt x="36" y="205" on="0"/>
        <pt x="43" y="244" on="1"/>
        <pt x="84" y="474" on="1"/>
        <pt x="129" y="727" on="0"/>
        <pt x="409" y="727" on="1"/>
        <pt x="525" y="727" on="0"/>
        <pt x="645" y="628" on="0"/>
        <pt x="645" y="542" on="1"/>
        <pt x="645" y="502" on="0"/>
        <pt x="622" y="423" on="0"/>
        <pt x="611" y="404" on="1"/>
        <pt x="600" y="384" on="1"/>
        <pt x="423" y="384" on="1"/>
        <pt x="456" y="422" on="0"/>
        <pt x="456" y="492" on="1"/>
        <pt x="456" y="529" on="0"/>
        <pt x="418" y="572" on="0"/>
        <pt x="381" y="572" on="1"/>
        <pt x="280" y="572" on="0"/>
        <pt x="261" y="460" on="1"/>
        <pt x="226" y="258" on="1"/>
        <pt x="221" y="232" on="0"/>
        <pt x="221" y="207" on="1"/>
        <pt x="221" y="141" on="0"/>
        <pt x="300" y="141" on="1"/>
        <pt x="395" y="141" on="0"/>
        <pt x="414" y="248" on="1"/>
        <pt x="594" y="248" on="1"/>
        <pt x="589" y="219" on="1"/>
        <pt x="549" y="-14" on="0"/>
      </contour>
    </TTGlyph>
    <TTGlyph name="Ccedilla" xMin="35" yMin="-194" xMax="645" yMax="727">
      <contour>
        <pt x="351" y="-85" on="1"/>
        <pt x="351" y="-139" on="0"/>
        <pt x="274" y="-194" on="0"/>
        <pt x="192" y="-194" on="0"/>
        <pt x="143" y="-170" on="0"/>
        <pt x="134" y="-158" on="1"/>
        <pt x="124" y="-147" on="1"/>
        <pt x="181" y="-88" on="1"/>
        <pt x="184" y="-100" on="0"/>
        <pt x="211" y="-122" on="0"/>
        <pt x="227" y="-122" on="1"/>
        <pt x="274" y="-122" on="0"/>
        <pt x="274" y="-90" on="1"/>
        <pt x="274" y="-61" on="0"/>
        <pt x="217" y="-61" on="1"/>
        <pt x="245" y="-13" on="1"/>
        <pt x="117" y="-8" on="0"/>
        <pt x="68" y="54" on="1"/>
        <pt x="36" y="97" on="0"/>
        <pt x="36" y="169" on="1"/>
        <pt x="36" y="203" on="0"/>
        <pt x="43" y="244" on="1"/>
        <pt x="84" y="474" on="1"/>
        <pt x="129" y="727" on="0"/>
        <pt x="409" y="727" on="1"/>
        <pt x="525" y="727" on="0"/>
        <pt x="645" y="628" on="0"/>
        <pt x="645" y="542" on="1"/>
        <pt x="645" y="502" on="0"/>
        <pt x="622" y="423" on="0"/>
        <pt x="611" y="404" on="1"/>
        <pt x="600" y="384" on="1"/>
        <pt x="423" y="384" on="1"/>
        <pt x="456" y="422" on="0"/>
        <pt x="456" y="492" on="1"/>
        <pt x="456" y="529" on="0"/>
        <pt x="418" y="572" on="0"/>
        <pt x="381" y="572" on="1"/>
        <pt x="280" y="572" on="0"/>
        <pt x="261" y="460" on="1"/>
        <pt x="226" y="258" on="1"/>
        <pt x="221" y="232" on="0"/>
        <pt x="221" y="207" on="1"/>
        <pt x="221" y="141" on="0"/>
        <pt x="300" y="141" on="1"/>
        <pt x="395" y="141" on="0"/>
        <pt x="414" y="248" on="1"/>
        <pt x="594" y="248" on="1"/>
        <pt x="589" y="219" on="1"/>
        <pt x="550" y="-1" on="0"/>
        <pt x="301" y="-13" on="1"/>
        <pt x="294" y="-24" on="1"/>
        <pt x="320" y="-24" on="0"/>
        <pt x="351" y="-55" on="0"/>
      </contour>
    </TTGlyph>
    <TTGlyph name="D" xMin="19" yMin="0" xMax="655" yMax="720">
      <contour>
        <pt x="426" y="720" on="1"/>
        <pt x="557" y="720" on="0"/>
        <pt x="613" y="654" on="1"/>
        <pt x="654" y="604" on="0"/>
        <pt x="654" y="529" on="1"/>
        <pt x="654" y="502" on="0"/>
        <pt x="649" y="472" on="1"/>
        <pt x="610" y="249" on="1"/>
        <pt x="590" y="136" on="0"/>
        <pt x="434" y="0" on="0"/>
        <pt x="310" y="0" on="1"/>
        <pt x="19" y="0" on="1"/>
        <pt x="146" y="720" on="1"/>
      </contour>
      <contour>
        <pt x="363" y="564" on="1"/>
        <pt x="298" y="564" on="1"/>
        <pt x="227" y="156" on="1"/>
        <pt x="322" y="156" on="1"/>
        <pt x="369" y="156" on="0"/>
        <pt x="422" y="207" on="0"/>
        <pt x="432" y="265" on="1"/>
        <pt x="461" y="429" on="1"/>
        <pt x="465" y="451" on="0"/>
        <pt x="465" y="469" on="1"/>
        <pt x="465" y="564" on="0"/>
      </contour>
    </TTGlyph>
    <TTGlyph name="E" xMin="19" yMin="0" xMax="648" yMax="720">
      <contour>
        <pt x="521" y="0" on="1"/>
        <pt x="19" y="0" on="1"/>
        <pt x="146" y="720" on="1"/>
        <pt x="648" y="720" on="1"/>
        <pt x="620" y="564" on="1"/>
        <pt x="298" y="564" on="1"/>
        <pt x="275" y="429" on="1"/>
        <pt x="541" y="429" on="1"/>
        <pt x="513" y="273" on="1"/>
        <pt x="247" y="273" on="1"/>
        <pt x="227" y="156" on="1"/>
        <pt x="549" y="156" on="1"/>
      </contour>
    </TTGlyph>
    <TTGlyph name="Eacute" xMin="19" yMin="0" xMax="680" yMax="1046">
      <contour>
        <pt x="521" y="0" on="1"/>
        <pt x="19" y="0" on="1"/>
        <pt x="146" y="720" on="1"/>
        <pt x="648" y="720" on="1"/>
        <pt x="620" y="564" on="1"/>
        <pt x="298" y="564" on="1"/>
        <pt x="275" y="429" on="1"/>
        <pt x="541" y="429" on="1"/>
        <pt x="513" y="273" on="1"/>
        <pt x="247" y="273" on="1"/>
        <pt x="227" y="156" on="1"/>
        <pt x="549" y="156" on="1"/>
      </contour>
      <contour>
        <pt x="484" y="807" on="1"/>
        <pt x="336" y="807" on="1"/>
        <pt x="500" y="1046" on="1"/>
        <pt x="680" y="1046" on="1"/>
      </contour>
    </TTGlyph>
    <TTGlyph name="Ecircumflex" xMin="19" yMin="0" xMax="656" yMax="1046">
      <component glyphName="E" x="0" y="0" flags="0x1004"/>
      <component glyphName="circumflex" x="83" y="239" flags="0x1004"/>
    </TTGlyph>
    <TTGlyph name="Edieresis" xMin="19" yMin="0" xMax="697" yMax="959">
      <contour>
        <pt x="521" y="0" on="1"/>
        <pt x="19" y="0" on="1"/>
        <pt x="146" y="720" on="1"/>
        <pt x="648" y="720" on="1"/>
        <pt x="620" y="564" on="1"/>
        <pt x="298" y="564" on="1"/>
        <pt x="275" y="429" on="1"/>
        <pt x="541" y="429" on="1"/>
        <pt x="513" y="273" on="1"/>
        <pt x="247" y="273" on="1"/>
        <pt x="227" y="156" on="1"/>
        <pt x="549" y="156" on="1"/>
      </contour>
      <contour>
        <pt x="254" y="861" on="1"/>
        <pt x="254" y="912" on="0"/>
        <pt x="300" y="959" on="0"/>
        <pt x="348" y="959" on="1"/>
        <pt x="415" y="959" on="0"/>
        <pt x="415" y="901" on="1"/>
        <pt x="415" y="850" on="0"/>
        <pt x="369" y="803" on="0"/>
        <pt x="320" y="803" on="1"/>
        <pt x="254" y="803" on="0"/>
      </contour>
      <contour>
        <pt x="536" y="861" on="1"/>
        <pt x="536" y="912" on="0"/>
        <pt x="582" y="959" on="0"/>
        <pt x="630" y="959" on="1"/>
        <pt x="697" y="959" on="0"/>
        <pt x="697" y="901" on="1"/>
        <pt x="697" y="850" on="0"/>
        <pt x="651" y="803" on="0"/>
        <pt x="602" y="803" on="1"/>
        <pt x="536" y="803" on="0"/>
      </contour>
    </TTGlyph>
    <TTGlyph name="Egrave" xMin="19" yMin="0" xMax="648" yMax="1046">
      <component glyphName="E" x="0" y="0" flags="0x1004"/>
      <component glyphName="grave" x="39" y="239" flags="0x1004"/>
    </TTGlyph>
    <TTGlyph name="Eth" xMin="19" yMin="0" xMax="655" yMax="720">
      <contour>
        <pt x="426" y="720" on="1"/>
        <pt x="557" y="720" on="0"/>
        <pt x="613" y="654" on="1"/>
        <pt x="654" y="604" on="0"/>
        <pt x="654" y="529" on="1"/>
        <pt x="654" y="502" on="0"/>
        <pt x="649" y="472" on="1"/>
        <pt x="610" y="249" on="1"/>
        <pt x="590" y="136" on="0"/>
        <pt x="434" y="0" on="0"/>
        <pt x="310" y="0" on="1"/>
        <pt x="19" y="0" on="1"/>
        <pt x="146" y="720" on="1"/>
      </contour>
      <contour>
        <pt x="322" y="156" on="1"/>
        <pt x="369" y="156" on="0"/>
        <pt x="422" y="207" on="0"/>
        <pt x="432" y="265" on="1"/>
        <pt x="461" y="429" on="1"/>
        <pt x="465" y="451" on="0"/>
        <pt x="465" y="469" on="1"/>
        <pt x="465" y="564" on="0"/>
        <pt x="363" y="564" on="1"/>
        <pt x="298" y="564" on="1"/>
        <pt x="273" y="421" on="1"/>
        <pt x="381" y="421" on="1"/>
        <pt x="359" y="295" on="1"/>
        <pt x="251" y="295" on="1"/>
        <pt x="227" y="156" on="1"/>
      </contour>
    </TTGlyph>
    <TTGlyph name="Euro" xMin="23" yMin="-14" xMax="698" yMax="727">
      <contour>
        <pt x="324" y="-14" on="1"/>
        <pt x="182" y="-14" on="0"/>
        <pt x="127" y="48" on="1"/>
        <pt x="88" y="92" on="0"/>
        <pt x="88" y="169" on="1"/>
        <pt x="88" y="202" on="0"/>
        <pt x="95" y="240" on="1"/>
        <pt x="23" y="240" on="1"/>
        <pt x="39" y="329" on="1"/>
        <pt x="111" y="329" on="1"/>
        <pt x="121" y="389" on="1"/>
        <pt x="49" y="389" on="1"/>
        <pt x="65" y="478" on="1"/>
        <pt x="137" y="478" on="1"/>
        <pt x="182" y="727" on="0"/>
        <pt x="462" y="727" on="1"/>
        <pt x="595" y="727" on="0"/>
        <pt x="653" y="668" on="1"/>
        <pt x="697" y="622" on="0"/>
        <pt x="697" y="550" on="1"/>
        <pt x="697" y="528" on="0"/>
        <pt x="693" y="503" on="1"/>
        <pt x="512" y="503" on="1"/>
        <pt x="513" y="510" on="0"/>
        <pt x="513" y="516" on="1"/>
        <pt x="513" y="537" on="0"/>
        <pt x="478" y="572" on="0"/>
        <pt x="434" y="572" on="1"/>
        <pt x="342" y="572" on="0"/>
        <pt x="317" y="478" on="1"/>
        <pt x="461" y="478" on="1"/>
        <pt x="445" y="389" on="1"/>
        <pt x="301" y="389" on="1"/>
        <pt x="291" y="329" on="1"/>
        <pt x="435" y="329" on="1"/>
        <pt x="419" y="240" on="1"/>
        <pt x="275" y="240" on="1"/>
        <pt x="274" y="227" on="0"/>
        <pt x="274" y="216" on="1"/>
        <pt x="274" y="179" on="0"/>
        <pt x="309" y="141" on="0"/>
        <pt x="353" y="141" on="1"/>
        <pt x="447" y="141" on="0"/>
        <pt x="466" y="248" on="1"/>
        <pt x="646" y="248" on="1"/>
        <pt x="641" y="219" on="1"/>
        <pt x="601" y="-14" on="0"/>
      </contour>
    </TTGlyph>
    <TTGlyph name="F" xMin="19" yMin="0" xMax="648" yMax="720">
      <contour>
        <pt x="512" y="264" on="1"/>
        <pt x="246" y="264" on="1"/>
        <pt x="200" y="0" on="1"/>
        <pt x="19" y="0" on="1"/>
        <pt x="146" y="720" on="1"/>
        <pt x="648" y="720" on="1"/>
        <pt x="620" y="564" on="1"/>
        <pt x="298" y="564" on="1"/>
        <pt x="273" y="420" on="1"/>
        <pt x="539" y="420" on="1"/>
      </contour>
    </TTGlyph>
    <TTGlyph name="G" xMin="37" yMin="-14" xMax="644" yMax="727">
      <contour>
        <pt x="270" y="-14" on="1"/>
        <pt x="128" y="-14" on="0"/>
        <pt x="74" y="52" on="1"/>
        <pt x="37" y="98" on="0"/>
        <pt x="37" y="178" on="1"/>
        <pt x="37" y="215" on="0"/>
        <pt x="45" y="259" on="1"/>
        <pt x="80" y="459" on="1"/>
        <pt x="127" y="727" on="0"/>
        <pt x="408" y="727" on="1"/>
        <pt x="524" y="727" on="0"/>
        <pt x="644" y="628" on="0"/>
        <pt x="644" y="542" on="1"/>
        <pt x="644" y="507" on="0"/>
        <pt x="625" y="435" on="0"/>
        <pt x="616" y="417" on="1"/>
        <pt x="606" y="399" on="1"/>
        <pt x="429" y="399" on="1"/>
        <pt x="455" y="435" on="0"/>
        <pt x="455" y="482" on="1"/>
        <pt x="455" y="572" on="0"/>
        <pt x="380" y="572" on="1"/>
        <pt x="279" y="572" on="0"/>
        <pt x="259" y="455" on="1"/>
        <pt x="225" y="263" on="1"/>
        <pt x="220" y="236" on="0"/>
        <pt x="220" y="210" on="1"/>
        <pt x="220" y="141" on="0"/>
        <pt x="383" y="141" on="0"/>
        <pt x="406" y="223" on="1"/>
        <pt x="324" y="223" on="1"/>
        <pt x="344" y="334" on="1"/>
        <pt x="609" y="334" on="1"/>
        <pt x="593" y="248" on="1"/>
        <pt x="588" y="219" on="1"/>
        <pt x="546" y="-14" on="0"/>
      </contour>
    </TTGlyph>
    <TTGlyph name="H" xMin="19" yMin="0" xMax="701" yMax="720">
      <contour>
        <pt x="701" y="720" on="1"/>
        <pt x="575" y="0" on="1"/>
        <pt x="394" y="0" on="1"/>
        <pt x="440" y="260" on="1"/>
        <pt x="245" y="260" on="1"/>
        <pt x="200" y="0" on="1"/>
        <pt x="19" y="0" on="1"/>
        <pt x="146" y="720" on="1"/>
        <pt x="326" y="720" on="1"/>
        <pt x="272" y="416" on="1"/>
        <pt x="467" y="416" on="1"/>
        <pt x="521" y="720" on="1"/>
      </contour>
    </TTGlyph>
    <TTGlyph name="I" xMin="19" yMin="0" xMax="326" yMax="720">
      <contour>
        <pt x="326" y="720" on="1"/>
        <pt x="200" y="0" on="1"/>
        <pt x="19" y="0" on="1"/>
        <pt x="146" y="720" on="1"/>
      </contour>
    </TTGlyph>
    <TTGlyph name="Iacute" xMin="19" yMin="0" xMax="518" yMax="1046">
      <contour>
        <pt x="326" y="720" on="1"/>
        <pt x="200" y="0" on="1"/>
        <pt x="19" y="0" on="1"/>
        <pt x="146" y="720" on="1"/>
      </contour>
      <contour>
        <pt x="322" y="807" on="1"/>
        <pt x="174" y="807" on="1"/>
        <pt x="338" y="1046" on="1"/>
        <pt x="518" y="1046" on="1"/>
      </contour>
    </TTGlyph>
    <TTGlyph name="Icircumflex" xMin="19" yMin="0" xMax="465" yMax="1046">
      <component glyphName="I" x="0" y="0" flags="0x1004"/>
      <component glyphName="circumflex" x="-108" y="239" flags="0x1004"/>
    </TTGlyph>
    <TTGlyph name="Idieresis" xMin="19" yMin="0" xMax="483" yMax="959">
      <contour>
        <pt x="326" y="720" on="1"/>
        <pt x="200" y="0" on="1"/>
        <pt x="19" y="0" on="1"/>
        <pt x="146" y="720" on="1"/>
      </contour>
      <contour>
        <pt x="40" y="861" on="1"/>
        <pt x="40" y="912" on="0"/>
        <pt x="86" y="959" on="0"/>
        <pt x="134" y="959" on="1"/>
        <pt x="201" y="959" on="0"/>
        <pt x="201" y="901" on="1"/>
        <pt x="201" y="850" on="0"/>
        <pt x="155" y="803" on="0"/>
        <pt x="106" y="803" on="1"/>
        <pt x="40" y="803" on="0"/>
      </contour>
      <contour>
        <pt x="322" y="861" on="1"/>
        <pt x="322" y="912" on="0"/>
        <pt x="368" y="959" on="0"/>
        <pt x="416" y="959" on="1"/>
        <pt x="483" y="959" on="0"/>
        <pt x="483" y="901" on="1"/>
        <pt x="483" y="850" on="0"/>
        <pt x="437" y="803" on="0"/>
        <pt x="388" y="803" on="1"/>
        <pt x="322" y="803" on="0"/>
      </contour>
    </TTGlyph>
    <TTGlyph name="Igrave" xMin="19" yMin="0" xMax="326" yMax="1046">
      <component glyphName="I" x="0" y="0" flags="0x1004"/>
      <component glyphName="grave" x="-144" y="239" flags="0x1004"/>
    </TTGlyph>
    <TTGlyph name="J" xMin="-2" yMin="-14" xMax="642" yMax="721">
      <contour>
        <pt x="239" y="-14" on="1"/>
        <pt x="-2" y="-14" on="0"/>
        <pt x="-2" y="161" on="1"/>
        <pt x="-2" y="188" on="0"/>
        <pt x="4" y="219" on="1"/>
        <pt x="17" y="293" on="1"/>
        <pt x="197" y="293" on="1"/>
        <pt x="191" y="260" on="1"/>
        <pt x="187" y="235" on="0"/>
        <pt x="187" y="183" on="0"/>
        <pt x="200" y="166" on="1"/>
        <pt x="220" y="141" on="0"/>
        <pt x="312" y="141" on="0"/>
        <pt x="369" y="191" on="0"/>
        <pt x="381" y="258" on="1"/>
        <pt x="463" y="721" on="1"/>
        <pt x="642" y="721" on="1"/>
        <pt x="558" y="244" on="1"/>
        <pt x="535" y="111" on="0"/>
        <pt x="381" y="-14" on="0"/>
      </contour>
    </TTGlyph>
    <TTGlyph name="K" xMin="19" yMin="0" xMax="717" yMax="720">
      <contour>
        <pt x="717" y="720" on="1"/>
        <pt x="488" y="357" on="1"/>
        <pt x="590" y="0" on="1"/>
        <pt x="400" y="0" on="1"/>
        <pt x="325" y="264" on="1"/>
        <pt x="246" y="264" on="1"/>
        <pt x="199" y="0" on="1"/>
        <pt x="19" y="0" on="1"/>
        <pt x="146" y="720" on="1"/>
        <pt x="326" y="720" on="1"/>
        <pt x="273" y="420" on="1"/>
        <pt x="337" y="420" on="1"/>
        <pt x="527" y="720" on="1"/>
      </contour>
    </TTGlyph>
    <TTGlyph name="L" xMin="19" yMin="0" xMax="503" yMax="720">
      <contour>
        <pt x="475" y="0" on="1"/>
        <pt x="19" y="0" on="1"/>
        <pt x="146" y="720" on="1"/>
        <pt x="326" y="720" on="1"/>
        <pt x="227" y="156" on="1"/>
        <pt x="503" y="156" on="1"/>
      </contour>
    </TTGlyph>
    <TTGlyph name="Lslash" xMin="-5" yMin="0" xMax="559" yMax="720">
      <contour>
        <pt x="531" y="0" on="1"/>
        <pt x="75" y="0" on="1"/>
        <pt x="117" y="237" on="1"/>
        <pt x="39" y="196" on="1"/>
        <pt x="-5" y="305" on="1"/>
        <pt x="142" y="382" on="1"/>
        <pt x="202" y="720" on="1"/>
        <pt x="382" y="720" on="1"/>
        <pt x="341" y="486" on="1"/>
        <pt x="466" y="552" on="1"/>
        <pt x="509" y="443" on="1"/>
        <pt x="315" y="341" on="1"/>
        <pt x="283" y="156" on="1"/>
        <pt x="559" y="156" on="1"/>
      </contour>
    </TTGlyph>
    <TTGlyph name="M" xMin="19" yMin="0" xMax="860" yMax="720">
      <contour>
        <pt x="334" y="720" on="1"/>
        <pt x="441" y="375" on="1"/>
        <pt x="671" y="720" on="1"/>
        <pt x="860" y="720" on="1"/>
        <pt x="733" y="0" on="1"/>
        <pt x="552" y="0" on="1"/>
        <pt x="624" y="406" on="1"/>
        <pt x="470" y="164" on="1"/>
        <pt x="339" y="164" on="1"/>
        <pt x="271" y="406" on="1"/>
        <pt x="199" y="0" on="1"/>
        <pt x="19" y="0" on="1"/>
        <pt x="146" y="720" on="1"/>
      </contour>
    </TTGlyph>
    <TTGlyph name="N" xMin="19" yMin="0" xMax="701" yMax="720">
      <contour>
        <pt x="701" y="720" on="1"/>
        <pt x="575" y="0" on="1"/>
        <pt x="394" y="0" on="1"/>
        <pt x="268" y="394" on="1"/>
        <pt x="200" y="0" on="1"/>
        <pt x="19" y="0" on="1"/>
        <pt x="146" y="720" on="1"/>
        <pt x="332" y="720" on="1"/>
        <pt x="456" y="352" on="1"/>
        <pt x="521" y="720" on="1"/>
      </contour>
    </TTGlyph>
    <TTGlyph name="Ntilde" xMin="19" yMin="0" xMax="701" yMax="1005">
      <component glyphName="N" x="0" y="0" flags="0x1004"/>
      <component glyphName="tilde" x="83" y="239" flags="0x1004"/>
    </TTGlyph>
    <TTGlyph name="O" xMin="37" yMin="-14" xMax="649" yMax="727">
      <contour>
        <pt x="408" y="727" on="1"/>
        <pt x="649" y="727" on="0"/>
        <pt x="649" y="530" on="1"/>
        <pt x="649" y="497" on="0"/>
        <pt x="642" y="459" on="1"/>
        <pt x="607" y="259" on="1"/>
        <pt x="583" y="120" on="0"/>
        <pt x="423" y="-14" on="0"/>
        <pt x="133" y="-14" on="0"/>
        <pt x="76" y="53" on="1"/>
        <pt x="37" y="99" on="0"/>
        <pt x="37" y="180" on="1"/>
        <pt x="37" y="216" on="0"/>
        <pt x="45" y="259" on="1"/>
        <pt x="80" y="459" on="1"/>
        <pt x="127" y="727" on="0"/>
      </contour>
      <contour>
        <pt x="305" y="141" on="1"/>
        <pt x="355" y="141" on="0"/>
        <pt x="415" y="193" on="0"/>
        <pt x="427" y="263" on="1"/>
        <pt x="461" y="455" on="1"/>
        <pt x="464" y="475" on="0"/>
        <pt x="464" y="491" on="1"/>
        <pt x="464" y="572" on="0"/>
        <pt x="382" y="572" on="1"/>
        <pt x="279" y="570" on="0"/>
        <pt x="259" y="455" on="1"/>
        <pt x="225" y="263" on="1"/>
        <pt x="221" y="238" on="0"/>
        <pt x="221" y="211" on="1"/>
        <pt x="221" y="141" on="0"/>
      </contour>
    </TTGlyph>
    <TTGlyph name="OE" xMin="38" yMin="0" xMax="1011" yMax="720">
      <contour>
        <pt x="278" y="0" on="1"/>
        <pt x="134" y="0" on="0"/>
        <pt x="78" y="61" on="1"/>
        <pt x="39" y="104" on="0"/>
        <pt x="39" y="184" on="1"/>
        <pt x="39" y="218" on="0"/>
        <pt x="46" y="259" on="1"/>
        <pt x="81" y="459" on="1"/>
        <pt x="104" y="590" on="0"/>
        <pt x="264" y="720" on="0"/>
        <pt x="408" y="720" on="1"/>
        <pt x="1011" y="720" on="1"/>
        <pt x="983" y="564" on="1"/>
        <pt x="661" y="564" on="1"/>
        <pt x="637" y="429" on="1"/>
        <pt x="903" y="429" on="1"/>
        <pt x="876" y="273" on="1"/>
        <pt x="610" y="273" on="1"/>
        <pt x="589" y="156" on="1"/>
        <pt x="911" y="156" on="1"/>
        <pt x="884" y="0" on="1"/>
      </contour>
      <contour>
        <pt x="306" y="141" on="1"/>
        <pt x="356" y="141" on="0"/>
        <pt x="416" y="193" on="0"/>
        <pt x="428" y="263" on="1"/>
        <pt x="462" y="455" on="1"/>
        <pt x="465" y="475" on="0"/>
        <pt x="465" y="491" on="1"/>
        <pt x="465" y="572" on="0"/>
        <pt x="383" y="572" on="1"/>
        <pt x="280" y="570" on="0"/>
        <pt x="260" y="455" on="1"/>
        <pt x="226" y="263" on="1"/>
        <pt x="222" y="238" on="0"/>
        <pt x="222" y="211" on="1"/>
        <pt x="222" y="141" on="0"/>
      </contour>
    </TTGlyph>
    <TTGlyph name="Oacute" xMin="37" yMin="-14" xMax="676" yMax="1046">
      <contour>
        <pt x="408" y="727" on="1"/>
        <pt x="649" y="727" on="0"/>
        <pt x="649" y="530" on="1"/>
        <pt x="649" y="497" on="0"/>
        <pt x="642" y="459" on="1"/>
        <pt x="607" y="259" on="1"/>
        <pt x="583" y="120" on="0"/>
        <pt x="423" y="-14" on="0"/>
        <pt x="133" y="-14" on="0"/>
        <pt x="76" y="53" on="1"/>
        <pt x="37" y="99" on="0"/>
        <pt x="37" y="180" on="1"/>
        <pt x="37" y="216" on="0"/>
        <pt x="45" y="259" on="1"/>
        <pt x="80" y="459" on="1"/>
        <pt x="127" y="727" on="0"/>
      </contour>
      <contour>
        <pt x="305" y="141" on="1"/>
        <pt x="355" y="141" on="0"/>
        <pt x="415" y="193" on="0"/>
        <pt x="427" y="263" on="1"/>
        <pt x="461" y="455" on="1"/>
        <pt x="464" y="475" on="0"/>
        <pt x="464" y="491" on="1"/>
        <pt x="464" y="572" on="0"/>
        <pt x="382" y="572" on="1"/>
        <pt x="279" y="570" on="0"/>
        <pt x="259" y="455" on="1"/>
        <pt x="225" y="263" on="1"/>
        <pt x="221" y="238" on="0"/>
        <pt x="221" y="211" on="1"/>
        <pt x="221" y="141" on="0"/>
      </contour>
      <contour>
        <pt x="480" y="807" on="1"/>
        <pt x="332" y="807" on="1"/>
        <pt x="496" y="1046" on="1"/>
        <pt x="676" y="1046" on="1"/>
      </contour>
    </TTGlyph>
    <TTGlyph name="Ocircumflex" xMin="45" yMin="-14" xMax="642" yMax="1046">
      <component glyphName="O" x="0" y="0" flags="0x1004"/>
      <component glyphName="circumflex" x="60" y="239" flags="0x1004"/>
    </TTGlyph>
    <TTGlyph name="Odieresis" xMin="45" yMin="-14" xMax="657" yMax="959">
      <component glyphName="O" x="0" y="0" flags="0x1004"/>
      <component glyphName="dieresis" x="53" y="239" flags="0x1004"/>
    </TTGlyph>
    <TTGlyph name="Ograve" xMin="45" yMin="-14" xMax="642" yMax="1046">
      <component glyphName="O" x="0" y="0" flags="0x1004"/>
      <component glyphName="grave" x="55" y="239" flags="0x1004"/>
    </TTGlyph>
    <TTGlyph name="Oslash" xMin="37" yMin="-69" xMax="649" yMax="760">
      <contour>
        <pt x="408" y="727" on="1"/>
        <pt x="423" y="727" on="0"/>
        <pt x="447" y="725" on="1"/>
        <pt x="464" y="760" on="1"/>
        <pt x="601" y="760" on="1"/>
        <pt x="568" y="692" on="1"/>
        <pt x="648" y="644" on="0"/>
        <pt x="648" y="529" on="1"/>
        <pt x="648" y="497" on="0"/>
        <pt x="642" y="459" on="1"/>
        <pt x="607" y="259" on="1"/>
        <pt x="583" y="120" on="0"/>
        <pt x="423" y="-14" on="0"/>
        <pt x="278" y="-14" on="1"/>
        <pt x="260" y="-14" on="0"/>
        <pt x="232" y="-12" on="1"/>
        <pt x="205" y="-69" on="1"/>
        <pt x="67" y="-69" on="1"/>
        <pt x="111" y="23" on="1"/>
        <pt x="38" y="69" on="0"/>
        <pt x="38" y="182" on="1"/>
        <pt x="38" y="217" on="0"/>
        <pt x="45" y="259" on="1"/>
        <pt x="80" y="459" on="1"/>
        <pt x="127" y="727" on="0"/>
      </contour>
      <contour>
        <pt x="305" y="141" on="1"/>
        <pt x="355" y="141" on="0"/>
        <pt x="415" y="193" on="0"/>
        <pt x="427" y="263" on="1"/>
        <pt x="461" y="455" on="1"/>
        <pt x="463" y="467" on="0"/>
        <pt x="463" y="472" on="1"/>
      </contour>
      <contour>
        <pt x="259" y="455" on="1"/>
        <pt x="224" y="260" on="1"/>
        <pt x="374" y="572" on="1"/>
        <pt x="279" y="565" on="0"/>
      </contour>
    </TTGlyph>
    <TTGlyph name="Otilde" xMin="37" yMin="-14" xMax="665" yMax="1005">
      <contour>
        <pt x="408" y="727" on="1"/>
        <pt x="649" y="727" on="0"/>
        <pt x="649" y="530" on="1"/>
        <pt x="649" y="497" on="0"/>
        <pt x="642" y="459" on="1"/>
        <pt x="607" y="259" on="1"/>
        <pt x="583" y="120" on="0"/>
        <pt x="423" y="-14" on="0"/>
        <pt x="133" y="-14" on="0"/>
        <pt x="76" y="53" on="1"/>
        <pt x="37" y="99" on="0"/>
        <pt x="37" y="180" on="1"/>
        <pt x="37" y="216" on="0"/>
        <pt x="45" y="259" on="1"/>
        <pt x="80" y="459" on="1"/>
        <pt x="127" y="727" on="0"/>
      </contour>
      <contour>
        <pt x="305" y="141" on="1"/>
        <pt x="355" y="141" on="0"/>
        <pt x="415" y="193" on="0"/>
        <pt x="427" y="263" on="1"/>
        <pt x="461" y="455" on="1"/>
        <pt x="464" y="475" on="0"/>
        <pt x="464" y="491" on="1"/>
        <pt x="464" y="572" on="0"/>
        <pt x="382" y="572" on="1"/>
        <pt x="279" y="570" on="0"/>
        <pt x="259" y="455" on="1"/>
        <pt x="225" y="263" on="1"/>
        <pt x="221" y="238" on="0"/>
        <pt x="221" y="211" on="1"/>
        <pt x="221" y="141" on="0"/>
      </contour>
      <contour>
        <pt x="549" y="823" on="0"/>
        <pt x="485" y="823" on="0"/>
        <pt x="378" y="866" on="0"/>
        <pt x="343" y="866" on="1"/>
        <pt x="283" y="866" on="0"/>
        <pt x="232" y="846" on="1"/>
        <pt x="215" y="840" on="1"/>
        <pt x="235" y="951" on="1"/>
        <pt x="239" y="957" on="0"/>
        <pt x="256" y="975" on="0"/>
        <pt x="321" y="1005" on="0"/>
        <pt x="403" y="1005" on="0"/>
        <pt x="524" y="959" on="0"/>
        <pt x="595" y="959" on="0"/>
        <pt x="646" y="974" on="0"/>
        <pt x="656" y="982" on="1"/>
        <pt x="665" y="989" on="1"/>
        <pt x="645" y="869" on="1"/>
        <pt x="623" y="851" on="0"/>
      </contour>
    </TTGlyph>
    <TTGlyph name="P" xMin="19" yMin="0" xMax="648" yMax="720">
      <contour>
        <pt x="357" y="219" on="1"/>
        <pt x="238" y="219" on="1"/>
        <pt x="199" y="0" on="1"/>
        <pt x="19" y="0" on="1"/>
        <pt x="146" y="720" on="1"/>
        <pt x="451" y="720" on="1"/>
        <pt x="564" y="720" on="0"/>
        <pt x="612" y="668" on="1"/>
        <pt x="647" y="628" on="0"/>
        <pt x="647" y="566" on="1"/>
        <pt x="647" y="545" on="0"/>
        <pt x="643" y="522" on="1"/>
        <pt x="623" y="409" on="1"/>
        <pt x="608" y="326" on="0"/>
        <pt x="462" y="219" on="0"/>
      </contour>
      <contour>
        <pt x="388" y="564" on="1"/>
        <pt x="298" y="564" on="1"/>
        <pt x="265" y="375" on="1"/>
        <pt x="354" y="375" on="1"/>
        <pt x="436" y="375" on="0"/>
        <pt x="449" y="448" on="1"/>
        <pt x="456" y="489" on="1"/>
        <pt x="458" y="498" on="0"/>
        <pt x="458" y="528" on="0"/>
        <pt x="428" y="564" on="0"/>
      </contour>
    </TTGlyph>
    <TTGlyph name="Q" xMin="35" yMin="-231" xMax="652" yMax="727">
      <contour>
        <pt x="409" y="727" on="1"/>
        <pt x="651" y="727" on="0"/>
        <pt x="651" y="539" on="1"/>
        <pt x="651" y="509" on="0"/>
        <pt x="645" y="474" on="1"/>
        <pt x="604" y="244" on="1"/>
        <pt x="584" y="128" on="0"/>
        <pt x="459" y="3" on="0"/>
        <pt x="347" y="-10" on="1"/>
        <pt x="358" y="-46" on="0"/>
        <pt x="443" y="-89" on="0"/>
        <pt x="511" y="-89" on="1"/>
        <pt x="506" y="-231" on="1"/>
        <pt x="430" y="-231" on="0"/>
        <pt x="315" y="-197" on="0"/>
        <pt x="252" y="-148" on="0"/>
        <pt x="232" y="-115" on="1"/>
        <pt x="202" y="-64" on="0"/>
        <pt x="200" y="-8" on="1"/>
        <pt x="35" y="17" on="0"/>
        <pt x="35" y="173" on="1"/>
        <pt x="35" y="206" on="0"/>
        <pt x="42" y="244" on="1"/>
        <pt x="83" y="474" on="1"/>
        <pt x="128" y="727" on="0"/>
      </contour>
      <contour>
        <pt x="305" y="141" on="1"/>
        <pt x="355" y="141" on="0"/>
        <pt x="415" y="191" on="0"/>
        <pt x="427" y="258" on="1"/>
        <pt x="463" y="460" on="1"/>
        <pt x="466" y="479" on="0"/>
        <pt x="466" y="494" on="1"/>
        <pt x="466" y="572" on="0"/>
        <pt x="382" y="572" on="1"/>
        <pt x="279" y="570" on="0"/>
        <pt x="260" y="460" on="1"/>
        <pt x="225" y="258" on="1"/>
        <pt x="221" y="234" on="0"/>
        <pt x="221" y="208" on="1"/>
        <pt x="221" y="141" on="0"/>
      </contour>
    </TTGlyph>
    <TTGlyph name="R" xMin="19" yMin="0" xMax="634" yMax="720">
      <contour>
        <pt x="436" y="720" on="1"/>
        <pt x="550" y="720" on="0"/>
        <pt x="598" y="670" on="1"/>
        <pt x="634" y="632" on="0"/>
        <pt x="634" y="574" on="1"/>
        <pt x="634" y="554" on="0"/>
        <pt x="630" y="532" on="1"/>
        <pt x="616" y="454" on="1"/>
        <pt x="604" y="389" on="0"/>
        <pt x="545" y="309" on="0"/>
        <pt x="509" y="292" on="1"/>
        <pt x="600" y="0" on="1"/>
        <pt x="398" y="0" on="1"/>
        <pt x="314" y="269" on="1"/>
        <pt x="252" y="269" on="1"/>
        <pt x="211" y="0" on="1"/>
        <pt x="19" y="0" on="1"/>
        <pt x="146" y="720" on="1"/>
      </contour>
      <contour>
        <pt x="373" y="564" on="1"/>
        <pt x="298" y="564" on="1"/>
        <pt x="272" y="390" on="1"/>
        <pt x="342" y="390" on="1"/>
        <pt x="395" y="390" on="0"/>
        <pt x="441" y="441" on="0"/>
        <pt x="441" y="483" on="1"/>
        <pt x="441" y="564" on="0"/>
      </contour>
    </TTGlyph>
    <TTGlyph name="S" xMin="24" yMin="-14" xMax="641" yMax="727">
      <contour>
        <pt x="210" y="205" on="1"/>
        <pt x="210" y="136" on="0"/>
        <pt x="409" y="136" on="0"/>
        <pt x="409" y="198" on="1"/>
        <pt x="409" y="231" on="0"/>
        <pt x="341" y="273" on="0"/>
        <pt x="244" y="301" on="0"/>
        <pt x="147" y="338" on="0"/>
        <pt x="79" y="417" on="0"/>
        <pt x="79" y="476" on="1"/>
        <pt x="79" y="727" on="0"/>
        <pt x="402" y="727" on="1"/>
        <pt x="520" y="727" on="0"/>
        <pt x="641" y="638" on="0"/>
        <pt x="641" y="559" on="1"/>
        <pt x="641" y="530" on="0"/>
        <pt x="626" y="477" on="0"/>
        <pt x="618" y="466" on="1"/>
        <pt x="610" y="454" on="1"/>
        <pt x="433" y="454" on="1"/>
        <pt x="455" y="477" on="0"/>
        <pt x="455" y="512" on="1"/>
        <pt x="455" y="577" on="0"/>
        <pt x="370" y="577" on="1"/>
        <pt x="263" y="577" on="0"/>
        <pt x="263" y="509" on="1"/>
        <pt x="263" y="475" on="0"/>
        <pt x="331" y="435" on="0"/>
        <pt x="428" y="412" on="0"/>
        <pt x="526" y="378" on="0"/>
        <pt x="594" y="299" on="0"/>
        <pt x="594" y="236" on="1"/>
        <pt x="594" y="109" on="0"/>
        <pt x="442" y="-14" on="0"/>
        <pt x="126" y="-14" on="0"/>
        <pt x="68" y="42" on="1"/>
        <pt x="25" y="84" on="0"/>
        <pt x="25" y="158" on="1"/>
        <pt x="25" y="186" on="0"/>
        <pt x="31" y="219" on="1"/>
        <pt x="34" y="235" on="1"/>
        <pt x="214" y="235" on="1"/>
        <pt x="212" y="223" on="1"/>
        <pt x="210" y="213" on="0"/>
      </contour>
    </TTGlyph>
    <TTGlyph name="Scaron" xMin="31" yMin="-14" xMax="682" yMax="1046">
      <component glyphName="S" x="0" y="0" flags="0x1004"/>
      <component glyphName="caron" x="67" y="239" flags="0x1004"/>
    </TTGlyph>
    <TTGlyph name="T" xMin="58" yMin="0" xMax="760" yMax="720">
      <contour>
        <pt x="732" y="564" on="1"/>
        <pt x="486" y="564" on="1"/>
        <pt x="387" y="0" on="1"/>
        <pt x="206" y="0" on="1"/>
        <pt x="305" y="564" on="1"/>
        <pt x="58" y="564" on="1"/>
        <pt x="86" y="720" on="1"/>
        <pt x="760" y="720" on="1"/>
      </contour>
    </TTGlyph>
    <TTGlyph name="Thorn" xMin="18" yMin="0" xMax="628" yMax="721">
      <contour>
        <pt x="431" y="612" on="1"/>
        <pt x="544" y="612" on="0"/>
        <pt x="592" y="560" on="1"/>
        <pt x="627" y="520" on="0"/>
        <pt x="627" y="458" on="1"/>
        <pt x="627" y="437" on="0"/>
        <pt x="623" y="414" on="1"/>
        <pt x="603" y="301" on="1"/>
        <pt x="588" y="218" on="0"/>
        <pt x="442" y="111" on="0"/>
        <pt x="337" y="111" on="1"/>
        <pt x="218" y="111" on="1"/>
        <pt x="198" y="0" on="1"/>
        <pt x="18" y="0" on="1"/>
        <pt x="145" y="721" on="1"/>
        <pt x="325" y="721" on="1"/>
        <pt x="306" y="612" on="1"/>
      </contour>
      <contour>
        <pt x="368" y="456" on="1"/>
        <pt x="278" y="456" on="1"/>
        <pt x="245" y="267" on="1"/>
        <pt x="334" y="267" on="1"/>
        <pt x="416" y="267" on="0"/>
        <pt x="429" y="340" on="1"/>
        <pt x="436" y="381" on="1"/>
        <pt x="438" y="390" on="0"/>
        <pt x="438" y="420" on="0"/>
        <pt x="408" y="456" on="0"/>
      </contour>
    </TTGlyph>
    <TTGlyph name="U" xMin="50" yMin="-14" xMax="701" yMax="720">
      <contour>
        <pt x="436" y="-14" on="0"/>
        <pt x="146" y="-14" on="0"/>
        <pt x="90" y="53" on="1"/>
        <pt x="50" y="99" on="0"/>
        <pt x="50" y="180" on="1"/>
        <pt x="50" y="216" on="0"/>
        <pt x="58" y="259" on="1"/>
        <pt x="139" y="720" on="1"/>
        <pt x="319" y="720" on="1"/>
        <pt x="238" y="263" on="1"/>
        <pt x="234" y="238" on="0"/>
        <pt x="234" y="211" on="1"/>
        <pt x="234" y="141" on="0"/>
        <pt x="318" y="141" on="1"/>
        <pt x="368" y="141" on="0"/>
        <pt x="428" y="193" on="0"/>
        <pt x="440" y="263" on="1"/>
        <pt x="521" y="720" on="1"/>
        <pt x="701" y="720" on="1"/>
        <pt x="620" y="259" on="1"/>
        <pt x="595" y="119" on="0"/>
      </contour>
    </TTGlyph>
    <TTGlyph name="Uacute" xMin="50" yMin="-14" xMax="701" yMax="1046">
      <contour>
        <pt x="436" y="-14" on="0"/>
        <pt x="146" y="-14" on="0"/>
        <pt x="90" y="53" on="1"/>
        <pt x="50" y="99" on="0"/>
        <pt x="50" y="180" on="1"/>
        <pt x="50" y="216" on="0"/>
        <pt x="58" y="259" on="1"/>
        <pt x="139" y="720" on="1"/>
        <pt x="319" y="720" on="1"/>
        <pt x="238" y="263" on="1"/>
        <pt x="234" y="238" on="0"/>
        <pt x="234" y="211" on="1"/>
        <pt x="234" y="141" on="0"/>
        <pt x="318" y="141" on="1"/>
        <pt x="368" y="141" on="0"/>
        <pt x="428" y="193" on="0"/>
        <pt x="440" y="263" on="1"/>
        <pt x="521" y="720" on="1"/>
        <pt x="701" y="720" on="1"/>
        <pt x="620" y="259" on="1"/>
        <pt x="595" y="119" on="0"/>
      </contour>
      <contour>
        <pt x="488" y="807" on="1"/>
        <pt x="340" y="807" on="1"/>
        <pt x="504" y="1046" on="1"/>
        <pt x="684" y="1046" on="1"/>
      </contour>
    </TTGlyph>
    <TTGlyph name="Ucircumflex" xMin="58" yMin="-14" xMax="701" yMax="1046">
      <component glyphName="U" x="0" y="0" flags="0x1004"/>
      <component glyphName="circumflex" x="73" y="239" flags="0x1004"/>
    </TTGlyph>
    <TTGlyph name="Udieresis" xMin="50" yMin="-14" xMax="701" yMax="959">
      <contour>
        <pt x="436" y="-14" on="0"/>
        <pt x="146" y="-14" on="0"/>
        <pt x="90" y="53" on="1"/>
        <pt x="50" y="99" on="0"/>
        <pt x="50" y="180" on="1"/>
        <pt x="50" y="216" on="0"/>
        <pt x="58" y="259" on="1"/>
        <pt x="139" y="720" on="1"/>
        <pt x="319" y="720" on="1"/>
        <pt x="238" y="263" on="1"/>
        <pt x="234" y="238" on="0"/>
        <pt x="234" y="211" on="1"/>
        <pt x="234" y="141" on="0"/>
        <pt x="318" y="141" on="1"/>
        <pt x="368" y="141" on="0"/>
        <pt x="428" y="193" on="0"/>
        <pt x="440" y="263" on="1"/>
        <pt x="521" y="720" on="1"/>
        <pt x="701" y="720" on="1"/>
        <pt x="620" y="259" on="1"/>
        <pt x="595" y="119" on="0"/>
      </contour>
      <contour>
        <pt x="232" y="861" on="1"/>
        <pt x="232" y="912" on="0"/>
        <pt x="278" y="959" on="0"/>
        <pt x="326" y="959" on="1"/>
        <pt x="393" y="959" on="0"/>
        <pt x="393" y="901" on="1"/>
        <pt x="393" y="850" on="0"/>
        <pt x="347" y="803" on="0"/>
        <pt x="298" y="803" on="1"/>
        <pt x="232" y="803" on="0"/>
      </contour>
      <contour>
        <pt x="514" y="861" on="1"/>
        <pt x="514" y="912" on="0"/>
        <pt x="560" y="959" on="0"/>
        <pt x="608" y="959" on="1"/>
        <pt x="675" y="959" on="0"/>
        <pt x="675" y="901" on="1"/>
        <pt x="675" y="850" on="0"/>
        <pt x="629" y="803" on="0"/>
        <pt x="580" y="803" on="1"/>
        <pt x="514" y="803" on="0"/>
      </contour>
    </TTGlyph>
    <TTGlyph name="Ugrave" xMin="58" yMin="-14" xMax="701" yMax="1046">
      <component glyphName="U" x="0" y="0" flags="0x1004"/>
      <component glyphName="grave" x="55" y="239" flags="0x1004"/>
    </TTGlyph>
    <TTGlyph name="V" xMin="99" yMin="0" xMax="700" yMax="720">
      <contour>
        <pt x="315" y="175" on="1"/>
        <pt x="505" y="720" on="1"/>
        <pt x="700" y="720" on="1"/>
        <pt x="427" y="0" on="1"/>
        <pt x="107" y="0" on="1"/>
        <pt x="99" y="720" on="1"/>
        <pt x="295" y="720" on="1"/>
        <pt x="292" y="175" on="1"/>
      </contour>
    </TTGlyph>
    <TTGlyph name="W" xMin="94" yMin="0" xMax="1048" yMax="720">
      <contour>
        <pt x="672" y="720" on="1"/>
        <pt x="655" y="175" on="1"/>
        <pt x="678" y="175" on="1"/>
        <pt x="852" y="720" on="1"/>
        <pt x="1048" y="720" on="1"/>
        <pt x="801" y="0" on="1"/>
        <pt x="501" y="0" on="1"/>
        <pt x="528" y="461" on="1"/>
        <pt x="394" y="0" on="1"/>
        <pt x="94" y="0" on="1"/>
        <pt x="101" y="720" on="1"/>
        <pt x="297" y="720" on="1"/>
        <pt x="279" y="175" on="1"/>
        <pt x="302" y="175" on="1"/>
        <pt x="477" y="720" on="1"/>
      </contour>
    </TTGlyph>
    <TTGlyph name="X" xMin="-44" yMin="0" xMax="756" yMax="720">
      <contour>
        <pt x="756" y="720" on="1"/>
        <pt x="474" y="357" on="1"/>
        <pt x="629" y="0" on="1"/>
        <pt x="424" y="0" on="1"/>
        <pt x="326" y="230" on="1"/>
        <pt x="161" y="0" on="1"/>
        <pt x="-44" y="0" on="1"/>
        <pt x="221" y="357" on="1"/>
        <pt x="83" y="720" on="1"/>
        <pt x="288" y="720" on="1"/>
        <pt x="371" y="486" on="1"/>
        <pt x="551" y="720" on="1"/>
      </contour>
    </TTGlyph>
    <TTGlyph name="Y" xMin="75" yMin="0" xMax="716" yMax="720">
      <contour>
        <pt x="367" y="467" on="1"/>
        <pt x="536" y="720" on="1"/>
        <pt x="716" y="720" on="1"/>
        <pt x="408" y="277" on="1"/>
        <pt x="359" y="0" on="1"/>
        <pt x="178" y="0" on="1"/>
        <pt x="227" y="277" on="1"/>
        <pt x="75" y="720" on="1"/>
        <pt x="266" y="720" on="1"/>
        <pt x="344" y="467" on="1"/>
      </contour>
    </TTGlyph>
    <TTGlyph name="Yacute" xMin="75" yMin="0" xMax="716" yMax="1046">
      <component glyphName="Y" x="0" y="0" flags="0x1004"/>
      <component glyphName="acute" x="166" y="239" flags="0x1004"/>
    </TTGlyph>
    <TTGlyph name="Ydieresis" xMin="75" yMin="0" xMax="716" yMax="959">
      <component glyphName="Y" x="0" y="0" flags="0x1004"/>
      <component glyphName="dieresis" x="49" y="239" flags="0x1004"/>
    </TTGlyph>
    <TTGlyph name="Z" xMin="-7" yMin="0" xMax="648" yMax="720">
      <contour>
        <pt x="520" y="0" on="1"/>
        <pt x="-7" y="0" on="1"/>
        <pt x="21" y="156" on="1"/>
        <pt x="22" y="156" on="1"/>
        <pt x="409" y="564" on="1"/>
        <pt x="92" y="564" on="1"/>
        <pt x="120" y="720" on="1"/>
        <pt x="648" y="720" on="1"/>
        <pt x="620" y="564" on="1"/>
        <pt x="233" y="156" on="1"/>
        <pt x="548" y="156" on="1"/>
      </contour>
    </TTGlyph>
    <TTGlyph name="Zcaron" xMin="-7" yMin="0" xMax="648" yMax="1046">
      <contour>
        <pt x="520" y="0" on="1"/>
        <pt x="-7" y="0" on="1"/>
        <pt x="21" y="156" on="1"/>
        <pt x="22" y="156" on="1"/>
        <pt x="409" y="564" on="1"/>
        <pt x="92" y="564" on="1"/>
        <pt x="120" y="720" on="1"/>
        <pt x="648" y="720" on="1"/>
        <pt x="620" y="564" on="1"/>
        <pt x="233" y="156" on="1"/>
        <pt x="548" y="156" on="1"/>
      </contour>
      <contour>
        <pt x="285" y="807" on="1"/>
        <pt x="285" y="808" on="1"/>
        <pt x="206" y="1046" on="1"/>
        <pt x="349" y="1046" on="1"/>
        <pt x="396" y="928" on="1"/>
        <pt x="486" y="1046" on="1"/>
        <pt x="629" y="1046" on="1"/>
        <pt x="465" y="808" on="1"/>
        <pt x="466" y="807" on="1"/>
      </contour>
    </TTGlyph>
    <TTGlyph name="a" xMin="15" yMin="-14" xMax="562" yMax="494">
      <contour>
        <pt x="491" y="154" on="1"/>
        <pt x="491" y="128" on="0"/>
        <pt x="544" y="128" on="0"/>
        <pt x="562" y="138" on="1"/>
        <pt x="557" y="25" on="1"/>
        <pt x="509" y="-14" on="0"/>
        <pt x="449" y="-14" on="1"/>
        <pt x="339" y="-14" on="0"/>
        <pt x="327" y="66" on="1"/>
        <pt x="277" y="-14" on="0"/>
        <pt x="180" y="-14" on="1"/>
        <pt x="16" y="-14" on="0"/>
        <pt x="16" y="127" on="1"/>
        <pt x="16" y="151" on="0"/>
        <pt x="21" y="180" on="1"/>
        <pt x="42" y="297" on="1"/>
        <pt x="58" y="387" on="0"/>
        <pt x="173" y="494" on="0"/>
        <pt x="358" y="494" on="0"/>
        <pt x="391" y="451" on="1"/>
        <pt x="396" y="481" on="1"/>
        <pt x="548" y="481" on="1"/>
        <pt x="492" y="166" on="1"/>
        <pt x="491" y="160" on="0"/>
      </contour>
      <contour>
        <pt x="195" y="202" on="1"/>
        <pt x="193" y="193" on="0"/>
        <pt x="193" y="161" on="0"/>
        <pt x="223" y="130" on="0"/>
        <pt x="294" y="130" on="0"/>
        <pt x="320" y="158" on="1"/>
        <pt x="350" y="326" on="1"/>
        <pt x="339" y="351" on="0"/>
        <pt x="298" y="351" on="1"/>
        <pt x="221" y="351" on="0"/>
        <pt x="208" y="277" on="1"/>
      </contour>
    </TTGlyph>
    <TTGlyph name="aacute" xMin="21" yMin="-14" xMax="608" yMax="807">
      <component glyphName="a" x="0" y="0" flags="0x1004"/>
      <component glyphName="acute" x="114" y="0" flags="0x1004"/>
    </TTGlyph>
    <TTGlyph name="acircumflex" xMin="21" yMin="-14" xMax="572" yMax="807">
      <component glyphName="a" x="0" y="0" flags="0x1004"/>
      <component glyphName="circumflex" x="-1" y="0" flags="0x1004"/>
    </TTGlyph>
    <TTGlyph name="acute" xMin="150" yMin="568" xMax="494" yMax="807">
      <contour>
        <pt x="298" y="568" on="1"/>
        <pt x="150" y="568" on="1"/>
        <pt x="314" y="807" on="1"/>
        <pt x="494" y="807" on="1"/>
      </contour>
    </TTGlyph>
    <TTGlyph name="adieresis" xMin="21" yMin="-14" xMax="605" yMax="720">
      <component glyphName="a" x="0" y="0" flags="0x1004"/>
      <component glyphName="dieresis" x="1" y="0" flags="0x1004"/>
    </TTGlyph>
    <TTGlyph name="ae" xMin="15" yMin="-14" xMax="823" yMax="496">
      <contour>
        <pt x="526" y="-14" on="1"/>
        <pt x="376" y="-14" on="0"/>
        <pt x="335" y="58" on="1"/>
        <pt x="312" y="30" on="0"/>
        <pt x="229" y="-14" on="0"/>
        <pt x="175" y="-14" on="1"/>
        <pt x="82" y="-14" on="0"/>
        <pt x="43" y="36" on="1"/>
        <pt x="16" y="71" on="0"/>
        <pt x="16" y="127" on="1"/>
        <pt x="16" y="151" on="0"/>
        <pt x="21" y="180" on="1"/>
        <pt x="42" y="297" on="1"/>
        <pt x="58" y="387" on="0"/>
        <pt x="173" y="494" on="0"/>
        <pt x="358" y="494" on="0"/>
        <pt x="391" y="451" on="1"/>
        <pt x="396" y="481" on="1"/>
        <pt x="507" y="481" on="1"/>
        <pt x="558" y="496" on="0"/>
        <pt x="621" y="496" on="1"/>
        <pt x="823" y="496" on="0"/>
        <pt x="823" y="346" on="1"/>
        <pt x="823" y="323" on="0"/>
        <pt x="818" y="296" on="1"/>
        <pt x="806" y="225" on="1"/>
        <pt x="502" y="225" on="1"/>
        <pt x="496" y="189" on="1"/>
        <pt x="495" y="182" on="0"/>
        <pt x="495" y="176" on="1"/>
        <pt x="495" y="150" on="0"/>
        <pt x="530" y="125" on="0"/>
        <pt x="545" y="125" on="1"/>
        <pt x="599" y="125" on="0"/>
        <pt x="621" y="175" on="1"/>
        <pt x="787" y="173" on="1"/>
        <pt x="754" y="-14" on="0"/>
      </contour>
      <contour>
        <pt x="195" y="202" on="1"/>
        <pt x="193" y="193" on="0"/>
        <pt x="193" y="161" on="0"/>
        <pt x="223" y="130" on="0"/>
        <pt x="294" y="130" on="0"/>
        <pt x="319" y="157" on="1"/>
        <pt x="350" y="326" on="1"/>
        <pt x="339" y="351" on="0"/>
        <pt x="298" y="351" on="1"/>
        <pt x="221" y="351" on="0"/>
        <pt x="208" y="277" on="1"/>
      </contour>
      <contour>
        <pt x="646" y="286" on="1"/>
        <pt x="650" y="303" on="0"/>
        <pt x="650" y="332" on="0"/>
        <pt x="624" y="362" on="0"/>
        <pt x="597" y="362" on="1"/>
        <pt x="537" y="362" on="0"/>
        <pt x="514" y="292" on="1"/>
        <pt x="512" y="286" on="1"/>
      </contour>
    </TTGlyph>
    <TTGlyph name="agrave" xMin="15" yMin="-14" xMax="562" yMax="807">
      <contour>
        <pt x="491" y="154" on="1"/>
        <pt x="491" y="128" on="0"/>
        <pt x="544" y="128" on="0"/>
        <pt x="562" y="138" on="1"/>
        <pt x="557" y="25" on="1"/>
        <pt x="509" y="-14" on="0"/>
        <pt x="449" y="-14" on="1"/>
        <pt x="339" y="-14" on="0"/>
        <pt x="327" y="66" on="1"/>
        <pt x="277" y="-14" on="0"/>
        <pt x="180" y="-14" on="1"/>
        <pt x="16" y="-14" on="0"/>
        <pt x="16" y="127" on="1"/>
        <pt x="16" y="151" on="0"/>
        <pt x="21" y="180" on="1"/>
        <pt x="42" y="297" on="1"/>
        <pt x="58" y="387" on="0"/>
        <pt x="173" y="494" on="0"/>
        <pt x="358" y="494" on="0"/>
        <pt x="391" y="451" on="1"/>
        <pt x="396" y="481" on="1"/>
        <pt x="548" y="481" on="1"/>
        <pt x="492" y="166" on="1"/>
        <pt x="491" y="160" on="0"/>
      </contour>
      <contour>
        <pt x="195" y="202" on="1"/>
        <pt x="193" y="193" on="0"/>
        <pt x="193" y="161" on="0"/>
        <pt x="223" y="130" on="0"/>
        <pt x="294" y="130" on="0"/>
        <pt x="320" y="158" on="1"/>
        <pt x="350" y="326" on="1"/>
        <pt x="339" y="351" on="0"/>
        <pt x="298" y="351" on="1"/>
        <pt x="221" y="351" on="0"/>
        <pt x="208" y="277" on="1"/>
      </contour>
      <contour>
        <pt x="436" y="568" on="1"/>
        <pt x="288" y="568" on="1"/>
        <pt x="176" y="807" on="1"/>
        <pt x="356" y="807" on="1"/>
      </contour>
    </TTGlyph>
    <TTGlyph name="ampersand" xMin="22" yMin="-14" xMax="658" yMax="727">
      <contour>
        <pt x="264" y="-14" on="1"/>
        <pt x="22" y="-14" on="0"/>
        <pt x="22" y="154" on="1"/>
        <pt x="22" y="236" on="0"/>
        <pt x="113" y="341" on="0"/>
        <pt x="179" y="341" on="1"/>
        <pt x="179" y="344" on="1"/>
        <pt x="134" y="344" on="0"/>
        <pt x="82" y="426" on="0"/>
        <pt x="82" y="479" on="1"/>
        <pt x="82" y="588" on="0"/>
        <pt x="250" y="727" on="0"/>
        <pt x="400" y="727" on="1"/>
        <pt x="516" y="727" on="0"/>
        <pt x="635" y="640" on="0"/>
        <pt x="635" y="563" on="1"/>
        <pt x="635" y="535" on="0"/>
        <pt x="620" y="485" on="0"/>
        <pt x="612" y="474" on="1"/>
        <pt x="604" y="464" on="1"/>
        <pt x="427" y="464" on="1"/>
        <pt x="448" y="485" on="0"/>
        <pt x="448" y="522" on="1"/>
        <pt x="448" y="572" on="0"/>
        <pt x="371" y="572" on="1"/>
        <pt x="323" y="572" on="0"/>
        <pt x="261" y="521" on="0"/>
        <pt x="261" y="445" on="0"/>
        <pt x="309" y="399" on="0"/>
        <pt x="351" y="398" on="1"/>
        <pt x="658" y="398" on="1"/>
        <pt x="638" y="289" on="1"/>
        <pt x="594" y="289" on="1"/>
        <pt x="583" y="228" on="1"/>
        <pt x="561" y="106" on="0"/>
        <pt x="394" y="-14" on="0"/>
      </contour>
      <contour>
        <pt x="210" y="207" on="1"/>
        <pt x="210" y="178" on="0"/>
        <pt x="252" y="141" on="0"/>
        <pt x="287" y="141" on="1"/>
        <pt x="398" y="141" on="0"/>
        <pt x="413" y="228" on="1"/>
        <pt x="424" y="289" on="1"/>
        <pt x="310" y="289" on="1"/>
        <pt x="210" y="289" on="0"/>
      </contour>
    </TTGlyph>
    <TTGlyph name="apple" xMin="50" yMin="-57" xMax="1277" yMax="630">
      <contour>
        <pt x="879" y="358" on="1"/>
        <pt x="884" y="264" on="1"/>
        <pt x="771" y="264" on="1"/>
        <pt x="771" y="424" on="0"/>
        <pt x="779" y="477" on="1"/>
        <pt x="782" y="497" on="1"/>
        <pt x="858" y="497" on="1"/>
        <pt x="864" y="455" on="0"/>
        <pt x="864" y="423" on="1"/>
        <pt x="866" y="433" on="1"/>
        <pt x="884" y="501" on="0"/>
        <pt x="945" y="501" on="1"/>
        <pt x="985" y="501" on="0"/>
        <pt x="1018" y="454" on="0"/>
        <pt x="1019" y="400" on="1"/>
        <pt x="1021" y="264" on="1"/>
        <pt x="909" y="264" on="1"/>
        <pt x="911" y="358" on="1"/>
        <pt x="911" y="383" on="0"/>
        <pt x="896" y="383" on="1"/>
        <pt x="879" y="383" on="0"/>
      </contour>
      <contour>
        <pt x="168" y="264" on="1"/>
        <pt x="52" y="264" on="1"/>
        <pt x="52" y="402" on="0"/>
        <pt x="60" y="532" on="1"/>
        <pt x="63" y="571" on="1"/>
        <pt x="158" y="571" on="1"/>
        <pt x="168" y="434" on="0"/>
      </contour>
      <contour>
        <pt x="1225" y="501" on="0"/>
        <pt x="1277" y="435" on="0"/>
        <pt x="1277" y="322" on="0"/>
        <pt x="1216" y="258" on="0"/>
        <pt x="1097" y="258" on="0"/>
        <pt x="1036" y="322" on="0"/>
        <pt x="1036" y="377" on="1"/>
        <pt x="1036" y="501" on="0"/>
        <pt x="1156" y="501" on="1"/>
      </contour>
      <contour>
        <pt x="1133" y="336" on="0"/>
        <pt x="1180" y="336" on="0"/>
        <pt x="1180" y="393" on="0"/>
        <pt x="1133" y="393" on="0"/>
      </contour>
      <contour>
        <pt x="435" y="264" on="1"/>
        <pt x="359" y="264" on="1"/>
        <pt x="350" y="322" on="1"/>
        <pt x="338" y="258" on="0"/>
        <pt x="276" y="258" on="1"/>
        <pt x="187" y="258" on="0"/>
        <pt x="187" y="370" on="1"/>
        <pt x="187" y="435" on="0"/>
        <pt x="249" y="501" on="0"/>
        <pt x="319" y="501" on="1"/>
        <pt x="435" y="501" on="0"/>
        <pt x="435" y="389" on="1"/>
      </contour>
      <contour>
        <pt x="314" y="336" on="1"/>
        <pt x="338" y="336" on="0"/>
        <pt x="338" y="393" on="0"/>
        <pt x="314" y="393" on="1"/>
        <pt x="293" y="393" on="0"/>
        <pt x="293" y="336" on="0"/>
      </contour>
      <contour>
        <pt x="625" y="-57" on="1"/>
        <pt x="498" y="-57" on="1"/>
        <pt x="498" y="82" on="0"/>
        <pt x="506" y="192" on="1"/>
        <pt x="509" y="225" on="1"/>
        <pt x="587" y="225" on="1"/>
        <pt x="594" y="174" on="0"/>
        <pt x="594" y="150" on="1"/>
        <pt x="608" y="233" on="0"/>
        <pt x="672" y="233" on="1"/>
        <pt x="707" y="233" on="0"/>
        <pt x="750" y="174" on="0"/>
        <pt x="750" y="55" on="0"/>
        <pt x="684" y="-15" on="0"/>
        <pt x="623" y="-15" on="1"/>
        <pt x="625" y="-30" on="0"/>
      </contour>
      <contour>
        <pt x="646" y="102" on="1"/>
        <pt x="646" y="123" on="0"/>
        <pt x="627" y="123" on="1"/>
        <pt x="604" y="123" on="0"/>
        <pt x="604" y="93" on="1"/>
        <pt x="608" y="66" on="1"/>
        <pt x="622" y="66" on="0"/>
        <pt x="646" y="87" on="0"/>
      </contour>
      <contour>
        <pt x="931" y="59" on="1"/>
        <pt x="953" y="59" on="0"/>
        <pt x="972" y="74" on="1"/>
        <pt x="972" y="1" on="1"/>
        <pt x="951" y="-15" on="0"/>
        <pt x="833" y="-15" on="0"/>
        <pt x="767" y="50" on="0"/>
        <pt x="767" y="106" on="1"/>
        <pt x="767" y="233" on="0"/>
        <pt x="890" y="233" on="1"/>
        <pt x="942" y="233" on="0"/>
        <pt x="1002" y="172" on="0"/>
        <pt x="1002" y="119" on="1"/>
        <pt x="997" y="83" on="1"/>
        <pt x="877" y="83" on="1"/>
        <pt x="877" y="59" on="0"/>
      </contour>
      <contour>
        <pt x="871" y="108" on="1"/>
        <pt x="910" y="108" on="1"/>
        <pt x="911" y="111" on="0"/>
        <pt x="911" y="116" on="1"/>
        <pt x="911" y="135" on="0"/>
        <pt x="893" y="135" on="1"/>
        <pt x="871" y="135" on="0"/>
      </contour>
      <contour>
        <pt x="469" y="322" on="1"/>
        <pt x="471" y="408" on="1"/>
        <pt x="448" y="408" on="1"/>
        <pt x="448" y="491" on="1"/>
        <pt x="564" y="527" on="1"/>
        <pt x="568" y="497" on="1"/>
        <pt x="740" y="497" on="1"/>
        <pt x="748" y="434" on="0"/>
        <pt x="748" y="264" on="1"/>
        <pt x="634" y="264" on="1"/>
        <pt x="634" y="374" on="0"/>
        <pt x="636" y="408" on="1"/>
        <pt x="579" y="408" on="1"/>
        <pt x="581" y="345" on="1"/>
        <pt x="583" y="343" on="0"/>
        <pt x="592" y="343" on="1"/>
        <pt x="609" y="347" on="1"/>
        <pt x="609" y="275" on="1"/>
        <pt x="602" y="258" on="0"/>
        <pt x="547" y="258" on="1"/>
        <pt x="469" y="258" on="0"/>
      </contour>
      <contour>
        <pt x="716" y="510" on="0"/>
        <pt x="666" y="510" on="0"/>
        <pt x="632" y="545" on="0"/>
        <pt x="632" y="595" on="0"/>
        <pt x="666" y="630" on="0"/>
        <pt x="716" y="630" on="0"/>
        <pt x="750" y="595" on="0"/>
        <pt x="750" y="545" on="0"/>
      </contour>
      <contour>
        <pt x="479" y="9" on="0"/>
        <pt x="407" y="-57" on="0"/>
        <pt x="268" y="-57" on="0"/>
        <pt x="236" y="-36" on="1"/>
        <pt x="236" y="47" on="1"/>
        <pt x="261" y="28" on="0"/>
        <pt x="337" y="28" on="0"/>
        <pt x="373" y="46" on="0"/>
        <pt x="376" y="55" on="1"/>
        <pt x="380" y="64" on="1"/>
        <pt x="369" y="49" on="0"/>
        <pt x="323" y="49" on="1"/>
        <pt x="230" y="49" on="0"/>
        <pt x="230" y="123" on="1"/>
        <pt x="230" y="131" on="1"/>
        <pt x="185" y="131" on="1"/>
        <pt x="187" y="70" on="1"/>
        <pt x="203" y="70" on="0"/>
        <pt x="215" y="76" on="1"/>
        <pt x="215" y="2" on="1"/>
        <pt x="197" y="-15" on="0"/>
        <pt x="148" y="-15" on="1"/>
        <pt x="75" y="-15" on="0"/>
        <pt x="75" y="49" on="1"/>
        <pt x="77" y="131" on="1"/>
        <pt x="50" y="131" on="1"/>
        <pt x="50" y="214" on="1"/>
        <pt x="171" y="254" on="1"/>
        <pt x="175" y="225" on="1"/>
        <pt x="340" y="225" on="1"/>
        <pt x="338" y="123" on="0"/>
        <pt x="338" y="119" on="1"/>
        <pt x="338" y="93" on="0"/>
        <pt x="369" y="93" on="0"/>
        <pt x="369" y="119" on="1"/>
        <pt x="367" y="225" on="1"/>
        <pt x="473" y="225" on="1"/>
        <pt x="479" y="167" on="0"/>
      </contour>
      <contour>
        <pt x="1056" y="183" on="1"/>
        <pt x="1056" y="172" on="1"/>
        <pt x="1048" y="172" on="1"/>
        <pt x="1048" y="209" on="1"/>
        <pt x="1064" y="209" on="1"/>
        <pt x="1079" y="209" on="0"/>
        <pt x="1079" y="197" on="1"/>
        <pt x="1079" y="188" on="0"/>
        <pt x="1071" y="185" on="1"/>
        <pt x="1079" y="172" on="1"/>
        <pt x="1070" y="172" on="1"/>
        <pt x="1063" y="183" on="1"/>
      </contour>
      <contour>
        <pt x="1056" y="190" on="1"/>
        <pt x="1064" y="190" on="1"/>
        <pt x="1071" y="190" on="0"/>
        <pt x="1071" y="202" on="0"/>
        <pt x="1064" y="202" on="1"/>
        <pt x="1056" y="202" on="1"/>
      </contour>
      <contour>
        <pt x="1077" y="153" on="0"/>
        <pt x="1047" y="153" on="0"/>
        <pt x="1025" y="175" on="0"/>
        <pt x="1025" y="205" on="0"/>
        <pt x="1047" y="227" on="0"/>
        <pt x="1077" y="227" on="0"/>
        <pt x="1099" y="205" on="0"/>
        <pt x="1099" y="175" on="0"/>
      </contour>
      <contour>
        <pt x="1092" y="178" on="0"/>
        <pt x="1092" y="202" on="0"/>
        <pt x="1074" y="220" on="0"/>
        <pt x="1050" y="220" on="0"/>
        <pt x="1032" y="202" on="0"/>
        <pt x="1032" y="178" on="0"/>
        <pt x="1050" y="160" on="0"/>
        <pt x="1074" y="160" on="0"/>
      </contour>
    </TTGlyph>
    <TTGlyph name="aring" xMin="21" yMin="-14" xMax="562" yMax="767">
      <component glyphName="a" x="0" y="0" flags="0x1004"/>
      <component glyphName="ring" x="101" y="0" flags="0x1004"/>
    </TTGlyph>
    <TTGlyph name="asciicircum" xMin="150" yMin="568" xMax="573" yMax="807">
      <contour>
        <pt x="293" y="568" on="1"/>
        <pt x="150" y="568" on="1"/>
        <pt x="313" y="807" on="1"/>
        <pt x="494" y="807" on="1"/>
        <pt x="573" y="568" on="1"/>
        <pt x="430" y="568" on="1"/>
        <pt x="382" y="686" on="1"/>
      </contour>
    </TTGlyph>
    <TTGlyph name="asciitilde" xMin="39" yMin="210" xMax="489" yMax="392">
      <contour>
        <pt x="373" y="210" on="0"/>
        <pt x="308" y="210" on="0"/>
        <pt x="201" y="253" on="0"/>
        <pt x="166" y="253" on="1"/>
        <pt x="107" y="253" on="0"/>
        <pt x="56" y="234" on="1"/>
        <pt x="39" y="227" on="1"/>
        <pt x="59" y="338" on="1"/>
        <pt x="63" y="344" on="0"/>
        <pt x="80" y="362" on="0"/>
        <pt x="145" y="392" on="0"/>
        <pt x="227" y="392" on="0"/>
        <pt x="348" y="346" on="0"/>
        <pt x="419" y="346" on="0"/>
        <pt x="470" y="361" on="0"/>
        <pt x="480" y="368" on="1"/>
        <pt x="489" y="376" on="1"/>
        <pt x="469" y="256" on="1"/>
        <pt x="447" y="238" on="0"/>
      </contour>
    </TTGlyph>
    <TTGlyph name="asterisk" xMin="91" yMin="474" xMax="475" yMax="856">
      <contour>
        <pt x="360" y="506" on="1"/>
        <pt x="281" y="474" on="1"/>
        <pt x="261" y="601" on="1"/>
        <pt x="169" y="494" on="1"/>
        <pt x="111" y="542" on="1"/>
        <pt x="226" y="644" on="1"/>
        <pt x="91" y="652" on="1"/>
        <pt x="113" y="734" on="1"/>
        <pt x="241" y="700" on="1"/>
        <pt x="205" y="823" on="1"/>
        <pt x="285" y="856" on="1"/>
        <pt x="302" y="722" on="1"/>
        <pt x="398" y="836" on="1"/>
        <pt x="455" y="788" on="1"/>
        <pt x="343" y="686" on="1"/>
        <pt x="475" y="677" on="1"/>
        <pt x="452" y="596" on="1"/>
        <pt x="323" y="627" on="1"/>
      </contour>
    </TTGlyph>
    <TTGlyph name="at" xMin="22" yMin="-125" xMax="991" yMax="794">
      <contour>
        <pt x="534" y="639" on="0"/>
        <pt x="491" y="637" on="0"/>
        <pt x="411" y="630" on="0"/>
        <pt x="356" y="609" on="0"/>
        <pt x="326" y="592" on="1"/>
        <pt x="267" y="558" on="0"/>
        <pt x="252" y="479" on="1"/>
        <pt x="202" y="197" on="1"/>
        <pt x="200" y="184" on="0"/>
        <pt x="200" y="145" on="0"/>
        <pt x="228" y="91" on="0"/>
        <pt x="286" y="57" on="0"/>
        <pt x="328" y="46" on="1"/>
        <pt x="393" y="30" on="0"/>
        <pt x="551" y="30" on="0"/>
        <pt x="695" y="54" on="0"/>
        <pt x="727" y="66" on="1"/>
        <pt x="759" y="79" on="1"/>
        <pt x="785" y="-66" on="1"/>
        <pt x="719" y="-87" on="0"/>
        <pt x="506" y="-125" on="0"/>
        <pt x="437" y="-125" on="1"/>
        <pt x="197" y="-125" on="0"/>
        <pt x="98" y="-40" on="1"/>
        <pt x="22" y="25" on="0"/>
        <pt x="22" y="140" on="1"/>
        <pt x="22" y="175" on="0"/>
        <pt x="29" y="214" on="1"/>
        <pt x="76" y="479" on="1"/>
        <pt x="101" y="620" on="0"/>
        <pt x="360" y="794" on="0"/>
        <pt x="600" y="794" on="1"/>
        <pt x="715" y="794" on="0"/>
        <pt x="880" y="746" on="0"/>
        <pt x="923" y="702" on="1"/>
        <pt x="991" y="634" on="0"/>
        <pt x="991" y="539" on="1"/>
        <pt x="991" y="514" on="0"/>
        <pt x="986" y="487" on="1"/>
        <pt x="970" y="392" on="1"/>
        <pt x="947" y="259" on="0"/>
        <pt x="767" y="121" on="0"/>
        <pt x="644" y="121" on="1"/>
        <pt x="552" y="121" on="0"/>
        <pt x="540" y="190" on="1"/>
        <pt x="526" y="165" on="0"/>
        <pt x="462" y="121" on="0"/>
        <pt x="412" y="121" on="1"/>
        <pt x="333" y="121" on="0"/>
        <pt x="300" y="164" on="1"/>
        <pt x="276" y="193" on="0"/>
        <pt x="276" y="242" on="1"/>
        <pt x="276" y="262" on="0"/>
        <pt x="280" y="286" on="1"/>
        <pt x="297" y="385" on="1"/>
        <pt x="311" y="462" on="0"/>
        <pt x="410" y="553" on="0"/>
        <pt x="567" y="553" on="0"/>
        <pt x="594" y="516" on="1"/>
        <pt x="599" y="542" on="1"/>
        <pt x="746" y="542" on="1"/>
        <pt x="706" y="313" on="1"/>
        <pt x="704" y="303" on="0"/>
        <pt x="704" y="296" on="1"/>
        <pt x="704" y="269" on="0"/>
        <pt x="727" y="269" on="1"/>
        <pt x="774" y="269" on="0"/>
        <pt x="790" y="350" on="1"/>
        <pt x="817" y="489" on="1"/>
        <pt x="820" y="505" on="0"/>
        <pt x="820" y="543" on="0"/>
        <pt x="798" y="593" on="0"/>
        <pt x="755" y="622" on="0"/>
        <pt x="714" y="630" on="1"/>
        <pt x="662" y="639" on="0"/>
        <pt x="627" y="639" on="1"/>
        <pt x="591" y="639" on="0"/>
      </contour>
      <contour>
        <pt x="480" y="262" on="1"/>
        <pt x="519" y="262" on="0"/>
        <pt x="539" y="289" on="1"/>
        <pt x="557" y="391" on="1"/>
        <pt x="550" y="413" on="0"/>
        <pt x="506" y="413" on="1"/>
        <pt x="488" y="413" on="0"/>
        <pt x="462" y="389" on="0"/>
        <pt x="458" y="369" on="1"/>
        <pt x="446" y="304" on="1"/>
        <pt x="445" y="299" on="0"/>
        <pt x="445" y="281" on="0"/>
        <pt x="463" y="262" on="0"/>
      </contour>
    </TTGlyph>
    <TTGlyph name="atilde" xMin="21" yMin="-14" xMax="604" yMax="766">
      <component glyphName="a" x="0" y="0" flags="0x1004"/>
      <component glyphName="tilde" x="-2" y="0" flags="0x1004"/>
    </TTGlyph>
    <TTGlyph name="b" xMin="27" yMin="-14" xMax="534" yMax="759">
      <contour>
        <pt x="365" y="495" on="1"/>
        <pt x="464" y="495" on="0"/>
        <pt x="504" y="440" on="1"/>
        <pt x="534" y="401" on="0"/>
        <pt x="534" y="345" on="1"/>
        <pt x="534" y="322" on="0"/>
        <pt x="529" y="297" on="1"/>
        <pt x="509" y="185" on="1"/>
        <pt x="492" y="89" on="0"/>
        <pt x="349" y="-14" on="0"/>
        <pt x="132" y="-14" on="0"/>
        <pt x="74" y="29" on="1"/>
        <pt x="28" y="63" on="0"/>
        <pt x="28" y="124" on="1"/>
        <pt x="28" y="140" on="0"/>
        <pt x="31" y="157" on="1"/>
        <pt x="137" y="759" on="1"/>
        <pt x="307" y="759" on="1"/>
        <pt x="256" y="468" on="1"/>
        <pt x="298" y="495" on="0"/>
      </contour>
      <contour>
        <pt x="356" y="282" on="1"/>
        <pt x="357" y="290" on="0"/>
        <pt x="357" y="319" on="0"/>
        <pt x="332" y="352" on="0"/>
        <pt x="249" y="352" on="0"/>
        <pt x="231" y="327" on="1"/>
        <pt x="202" y="160" on="1"/>
        <pt x="214" y="130" on="0"/>
        <pt x="252" y="130" on="1"/>
        <pt x="329" y="130" on="0"/>
        <pt x="343" y="207" on="1"/>
      </contour>
    </TTGlyph>
    <TTGlyph name="backslash" xMin="103" yMin="-277" xMax="441" yMax="760">
      <contour>
        <pt x="441" y="-277" on="1"/>
        <pt x="232" y="-277" on="1"/>
        <pt x="103" y="760" on="1"/>
        <pt x="311" y="760" on="1"/>
      </contour>
    </TTGlyph>
    <TTGlyph name="bar" xMin="-36" yMin="-278" xMax="297" yMax="759">
      <contour>
        <pt x="114" y="-278" on="1"/>
        <pt x="-36" y="-278" on="1"/>
        <pt x="147" y="759" on="1"/>
        <pt x="297" y="759" on="1"/>
      </contour>
    </TTGlyph>
    <TTGlyph name="braceleft" xMin="-3" yMin="-278" xMax="434" yMax="758">
      <contour>
        <pt x="81" y="-232" on="1"/>
        <pt x="26" y="-192" on="0"/>
        <pt x="26" y="-107" on="1"/>
        <pt x="26" y="-79" on="0"/>
        <pt x="32" y="-48" on="1"/>
        <pt x="59" y="106" on="1"/>
        <pt x="61" y="115" on="0"/>
        <pt x="61" y="144" on="0"/>
        <pt x="32" y="173" on="0"/>
        <pt x="7" y="173" on="1"/>
        <pt x="-3" y="173" on="1"/>
        <pt x="21" y="309" on="1"/>
        <pt x="31" y="309" on="1"/>
        <pt x="57" y="309" on="0"/>
        <pt x="101" y="343" on="0"/>
        <pt x="107" y="376" on="1"/>
        <pt x="134" y="528" on="1"/>
        <pt x="158" y="660" on="0"/>
        <pt x="248" y="712" on="1"/>
        <pt x="330" y="758" on="0"/>
        <pt x="434" y="758" on="1"/>
        <pt x="407" y="605" on="1"/>
        <pt x="306" y="605" on="0"/>
        <pt x="286" y="493" on="1"/>
        <pt x="258" y="336" on="1"/>
        <pt x="245" y="259" on="0"/>
        <pt x="194" y="242" on="1"/>
        <pt x="200" y="240" on="0"/>
        <pt x="208" y="230" on="1"/>
        <pt x="226" y="208" on="0"/>
        <pt x="226" y="170" on="1"/>
        <pt x="226" y="158" on="0"/>
        <pt x="224" y="146" on="1"/>
        <pt x="196" y="-13" on="1"/>
        <pt x="193" y="-31" on="0"/>
        <pt x="193" y="-47" on="1"/>
        <pt x="193" y="-125" on="0"/>
        <pt x="278" y="-125" on="1"/>
        <pt x="251" y="-278" on="1"/>
        <pt x="146" y="-278" on="0"/>
      </contour>
    </TTGlyph>
    <TTGlyph name="braceright" xMin="-67" yMin="-278" xMax="371" yMax="758">
      <contour>
        <pt x="140" y="305" on="1"/>
        <pt x="140" y="319" on="0"/>
        <pt x="143" y="336" on="1"/>
        <pt x="171" y="493" on="1"/>
        <pt x="174" y="511" on="0"/>
        <pt x="174" y="527" on="1"/>
        <pt x="174" y="605" on="0"/>
        <pt x="89" y="605" on="1"/>
        <pt x="116" y="758" on="1"/>
        <pt x="221" y="758" on="0"/>
        <pt x="286" y="712" on="1"/>
        <pt x="341" y="672" on="0"/>
        <pt x="341" y="585" on="1"/>
        <pt x="341" y="559" on="0"/>
        <pt x="335" y="528" on="1"/>
        <pt x="308" y="376" on="1"/>
        <pt x="306" y="367" on="0"/>
        <pt x="306" y="338" on="0"/>
        <pt x="335" y="309" on="0"/>
        <pt x="361" y="309" on="1"/>
        <pt x="371" y="309" on="1"/>
        <pt x="347" y="173" on="1"/>
        <pt x="337" y="173" on="1"/>
        <pt x="311" y="173" on="0"/>
        <pt x="267" y="139" on="0"/>
        <pt x="261" y="106" on="1"/>
        <pt x="234" y="-48" on="1"/>
        <pt x="222" y="-113" on="0"/>
        <pt x="162" y="-207" on="0"/>
        <pt x="120" y="-232" on="1"/>
        <pt x="39" y="-278" on="0"/>
        <pt x="-67" y="-278" on="1"/>
        <pt x="-40" y="-125" on="1"/>
        <pt x="62" y="-125" on="0"/>
        <pt x="82" y="-13" on="1"/>
        <pt x="110" y="146" on="1"/>
        <pt x="115" y="174" on="0"/>
        <pt x="144" y="221" on="0"/>
        <pt x="168" y="241" on="0"/>
        <pt x="173" y="242" on="1"/>
        <pt x="140" y="257" on="0"/>
      </contour>
    </TTGlyph>
    <TTGlyph name="bracketleft" xMin="-36" yMin="-278" xMax="480" yMax="759">
      <contour>
        <pt x="297" y="-278" on="1"/>
        <pt x="-36" y="-278" on="1"/>
        <pt x="147" y="759" on="1"/>
        <pt x="480" y="759" on="1"/>
        <pt x="452" y="603" on="1"/>
        <pt x="288" y="603" on="1"/>
        <pt x="161" y="-122" on="1"/>
        <pt x="325" y="-122" on="1"/>
      </contour>
    </TTGlyph>
    <TTGlyph name="bracketright" xMin="-68" yMin="-278" xMax="448" yMax="759">
      <contour>
        <pt x="265" y="-278" on="1"/>
        <pt x="-68" y="-278" on="1"/>
        <pt x="-40" y="-122" on="1"/>
        <pt x="124" y="-122" on="1"/>
        <pt x="251" y="603" on="1"/>
        <pt x="87" y="603" on="1"/>
        <pt x="115" y="759" on="1"/>
        <pt x="448" y="759" on="1"/>
      </contour>
    </TTGlyph>
    <TTGlyph name="breve" xMin="175" yMin="573" xMax="476" yMax="736">
      <contour>
        <pt x="275" y="711" on="1"/>
        <pt x="275" y="669" on="0"/>
        <pt x="316" y="669" on="1"/>
        <pt x="343" y="669" on="0"/>
        <pt x="372" y="701" on="0"/>
        <pt x="378" y="736" on="1"/>
        <pt x="476" y="736" on="1"/>
        <pt x="464" y="666" on="0"/>
        <pt x="381" y="573" on="0"/>
        <pt x="300" y="573" on="1"/>
        <pt x="175" y="573" on="0"/>
        <pt x="175" y="687" on="1"/>
        <pt x="175" y="709" on="0"/>
        <pt x="180" y="736" on="1"/>
        <pt x="277" y="736" on="1"/>
        <pt x="275" y="722" on="0"/>
      </contour>
    </TTGlyph>
    <TTGlyph name="brokenbar" xMin="-35" yMin="-278" xMax="298" yMax="759">
      <contour>
        <pt x="222" y="328" on="1"/>
        <pt x="72" y="328" on="1"/>
        <pt x="148" y="759" on="1"/>
        <pt x="298" y="759" on="1"/>
      </contour>
      <contour>
        <pt x="47" y="187" on="1"/>
        <pt x="197" y="187" on="1"/>
        <pt x="115" y="-278" on="1"/>
        <pt x="-35" y="-278" on="1"/>
      </contour>
    </TTGlyph>
    <TTGlyph name="bullet" xMin="61" yMin="152" xMax="342" yMax="425">
      <contour>
        <pt x="61" y="253" on="1"/>
        <pt x="61" y="343" on="0"/>
        <pt x="140" y="425" on="0"/>
        <pt x="225" y="425" on="1"/>
        <pt x="283" y="425" on="0"/>
        <pt x="342" y="377" on="0"/>
        <pt x="342" y="322" on="1"/>
        <pt x="342" y="233" on="0"/>
        <pt x="261" y="152" on="0"/>
        <pt x="177" y="152" on="1"/>
        <pt x="118" y="152" on="0"/>
        <pt x="61" y="199" on="0"/>
      </contour>
    </TTGlyph>
    <TTGlyph name="c" xMin="16" yMin="-14" xMax="523" yMax="496">
      <contour>
        <pt x="224" y="-14" on="1"/>
        <pt x="16" y="-14" on="0"/>
        <pt x="16" y="130" on="1"/>
        <pt x="16" y="150" on="0"/>
        <pt x="20" y="173" on="1"/>
        <pt x="41" y="297" on="1"/>
        <pt x="57" y="393" on="0"/>
        <pt x="200" y="495" on="0"/>
        <pt x="310" y="496" on="1"/>
        <pt x="523" y="496" on="0"/>
        <pt x="523" y="348" on="1"/>
        <pt x="523" y="316" on="0"/>
        <pt x="508" y="265" on="0"/>
        <pt x="500" y="256" on="1"/>
        <pt x="492" y="246" on="1"/>
        <pt x="322" y="246" on="1"/>
        <pt x="347" y="268" on="0"/>
        <pt x="347" y="298" on="1"/>
        <pt x="347" y="352" on="0"/>
        <pt x="293" y="352" on="1"/>
        <pt x="261" y="352" on="0"/>
        <pt x="215" y="314" on="0"/>
        <pt x="208" y="275" on="1"/>
        <pt x="195" y="202" on="1"/>
        <pt x="193" y="192" on="0"/>
        <pt x="193" y="183" on="1"/>
        <pt x="193" y="130" on="0"/>
        <pt x="259" y="130" on="1"/>
        <pt x="281" y="130" on="0"/>
        <pt x="316" y="158" on="0"/>
        <pt x="319" y="175" on="1"/>
        <pt x="485" y="173" on="1"/>
        <pt x="452" y="-14" on="0"/>
      </contour>
    </TTGlyph>
    <TTGlyph name="caron" xMin="192" yMin="568" xMax="615" yMax="807">
      <contour>
        <pt x="271" y="568" on="1"/>
        <pt x="271" y="569" on="1"/>
        <pt x="192" y="807" on="1"/>
        <pt x="335" y="807" on="1"/>
        <pt x="382" y="689" on="1"/>
        <pt x="472" y="807" on="1"/>
        <pt x="615" y="807" on="1"/>
        <pt x="451" y="569" on="1"/>
        <pt x="452" y="568" on="1"/>
      </contour>
    </TTGlyph>
    <TTGlyph name="ccedilla" xMin="18" yMin="-194" xMax="525" yMax="496">
      <contour>
        <pt x="288" y="-85" on="1"/>
        <pt x="288" y="-139" on="0"/>
        <pt x="211" y="-194" on="0"/>
        <pt x="129" y="-194" on="0"/>
        <pt x="80" y="-170" on="0"/>
        <pt x="70" y="-158" on="1"/>
        <pt x="61" y="-147" on="1"/>
        <pt x="118" y="-88" on="1"/>
        <pt x="121" y="-100" on="0"/>
        <pt x="148" y="-122" on="0"/>
        <pt x="164" y="-122" on="1"/>
        <pt x="211" y="-122" on="0"/>
        <pt x="211" y="-90" on="1"/>
        <pt x="211" y="-61" on="0"/>
        <pt x="154" y="-61" on="1"/>
        <pt x="183" y="-12" on="1"/>
        <pt x="18" y="3" on="0"/>
        <pt x="18" y="131" on="1"/>
        <pt x="18" y="151" on="0"/>
        <pt x="22" y="173" on="1"/>
        <pt x="43" y="297" on="1"/>
        <pt x="59" y="393" on="0"/>
        <pt x="202" y="495" on="0"/>
        <pt x="312" y="496" on="1"/>
        <pt x="525" y="496" on="0"/>
        <pt x="525" y="348" on="1"/>
        <pt x="525" y="316" on="0"/>
        <pt x="510" y="265" on="0"/>
        <pt x="502" y="256" on="1"/>
        <pt x="494" y="246" on="1"/>
        <pt x="324" y="246" on="1"/>
        <pt x="349" y="268" on="0"/>
        <pt x="349" y="298" on="1"/>
        <pt x="349" y="352" on="0"/>
        <pt x="295" y="352" on="1"/>
        <pt x="263" y="352" on="0"/>
        <pt x="217" y="314" on="0"/>
        <pt x="210" y="275" on="1"/>
        <pt x="197" y="202" on="1"/>
        <pt x="195" y="192" on="0"/>
        <pt x="195" y="183" on="1"/>
        <pt x="195" y="130" on="0"/>
        <pt x="261" y="130" on="1"/>
        <pt x="283" y="130" on="0"/>
        <pt x="318" y="156" on="0"/>
        <pt x="321" y="173" on="1"/>
        <pt x="487" y="173" on="1"/>
        <pt x="454" y="-10" on="0"/>
        <pt x="237" y="-14" on="1"/>
        <pt x="231" y="-24" on="1"/>
        <pt x="257" y="-24" on="0"/>
        <pt x="288" y="-55" on="0"/>
      </contour>
    </TTGlyph>
    <TTGlyph name="cedilla" xMin="24" yMin="-194" xMax="251" yMax="8">
      <contour>
        <pt x="251" y="-85" on="1"/>
        <pt x="251" y="-139" on="0"/>
        <pt x="174" y="-194" on="0"/>
        <pt x="92" y="-194" on="0"/>
        <pt x="43" y="-170" on="0"/>
        <pt x="34" y="-158" on="1"/>
        <pt x="24" y="-147" on="1"/>
        <pt x="81" y="-88" on="1"/>
        <pt x="84" y="-100" on="0"/>
        <pt x="111" y="-122" on="0"/>
        <pt x="127" y="-122" on="1"/>
        <pt x="174" y="-122" on="0"/>
        <pt x="174" y="-90" on="1"/>
        <pt x="174" y="-61" on="0"/>
        <pt x="117" y="-61" on="1"/>
        <pt x="158" y="8" on="1"/>
        <pt x="215" y="8" on="1"/>
        <pt x="194" y="-24" on="1"/>
        <pt x="220" y="-24" on="0"/>
        <pt x="251" y="-55" on="0"/>
      </contour>
    </TTGlyph>
    <TTGlyph name="cent" xMin="9" yMin="-100" xMax="518" yMax="610">
      <contour>
        <pt x="368" y="492" on="1"/>
        <pt x="517" y="473" on="0"/>
        <pt x="517" y="354" on="1"/>
        <pt x="517" y="337" on="0"/>
        <pt x="514" y="317" on="1"/>
        <pt x="341" y="295" on="1"/>
        <pt x="342" y="301" on="0"/>
        <pt x="342" y="307" on="1"/>
        <pt x="342" y="333" on="0"/>
        <pt x="320" y="345" on="1"/>
        <pt x="284" y="138" on="1"/>
        <pt x="310" y="152" on="0"/>
        <pt x="313" y="175" on="1"/>
        <pt x="479" y="173" on="1"/>
        <pt x="451" y="11" on="0"/>
        <pt x="280" y="-10" on="1"/>
        <pt x="264" y="-100" on="1"/>
        <pt x="134" y="-100" on="1"/>
        <pt x="150" y="-9" on="1"/>
        <pt x="10" y="11" on="0"/>
        <pt x="10" y="130" on="1"/>
        <pt x="10" y="150" on="0"/>
        <pt x="14" y="173" on="1"/>
        <pt x="36" y="297" on="1"/>
        <pt x="65" y="459" on="0"/>
        <pt x="238" y="489" on="1"/>
        <pt x="259" y="610" on="1"/>
        <pt x="389" y="610" on="1"/>
      </contour>
      <contour>
        <pt x="187" y="184" on="1"/>
        <pt x="187" y="157" on="0"/>
        <pt x="205" y="142" on="1"/>
        <pt x="239" y="338" on="1"/>
        <pt x="209" y="318" on="0"/>
        <pt x="202" y="275" on="1"/>
        <pt x="189" y="202" on="1"/>
        <pt x="187" y="192" on="0"/>
      </contour>
    </TTGlyph>
    <TTGlyph name="circumflex" xMin="150" yMin="568" xMax="573" yMax="807">
      <contour>
        <pt x="293" y="568" on="1"/>
        <pt x="150" y="568" on="1"/>
        <pt x="313" y="807" on="1"/>
        <pt x="494" y="807" on="1"/>
        <pt x="573" y="568" on="1"/>
        <pt x="430" y="568" on="1"/>
        <pt x="382" y="686" on="1"/>
      </contour>
    </TTGlyph>
    <TTGlyph name="colon" xMin="18" yMin="-14" xMax="274" yMax="496">
      <contour>
        <pt x="18" y="58" on="1"/>
        <pt x="18" y="122" on="0"/>
        <pt x="74" y="181" on="0"/>
        <pt x="135" y="181" on="1"/>
        <pt x="219" y="181" on="0"/>
        <pt x="219" y="107" on="1"/>
        <pt x="219" y="44" on="0"/>
        <pt x="162" y="-14" on="0"/>
        <pt x="101" y="-14" on="1"/>
        <pt x="18" y="-14" on="0"/>
      </contour>
      <contour>
        <pt x="73" y="373" on="1"/>
        <pt x="73" y="437" on="0"/>
        <pt x="130" y="496" on="0"/>
        <pt x="232" y="496" on="0"/>
        <pt x="274" y="461" on="0"/>
        <pt x="274" y="422" on="1"/>
        <pt x="274" y="359" on="0"/>
        <pt x="217" y="301" on="0"/>
        <pt x="156" y="301" on="1"/>
        <pt x="73" y="301" on="0"/>
      </contour>
    </TTGlyph>
    <TTGlyph name="comma" xMin="-65" yMin="-202" xMax="213" yMax="181">
      <contour>
        <pt x="5" y="58" on="1"/>
        <pt x="5" y="122" on="0"/>
        <pt x="62" y="181" on="0"/>
        <pt x="123" y="181" on="1"/>
        <pt x="213" y="181" on="0"/>
        <pt x="213" y="92" on="1"/>
        <pt x="213" y="-202" on="0"/>
        <pt x="-65" y="-202" on="1"/>
        <pt x="-52" y="-130" on="1"/>
        <pt x="1" y="-130" on="0"/>
        <pt x="53" y="-80" on="1"/>
        <pt x="82" y="-52" on="0"/>
        <pt x="88" y="-14" on="1"/>
        <pt x="5" y="-14" on="0"/>
      </contour>
    </TTGlyph>
    <TTGlyph name="copyright" xMin="47" yMin="56" xMax="696" yMax="729">
      <contour>
        <pt x="107" y="599" on="0"/>
        <pt x="280" y="729" on="0"/>
        <pt x="584" y="729" on="0"/>
        <pt x="647" y="664" on="1"/>
        <pt x="696" y="613" on="0"/>
        <pt x="696" y="541" on="1"/>
        <pt x="696" y="520" on="0"/>
        <pt x="692" y="498" on="1"/>
        <pt x="656" y="293" on="1"/>
        <pt x="635" y="174" on="0"/>
        <pt x="467" y="56" on="0"/>
        <pt x="155" y="56" on="0"/>
        <pt x="94" y="116" on="1"/>
        <pt x="48" y="160" on="0"/>
        <pt x="48" y="237" on="1"/>
        <pt x="48" y="263" on="0"/>
        <pt x="53" y="293" on="1"/>
        <pt x="89" y="498" on="1"/>
      </contour>
      <contour>
        <pt x="161" y="278" on="1"/>
        <pt x="159" y="266" on="0"/>
        <pt x="159" y="233" on="0"/>
        <pt x="185" y="188" on="0"/>
        <pt x="216" y="176" on="1"/>
        <pt x="271" y="154" on="0"/>
        <pt x="361" y="154" on="0"/>
        <pt x="421" y="164" on="0"/>
        <pt x="489" y="188" on="0"/>
        <pt x="538" y="241" on="0"/>
        <pt x="545" y="278" on="1"/>
        <pt x="583" y="494" on="1"/>
        <pt x="585" y="508" on="0"/>
        <pt x="585" y="539" on="0"/>
        <pt x="571" y="580" on="0"/>
        <pt x="540" y="606" on="0"/>
        <pt x="513" y="613" on="1"/>
        <pt x="474" y="623" on="0"/>
        <pt x="420" y="623" on="0"/>
        <pt x="392" y="623" on="0"/>
        <pt x="363" y="622" on="0"/>
        <pt x="310" y="616" on="0"/>
        <pt x="272" y="599" on="0"/>
        <pt x="252" y="586" on="1"/>
        <pt x="212" y="559" on="0"/>
        <pt x="199" y="494" on="1"/>
      </contour>
      <contour>
        <pt x="470" y="225" on="0"/>
        <pt x="343" y="225" on="1"/>
        <pt x="278" y="225" on="0"/>
        <pt x="252" y="254" on="1"/>
        <pt x="235" y="274" on="0"/>
        <pt x="235" y="326" on="0"/>
        <pt x="238" y="344" on="1"/>
        <pt x="257" y="451" on="1"/>
        <pt x="277" y="568" on="0"/>
        <pt x="410" y="568" on="1"/>
        <pt x="463" y="568" on="0"/>
        <pt x="516" y="522" on="0"/>
        <pt x="516" y="482" on="1"/>
        <pt x="516" y="449" on="0"/>
        <pt x="502" y="418" on="1"/>
        <pt x="497" y="409" on="1"/>
        <pt x="404" y="409" on="1"/>
        <pt x="419" y="428" on="0"/>
        <pt x="419" y="486" on="0"/>
        <pt x="394" y="486" on="1"/>
        <pt x="357" y="486" on="0"/>
        <pt x="350" y="445" on="1"/>
        <pt x="333" y="351" on="1"/>
        <pt x="332" y="343" on="0"/>
        <pt x="332" y="337" on="1"/>
        <pt x="332" y="307" on="0"/>
        <pt x="359" y="307" on="1"/>
        <pt x="393" y="307" on="0"/>
        <pt x="400" y="347" on="1"/>
        <pt x="493" y="347" on="1"/>
        <pt x="490" y="332" on="1"/>
      </contour>
    </TTGlyph>
    <TTGlyph name="currency" xMin="11" yMin="78" xMax="537" yMax="544">
      <contour>
        <pt x="352" y="142" on="1"/>
        <pt x="298" y="112" on="0"/>
        <pt x="181" y="112" on="0"/>
        <pt x="138" y="144" on="1"/>
        <pt x="60" y="78" on="1"/>
        <pt x="11" y="138" on="1"/>
        <pt x="89" y="204" on="1"/>
        <pt x="73" y="238" on="0"/>
        <pt x="73" y="282" on="1"/>
        <pt x="73" y="350" on="0"/>
        <pt x="124" y="416" on="1"/>
        <pt x="70" y="481" on="1"/>
        <pt x="145" y="544" on="1"/>
        <pt x="197" y="479" on="1"/>
        <pt x="252" y="512" on="0"/>
        <pt x="370" y="512" on="0"/>
        <pt x="413" y="480" on="1"/>
        <pt x="487" y="543" on="1"/>
        <pt x="537" y="483" on="1"/>
        <pt x="464" y="420" on="1"/>
        <pt x="480" y="385" on="0"/>
        <pt x="480" y="340" on="1"/>
        <pt x="480" y="270" on="0"/>
        <pt x="423" y="201" on="1"/>
        <pt x="476" y="138" on="1"/>
        <pt x="405" y="78" on="1"/>
      </contour>
      <contour>
        <pt x="308" y="202" on="0"/>
        <pt x="388" y="277" on="0"/>
        <pt x="388" y="367" on="0"/>
        <pt x="336" y="422" on="0"/>
        <pt x="245" y="422" on="0"/>
        <pt x="165" y="346" on="0"/>
        <pt x="165" y="256" on="0"/>
        <pt x="217" y="202" on="0"/>
      </contour>
    </TTGlyph>
    <TTGlyph name="d" xMin="15" yMin="-14" xMax="597" yMax="759">
      <contour>
        <pt x="491" y="154" on="1"/>
        <pt x="491" y="128" on="0"/>
        <pt x="544" y="128" on="0"/>
        <pt x="562" y="138" on="1"/>
        <pt x="557" y="25" on="1"/>
        <pt x="509" y="-14" on="0"/>
        <pt x="449" y="-14" on="1"/>
        <pt x="339" y="-14" on="0"/>
        <pt x="327" y="66" on="1"/>
        <pt x="277" y="-14" on="0"/>
        <pt x="180" y="-14" on="1"/>
        <pt x="16" y="-14" on="0"/>
        <pt x="16" y="127" on="1"/>
        <pt x="16" y="151" on="0"/>
        <pt x="21" y="180" on="1"/>
        <pt x="42" y="297" on="1"/>
        <pt x="58" y="387" on="0"/>
        <pt x="173" y="494" on="0"/>
        <pt x="275" y="494" on="1"/>
        <pt x="338" y="494" on="0"/>
        <pt x="375" y="467" on="1"/>
        <pt x="426" y="759" on="1"/>
        <pt x="597" y="759" on="1"/>
        <pt x="492" y="166" on="1"/>
        <pt x="491" y="160" on="0"/>
      </contour>
      <contour>
        <pt x="195" y="202" on="1"/>
        <pt x="193" y="193" on="0"/>
        <pt x="193" y="161" on="0"/>
        <pt x="223" y="130" on="0"/>
        <pt x="294" y="130" on="0"/>
        <pt x="320" y="158" on="1"/>
        <pt x="350" y="326" on="1"/>
        <pt x="339" y="351" on="0"/>
        <pt x="298" y="351" on="1"/>
        <pt x="221" y="351" on="0"/>
        <pt x="208" y="277" on="1"/>
      </contour>
    </TTGlyph>
    <TTGlyph name="dagger" xMin="59" yMin="98" xMax="405" yMax="759">
      <contour>
        <pt x="200" y="98" on="1"/>
        <pt x="113" y="98" on="1"/>
        <pt x="160" y="479" on="1"/>
        <pt x="59" y="479" on="1"/>
        <pt x="75" y="569" on="1"/>
        <pt x="176" y="569" on="1"/>
        <pt x="209" y="759" on="1"/>
        <pt x="336" y="759" on="1"/>
        <pt x="303" y="569" on="1"/>
        <pt x="405" y="569" on="1"/>
        <pt x="389" y="479" on="1"/>
        <pt x="287" y="479" on="1"/>
      </contour>
    </TTGlyph>
    <TTGlyph name="daggerdbl" xMin="37" yMin="99" xMax="418" yMax="759">
      <contour>
        <pt x="213" y="99" on="1"/>
        <pt x="126" y="99" on="1"/>
        <pt x="149" y="281" on="1"/>
        <pt x="37" y="281" on="1"/>
        <pt x="53" y="371" on="1"/>
        <pt x="160" y="371" on="1"/>
        <pt x="173" y="479" on="1"/>
        <pt x="72" y="479" on="1"/>
        <pt x="88" y="569" on="1"/>
        <pt x="189" y="569" on="1"/>
        <pt x="222" y="759" on="1"/>
        <pt x="349" y="759" on="1"/>
        <pt x="316" y="569" on="1"/>
        <pt x="418" y="569" on="1"/>
        <pt x="402" y="479" on="1"/>
        <pt x="300" y="479" on="1"/>
        <pt x="275" y="371" on="1"/>
        <pt x="383" y="371" on="1"/>
        <pt x="367" y="281" on="1"/>
        <pt x="254" y="281" on="1"/>
      </contour>
    </TTGlyph>
    <TTGlyph name="degree" xMin="83" yMin="450" xMax="362" yMax="725">
      <contour>
        <pt x="296" y="725" on="0"/>
        <pt x="362" y="656" on="0"/>
        <pt x="362" y="543" on="0"/>
        <pt x="261" y="450" on="0"/>
        <pt x="148" y="450" on="0"/>
        <pt x="83" y="517" on="0"/>
        <pt x="83" y="630" on="0"/>
        <pt x="183" y="725" on="0"/>
      </contour>
      <contour>
        <pt x="237" y="538" on="0"/>
        <pt x="273" y="572" on="0"/>
        <pt x="273" y="612" on="0"/>
        <pt x="249" y="637" on="0"/>
        <pt x="208" y="637" on="0"/>
        <pt x="172" y="603" on="0"/>
        <pt x="172" y="562" on="0"/>
        <pt x="196" y="538" on="0"/>
      </contour>
    </TTGlyph>
    <TTGlyph name="dieresis" xMin="161" yMin="564" xMax="604" yMax="720">
      <contour>
        <pt x="161" y="622" on="1"/>
        <pt x="161" y="673" on="0"/>
        <pt x="207" y="720" on="0"/>
        <pt x="255" y="720" on="1"/>
        <pt x="322" y="720" on="0"/>
        <pt x="322" y="662" on="1"/>
        <pt x="322" y="611" on="0"/>
        <pt x="276" y="564" on="0"/>
        <pt x="227" y="564" on="1"/>
        <pt x="161" y="564" on="0"/>
      </contour>
      <contour>
        <pt x="443" y="622" on="1"/>
        <pt x="443" y="673" on="0"/>
        <pt x="489" y="720" on="0"/>
        <pt x="537" y="720" on="1"/>
        <pt x="604" y="720" on="0"/>
        <pt x="604" y="662" on="1"/>
        <pt x="604" y="611" on="0"/>
        <pt x="558" y="564" on="0"/>
        <pt x="509" y="564" on="1"/>
        <pt x="443" y="564" on="0"/>
      </contour>
    </TTGlyph>
    <TTGlyph name="divide" xMin="26" yMin="11" xMax="418" yMax="599">
      <contour>
        <pt x="397" y="244" on="1"/>
        <pt x="26" y="244" on="1"/>
        <pt x="47" y="362" on="1"/>
        <pt x="418" y="362" on="1"/>
      </contour>
      <contour>
        <pt x="76" y="83" on="1"/>
        <pt x="76" y="147" on="0"/>
        <pt x="133" y="206" on="0"/>
        <pt x="235" y="206" on="0"/>
        <pt x="277" y="171" on="0"/>
        <pt x="277" y="132" on="1"/>
        <pt x="277" y="69" on="0"/>
        <pt x="220" y="11" on="0"/>
        <pt x="159" y="11" on="1"/>
        <pt x="76" y="11" on="0"/>
      </contour>
      <contour>
        <pt x="145" y="476" on="1"/>
        <pt x="145" y="540" on="0"/>
        <pt x="202" y="599" on="0"/>
        <pt x="305" y="599" on="0"/>
        <pt x="346" y="564" on="0"/>
        <pt x="346" y="525" on="1"/>
        <pt x="346" y="462" on="0"/>
        <pt x="289" y="404" on="0"/>
        <pt x="228" y="404" on="1"/>
        <pt x="145" y="404" on="0"/>
      </contour>
    </TTGlyph>
    <TTGlyph name="dollar" xMin="15" yMin="-144" xMax="632" yMax="845">
      <contour>
        <pt x="201" y="204" on="1"/>
        <pt x="201" y="136" on="0"/>
        <pt x="400" y="136" on="0"/>
        <pt x="400" y="198" on="1"/>
        <pt x="400" y="231" on="0"/>
        <pt x="332" y="273" on="0"/>
        <pt x="235" y="301" on="0"/>
        <pt x="137" y="338" on="0"/>
        <pt x="69" y="417" on="0"/>
        <pt x="69" y="476" on="1"/>
        <pt x="69" y="581" on="0"/>
        <pt x="196" y="710" on="0"/>
        <pt x="329" y="724" on="1"/>
        <pt x="350" y="845" on="1"/>
        <pt x="500" y="845" on="1"/>
        <pt x="478" y="720" on="1"/>
        <pt x="554" y="706" on="0"/>
        <pt x="632" y="621" on="0"/>
        <pt x="632" y="558" on="1"/>
        <pt x="632" y="529" on="0"/>
        <pt x="616" y="477" on="0"/>
        <pt x="608" y="466" on="1"/>
        <pt x="600" y="454" on="1"/>
        <pt x="423" y="454" on="1"/>
        <pt x="445" y="477" on="0"/>
        <pt x="445" y="512" on="1"/>
        <pt x="445" y="577" on="0"/>
        <pt x="360" y="577" on="1"/>
        <pt x="311" y="577" on="0"/>
        <pt x="254" y="543" on="0"/>
        <pt x="254" y="475" on="0"/>
        <pt x="322" y="435" on="0"/>
        <pt x="419" y="412" on="0"/>
        <pt x="517" y="378" on="0"/>
        <pt x="585" y="299" on="0"/>
        <pt x="585" y="236" on="1"/>
        <pt x="585" y="130" on="0"/>
        <pt x="472" y="7" on="0"/>
        <pt x="350" y="-9" on="1"/>
        <pt x="326" y="-144" on="1"/>
        <pt x="176" y="-144" on="1"/>
        <pt x="199" y="-11" on="1"/>
        <pt x="89" y="0" on="0"/>
        <pt x="46" y="56" on="1"/>
        <pt x="16" y="94" on="0"/>
        <pt x="16" y="157" on="1"/>
        <pt x="16" y="185" on="0"/>
        <pt x="22" y="219" on="1"/>
        <pt x="25" y="235" on="1"/>
        <pt x="205" y="235" on="1"/>
        <pt x="203" y="223" on="1"/>
        <pt x="201" y="213" on="0"/>
      </contour>
    </TTGlyph>
    <TTGlyph name="e" xMin="16" yMin="-14" xMax="521" yMax="496">
      <contour>
        <pt x="224" y="-14" on="1"/>
        <pt x="16" y="-14" on="0"/>
        <pt x="16" y="130" on="1"/>
        <pt x="16" y="150" on="0"/>
        <pt x="20" y="173" on="1"/>
        <pt x="41" y="297" on="1"/>
        <pt x="58" y="393" on="0"/>
        <pt x="201" y="496" on="0"/>
        <pt x="319" y="496" on="1"/>
        <pt x="520" y="496" on="0"/>
        <pt x="520" y="344" on="1"/>
        <pt x="520" y="322" on="0"/>
        <pt x="516" y="296" on="1"/>
        <pt x="504" y="225" on="1"/>
        <pt x="199" y="225" on="1"/>
        <pt x="195" y="202" on="1"/>
        <pt x="193" y="190" on="0"/>
        <pt x="193" y="180" on="1"/>
        <pt x="193" y="125" on="0"/>
        <pt x="258" y="125" on="1"/>
        <pt x="282" y="125" on="0"/>
        <pt x="316" y="155" on="0"/>
        <pt x="319" y="175" on="1"/>
        <pt x="485" y="173" on="1"/>
        <pt x="452" y="-14" on="0"/>
      </contour>
      <contour>
        <pt x="344" y="286" on="1"/>
        <pt x="348" y="303" on="0"/>
        <pt x="348" y="332" on="0"/>
        <pt x="322" y="362" on="0"/>
        <pt x="265" y="362" on="0"/>
        <pt x="218" y="324" on="0"/>
        <pt x="209" y="286" on="1"/>
      </contour>
    </TTGlyph>
    <TTGlyph name="eacute" xMin="16" yMin="-14" xMax="589" yMax="807">
      <contour>
        <pt x="224" y="-14" on="1"/>
        <pt x="16" y="-14" on="0"/>
        <pt x="16" y="130" on="1"/>
        <pt x="16" y="150" on="0"/>
        <pt x="20" y="173" on="1"/>
        <pt x="41" y="297" on="1"/>
        <pt x="58" y="393" on="0"/>
        <pt x="201" y="496" on="0"/>
        <pt x="319" y="496" on="1"/>
        <pt x="520" y="496" on="0"/>
        <pt x="520" y="344" on="1"/>
        <pt x="520" y="322" on="0"/>
        <pt x="516" y="296" on="1"/>
        <pt x="504" y="225" on="1"/>
        <pt x="199" y="225" on="1"/>
        <pt x="195" y="202" on="1"/>
        <pt x="193" y="190" on="0"/>
        <pt x="193" y="180" on="1"/>
        <pt x="193" y="125" on="0"/>
        <pt x="258" y="125" on="1"/>
        <pt x="282" y="125" on="0"/>
        <pt x="316" y="155" on="0"/>
        <pt x="319" y="175" on="1"/>
        <pt x="485" y="173" on="1"/>
        <pt x="452" y="-14" on="0"/>
      </contour>
      <contour>
        <pt x="344" y="286" on="1"/>
        <pt x="348" y="303" on="0"/>
        <pt x="348" y="332" on="0"/>
        <pt x="322" y="362" on="0"/>
        <pt x="265" y="362" on="0"/>
        <pt x="218" y="324" on="0"/>
        <pt x="209" y="286" on="1"/>
      </contour>
      <contour>
        <pt x="393" y="568" on="1"/>
        <pt x="245" y="568" on="1"/>
        <pt x="409" y="807" on="1"/>
        <pt x="589" y="807" on="1"/>
      </contour>
    </TTGlyph>
    <TTGlyph name="ecircumflex" xMin="20" yMin="-14" xMax="545" yMax="807">
      <component glyphName="e" x="0" y="0" flags="0x1004"/>
      <component glyphName="circumflex" x="-28" y="0" flags="0x1004"/>
    </TTGlyph>
    <TTGlyph name="edieresis" xMin="16" yMin="-14" xMax="562" yMax="720">
      <contour>
        <pt x="224" y="-14" on="1"/>
        <pt x="16" y="-14" on="0"/>
        <pt x="16" y="130" on="1"/>
        <pt x="16" y="150" on="0"/>
        <pt x="20" y="173" on="1"/>
        <pt x="41" y="297" on="1"/>
        <pt x="58" y="393" on="0"/>
        <pt x="201" y="496" on="0"/>
        <pt x="319" y="496" on="1"/>
        <pt x="520" y="496" on="0"/>
        <pt x="520" y="344" on="1"/>
        <pt x="520" y="322" on="0"/>
        <pt x="516" y="296" on="1"/>
        <pt x="504" y="225" on="1"/>
        <pt x="199" y="225" on="1"/>
        <pt x="195" y="202" on="1"/>
        <pt x="193" y="190" on="0"/>
        <pt x="193" y="180" on="1"/>
        <pt x="193" y="125" on="0"/>
        <pt x="258" y="125" on="1"/>
        <pt x="282" y="125" on="0"/>
        <pt x="316" y="155" on="0"/>
        <pt x="319" y="175" on="1"/>
        <pt x="485" y="173" on="1"/>
        <pt x="452" y="-14" on="0"/>
      </contour>
      <contour>
        <pt x="344" y="286" on="1"/>
        <pt x="348" y="303" on="0"/>
        <pt x="348" y="332" on="0"/>
        <pt x="322" y="362" on="0"/>
        <pt x="265" y="362" on="0"/>
        <pt x="218" y="324" on="0"/>
        <pt x="209" y="286" on="1"/>
      </contour>
      <contour>
        <pt x="119" y="622" on="1"/>
        <pt x="119" y="673" on="0"/>
        <pt x="165" y="720" on="0"/>
        <pt x="213" y="720" on="1"/>
        <pt x="280" y="720" on="0"/>
        <pt x="280" y="662" on="1"/>
        <pt x="280" y="611" on="0"/>
        <pt x="234" y="564" on="0"/>
        <pt x="185" y="564" on="1"/>
        <pt x="119" y="564" on="0"/>
      </contour>
      <contour>
        <pt x="401" y="622" on="1"/>
        <pt x="401" y="673" on="0"/>
        <pt x="447" y="720" on="0"/>
        <pt x="495" y="720" on="1"/>
        <pt x="562" y="720" on="0"/>
        <pt x="562" y="662" on="1"/>
        <pt x="562" y="611" on="0"/>
        <pt x="516" y="564" on="0"/>
        <pt x="467" y="564" on="1"/>
        <pt x="401" y="564" on="0"/>
      </contour>
    </TTGlyph>
    <TTGlyph name="egrave" xMin="16" yMin="-14" xMax="521" yMax="807">
      <contour>
        <pt x="224" y="-14" on="1"/>
        <pt x="16" y="-14" on="0"/>
        <pt x="16" y="130" on="1"/>
        <pt x="16" y="150" on="0"/>
        <pt x="20" y="173" on="1"/>
        <pt x="41" y="297" on="1"/>
        <pt x="58" y="393" on="0"/>
        <pt x="201" y="496" on="0"/>
        <pt x="319" y="496" on="1"/>
        <pt x="520" y="496" on="0"/>
        <pt x="520" y="344" on="1"/>
        <pt x="520" y="322" on="0"/>
        <pt x="516" y="296" on="1"/>
        <pt x="504" y="225" on="1"/>
        <pt x="199" y="225" on="1"/>
        <pt x="195" y="202" on="1"/>
        <pt x="193" y="190" on="0"/>
        <pt x="193" y="180" on="1"/>
        <pt x="193" y="125" on="0"/>
        <pt x="258" y="125" on="1"/>
        <pt x="282" y="125" on="0"/>
        <pt x="316" y="155" on="0"/>
        <pt x="319" y="175" on="1"/>
        <pt x="485" y="173" on="1"/>
        <pt x="452" y="-14" on="0"/>
      </contour>
      <contour>
        <pt x="344" y="286" on="1"/>
        <pt x="348" y="303" on="0"/>
        <pt x="348" y="332" on="0"/>
        <pt x="322" y="362" on="0"/>
        <pt x="265" y="362" on="0"/>
        <pt x="218" y="324" on="0"/>
        <pt x="209" y="286" on="1"/>
      </contour>
      <contour>
        <pt x="408" y="568" on="1"/>
        <pt x="260" y="568" on="1"/>
        <pt x="148" y="807" on="1"/>
        <pt x="328" y="807" on="1"/>
      </contour>
    </TTGlyph>
    <TTGlyph name="eight" xMin="17" yMin="-14" xMax="617" yMax="726">
      <contour>
        <pt x="17" y="158" on="1"/>
        <pt x="17" y="207" on="0"/>
        <pt x="46" y="289" on="0"/>
        <pt x="79" y="332" on="0"/>
        <pt x="129" y="368" on="0"/>
        <pt x="144" y="374" on="0"/>
        <pt x="155" y="378" on="1"/>
        <pt x="134" y="385" on="0"/>
        <pt x="114" y="416" on="1"/>
        <pt x="96" y="446" on="0"/>
        <pt x="96" y="497" on="1"/>
        <pt x="96" y="603" on="0"/>
        <pt x="255" y="726" on="0"/>
        <pt x="503" y="726" on="0"/>
        <pt x="617" y="644" on="0"/>
        <pt x="617" y="570" on="1"/>
        <pt x="617" y="532" on="0"/>
        <pt x="591" y="468" on="0"/>
        <pt x="572" y="450" on="1"/>
        <pt x="533" y="410" on="0"/>
        <pt x="504" y="399" on="1"/>
        <pt x="491" y="394" on="1"/>
        <pt x="571" y="347" on="0"/>
        <pt x="571" y="240" on="1"/>
        <pt x="571" y="108" on="0"/>
        <pt x="410" y="-14" on="0"/>
        <pt x="254" y="-14" on="1"/>
        <pt x="146" y="-14" on="0"/>
        <pt x="17" y="71" on="0"/>
      </contour>
      <contour>
        <pt x="199" y="207" on="1"/>
        <pt x="199" y="141" on="0"/>
        <pt x="282" y="141" on="1"/>
        <pt x="336" y="141" on="0"/>
        <pt x="397" y="188" on="0"/>
        <pt x="397" y="272" on="0"/>
        <pt x="349" y="284" on="1"/>
        <pt x="283" y="299" on="1"/>
        <pt x="280" y="298" on="0"/>
        <pt x="268" y="295" on="0"/>
        <pt x="239" y="281" on="0"/>
        <pt x="228" y="272" on="1"/>
        <pt x="199" y="246" on="0"/>
      </contour>
      <contour>
        <pt x="419" y="496" on="0"/>
        <pt x="419" y="540" on="0"/>
        <pt x="388" y="572" on="0"/>
        <pt x="321" y="572" on="0"/>
        <pt x="275" y="529" on="0"/>
        <pt x="275" y="484" on="0"/>
        <pt x="282" y="472" on="1"/>
        <pt x="292" y="452" on="0"/>
        <pt x="305" y="449" on="1"/>
        <pt x="363" y="435" on="1"/>
        <pt x="369" y="435" on="0"/>
        <pt x="392" y="447" on="0"/>
        <pt x="407" y="462" on="0"/>
      </contour>
    </TTGlyph>
    <TTGlyph name="ellipsis" xMin="5" yMin="-14" xMax="709" yMax="181">
      <contour>
        <pt x="5" y="58" on="1"/>
        <pt x="5" y="122" on="0"/>
        <pt x="61" y="181" on="0"/>
        <pt x="122" y="181" on="1"/>
        <pt x="206" y="181" on="0"/>
        <pt x="206" y="107" on="1"/>
        <pt x="206" y="44" on="0"/>
        <pt x="149" y="-14" on="0"/>
        <pt x="88" y="-14" on="1"/>
        <pt x="5" y="-14" on="0"/>
      </contour>
      <contour>
        <pt x="253" y="58" on="1"/>
        <pt x="253" y="122" on="0"/>
        <pt x="310" y="181" on="0"/>
        <pt x="370" y="181" on="1"/>
        <pt x="454" y="181" on="0"/>
        <pt x="454" y="107" on="1"/>
        <pt x="454" y="44" on="0"/>
        <pt x="397" y="-14" on="0"/>
        <pt x="336" y="-14" on="1"/>
        <pt x="253" y="-14" on="0"/>
      </contour>
      <contour>
        <pt x="508" y="58" on="1"/>
        <pt x="508" y="122" on="0"/>
        <pt x="564" y="181" on="0"/>
        <pt x="625" y="181" on="1"/>
        <pt x="709" y="181" on="0"/>
        <pt x="709" y="107" on="1"/>
        <pt x="709" y="44" on="0"/>
        <pt x="652" y="-14" on="0"/>
        <pt x="591" y="-14" on="1"/>
        <pt x="508" y="-14" on="0"/>
      </contour>
    </TTGlyph>
    <TTGlyph name="emdash" xMin="41" yMin="209" xMax="763" yMax="335">
      <contour>
        <pt x="741" y="209" on="1"/>
        <pt x="41" y="209" on="1"/>
        <pt x="63" y="335" on="1"/>
        <pt x="763" y="335" on="1"/>
      </contour>
    </TTGlyph>
    <TTGlyph name="endash" xMin="41" yMin="209" xMax="557" yMax="335">
      <contour>
        <pt x="535" y="209" on="1"/>
        <pt x="41" y="209" on="1"/>
        <pt x="63" y="335" on="1"/>
        <pt x="557" y="335" on="1"/>
      </contour>
    </TTGlyph>
    <TTGlyph name="equal" xMin="24" yMin="95" xMax="453" yMax="424">
      <contour>
        <pt x="432" y="306" on="1"/>
        <pt x="61" y="306" on="1"/>
        <pt x="82" y="424" on="1"/>
        <pt x="453" y="424" on="1"/>
      </contour>
      <contour>
        <pt x="395" y="95" on="1"/>
        <pt x="24" y="95" on="1"/>
        <pt x="45" y="213" on="1"/>
        <pt x="416" y="213" on="1"/>
      </contour>
    </TTGlyph>
    <TTGlyph name="eth" xMin="13" yMin="-14" xMax="653" yMax="756">
      <contour>
        <pt x="370" y="571" on="1"/>
        <pt x="356" y="572" on="1"/>
        <pt x="257" y="572" on="0"/>
        <pt x="257" y="492" on="1"/>
        <pt x="260" y="464" on="1"/>
        <pt x="83" y="464" on="1"/>
        <pt x="79" y="480" on="0"/>
        <pt x="79" y="506" on="1"/>
        <pt x="79" y="609" on="0"/>
        <pt x="235" y="727" on="0"/>
        <pt x="382" y="727" on="1"/>
        <pt x="467" y="727" on="0"/>
        <pt x="525" y="702" on="1"/>
        <pt x="589" y="756" on="1"/>
        <pt x="653" y="679" on="1"/>
        <pt x="599" y="634" on="1"/>
        <pt x="619" y="595" on="0"/>
        <pt x="619" y="509" on="0"/>
        <pt x="613" y="474" on="1"/>
        <pt x="573" y="244" on="1"/>
        <pt x="550" y="111" on="0"/>
        <pt x="396" y="-14" on="0"/>
        <pt x="253" y="-14" on="1"/>
        <pt x="13" y="-14" on="0"/>
        <pt x="13" y="172" on="1"/>
        <pt x="13" y="279" on="0"/>
        <pt x="141" y="422" on="0"/>
        <pt x="259" y="422" on="1"/>
        <pt x="424" y="422" on="1"/>
        <pt x="431" y="460" on="1"/>
        <pt x="434" y="480" on="0"/>
        <pt x="434" y="495" on="1"/>
        <pt x="381" y="450" on="1"/>
        <pt x="318" y="527" on="1"/>
      </contour>
      <contour>
        <pt x="280" y="141" on="1"/>
        <pt x="327" y="141" on="0"/>
        <pt x="384" y="191" on="0"/>
        <pt x="395" y="258" on="1"/>
        <pt x="400" y="287" on="1"/>
        <pt x="297" y="287" on="1"/>
        <pt x="254" y="287" on="0"/>
        <pt x="195" y="244" on="0"/>
        <pt x="195" y="197" on="1"/>
        <pt x="195" y="141" on="0"/>
      </contour>
    </TTGlyph>
    <TTGlyph name="exclam" xMin="11" yMin="-14" xMax="314" yMax="791">
      <contour>
        <pt x="205" y="262" on="1"/>
        <pt x="72" y="262" on="1"/>
        <pt x="144" y="791" on="1"/>
        <pt x="314" y="791" on="1"/>
      </contour>
      <contour>
        <pt x="11" y="58" on="1"/>
        <pt x="11" y="122" on="0"/>
        <pt x="67" y="181" on="0"/>
        <pt x="128" y="181" on="1"/>
        <pt x="212" y="181" on="0"/>
        <pt x="212" y="107" on="1"/>
        <pt x="212" y="44" on="0"/>
        <pt x="155" y="-14" on="0"/>
        <pt x="94" y="-14" on="1"/>
        <pt x="11" y="-14" on="0"/>
      </contour>
    </TTGlyph>
    <TTGlyph name="exclamdown" xMin="-47" yMin="-310" xMax="256" yMax="495">
      <contour>
        <pt x="62" y="219" on="1"/>
        <pt x="195" y="219" on="1"/>
        <pt x="123" y="-310" on="1"/>
        <pt x="-47" y="-310" on="1"/>
      </contour>
      <contour>
        <pt x="256" y="423" on="1"/>
        <pt x="256" y="359" on="0"/>
        <pt x="200" y="300" on="0"/>
        <pt x="139" y="300" on="1"/>
        <pt x="55" y="300" on="0"/>
        <pt x="55" y="374" on="1"/>
        <pt x="55" y="437" on="0"/>
        <pt x="112" y="495" on="0"/>
        <pt x="173" y="495" on="1"/>
        <pt x="256" y="495" on="0"/>
      </contour>
    </TTGlyph>
    <TTGlyph name="f" xMin="-16" yMin="-351" xMax="511" yMax="648">
      <contour>
        <pt x="456" y="-18" on="1"/>
        <pt x="456" y="-164" on="0"/>
        <pt x="307" y="-351" on="0"/>
        <pt x="52" y="-351" on="0"/>
        <pt x="10" y="-288" on="1"/>
        <pt x="-16" y="-248" on="0"/>
        <pt x="-16" y="-133" on="0"/>
        <pt x="-6" y="-76" on="1"/>
        <pt x="122" y="648" on="1"/>
        <pt x="292" y="648" on="1"/>
        <pt x="262" y="481" on="1"/>
        <pt x="511" y="481" on="1"/>
        <pt x="486" y="340" on="1"/>
        <pt x="290" y="340" on="1"/>
        <pt x="361" y="283" on="0"/>
        <pt x="456" y="101" on="0"/>
      </contour>
      <contour>
        <pt x="236" y="-208" on="0"/>
        <pt x="280" y="-108" on="0"/>
        <pt x="280" y="55" on="0"/>
        <pt x="247" y="221" on="0"/>
        <pt x="224" y="268" on="1"/>
        <pt x="164" y="-75" on="1"/>
        <pt x="158" y="-110" on="0"/>
        <pt x="158" y="-136" on="1"/>
        <pt x="158" y="-208" on="0"/>
        <pt x="205" y="-208" on="1"/>
      </contour>
    </TTGlyph>
    <TTGlyph name="fi" xMin="-16" yMin="-351" xMax="817" yMax="767">
      <contour>
        <pt x="710" y="154" on="1"/>
        <pt x="710" y="128" on="0"/>
        <pt x="763" y="128" on="0"/>
        <pt x="781" y="138" on="1"/>
        <pt x="776" y="25" on="1"/>
        <pt x="728" y="-14" on="0"/>
        <pt x="668" y="-14" on="1"/>
        <pt x="577" y="-14" on="0"/>
        <pt x="550" y="28" on="1"/>
        <pt x="533" y="55" on="0"/>
        <pt x="533" y="119" on="0"/>
        <pt x="537" y="143" on="1"/>
        <pt x="572" y="340" on="1"/>
        <pt x="290" y="340" on="1"/>
        <pt x="361" y="283" on="0"/>
        <pt x="456" y="101" on="0"/>
        <pt x="456" y="-18" on="1"/>
        <pt x="456" y="-164" on="0"/>
        <pt x="307" y="-351" on="0"/>
        <pt x="52" y="-351" on="0"/>
        <pt x="10" y="-288" on="1"/>
        <pt x="-16" y="-248" on="0"/>
        <pt x="-16" y="-133" on="0"/>
        <pt x="-6" y="-76" on="1"/>
        <pt x="122" y="648" on="1"/>
        <pt x="292" y="648" on="1"/>
        <pt x="262" y="481" on="1"/>
        <pt x="767" y="481" on="1"/>
        <pt x="711" y="166" on="1"/>
        <pt x="710" y="160" on="0"/>
      </contour>
      <contour>
        <pt x="280" y="-24" on="1"/>
        <pt x="280" y="121" on="0"/>
        <pt x="220" y="245" on="1"/>
        <pt x="164" y="-75" on="1"/>
        <pt x="158" y="-110" on="0"/>
        <pt x="158" y="-136" on="1"/>
        <pt x="158" y="-208" on="0"/>
        <pt x="205" y="-208" on="1"/>
        <pt x="236" y="-208" on="0"/>
        <pt x="280" y="-108" on="0"/>
      </contour>
      <contour>
        <pt x="699" y="572" on="1"/>
        <pt x="615" y="572" on="0"/>
        <pt x="615" y="635" on="1"/>
        <pt x="615" y="650" on="0"/>
        <pt x="619" y="669" on="1"/>
        <pt x="632" y="722" on="0"/>
        <pt x="685" y="767" on="0"/>
        <pt x="776" y="767" on="0"/>
        <pt x="817" y="732" on="0"/>
        <pt x="817" y="693" on="1"/>
        <pt x="817" y="630" on="0"/>
        <pt x="760" y="572" on="0"/>
      </contour>
    </TTGlyph>
    <TTGlyph name="five" xMin="29" yMin="-14" xMax="621" yMax="720">
      <contour>
        <pt x="214" y="199" on="1"/>
        <pt x="214" y="173" on="0"/>
        <pt x="255" y="141" on="0"/>
        <pt x="347" y="141" on="0"/>
        <pt x="410" y="200" on="0"/>
        <pt x="410" y="288" on="0"/>
        <pt x="365" y="339" on="0"/>
        <pt x="332" y="339" on="1"/>
        <pt x="273" y="339" on="0"/>
        <pt x="241" y="313" on="1"/>
        <pt x="230" y="304" on="1"/>
        <pt x="59" y="304" on="1"/>
        <pt x="132" y="720" on="1"/>
        <pt x="621" y="720" on="1"/>
        <pt x="593" y="563" on="1"/>
        <pt x="274" y="563" on="1"/>
        <pt x="257" y="464" on="1"/>
        <pt x="301" y="487" on="0"/>
        <pt x="478" y="487" on="0"/>
        <pt x="593" y="377" on="0"/>
        <pt x="593" y="283" on="1"/>
        <pt x="593" y="151" on="0"/>
        <pt x="433" y="-14" on="0"/>
        <pt x="129" y="-14" on="0"/>
        <pt x="72" y="42" on="1"/>
        <pt x="30" y="83" on="0"/>
        <pt x="30" y="157" on="1"/>
        <pt x="30" y="183" on="0"/>
        <pt x="35" y="213" on="1"/>
        <pt x="215" y="213" on="1"/>
        <pt x="214" y="206" on="0"/>
      </contour>
    </TTGlyph>
    <TTGlyph name="fl" xMin="-16" yMin="-351" xMax="807" yMax="759">
      <contour>
        <pt x="456" y="-18" on="1"/>
        <pt x="456" y="-164" on="0"/>
        <pt x="307" y="-351" on="0"/>
        <pt x="52" y="-351" on="0"/>
        <pt x="10" y="-288" on="1"/>
        <pt x="-16" y="-248" on="0"/>
        <pt x="-16" y="-133" on="0"/>
        <pt x="-6" y="-76" on="1"/>
        <pt x="122" y="648" on="1"/>
        <pt x="292" y="648" on="1"/>
        <pt x="262" y="481" on="1"/>
        <pt x="511" y="481" on="1"/>
        <pt x="486" y="340" on="1"/>
        <pt x="290" y="340" on="1"/>
        <pt x="361" y="283" on="0"/>
        <pt x="456" y="101" on="0"/>
      </contour>
      <contour>
        <pt x="236" y="-208" on="0"/>
        <pt x="280" y="-108" on="0"/>
        <pt x="280" y="55" on="0"/>
        <pt x="247" y="221" on="0"/>
        <pt x="224" y="268" on="1"/>
        <pt x="164" y="-75" on="1"/>
        <pt x="158" y="-110" on="0"/>
        <pt x="158" y="-136" on="1"/>
        <pt x="158" y="-208" on="0"/>
        <pt x="205" y="-208" on="1"/>
      </contour>
      <contour>
        <pt x="701" y="154" on="1"/>
        <pt x="701" y="128" on="0"/>
        <pt x="754" y="128" on="0"/>
        <pt x="772" y="138" on="1"/>
        <pt x="767" y="25" on="1"/>
        <pt x="719" y="-14" on="0"/>
        <pt x="659" y="-14" on="1"/>
        <pt x="568" y="-14" on="0"/>
        <pt x="542" y="28" on="1"/>
        <pt x="524" y="55" on="0"/>
        <pt x="524" y="119" on="0"/>
        <pt x="528" y="143" on="1"/>
        <pt x="637" y="759" on="1"/>
        <pt x="807" y="759" on="1"/>
        <pt x="702" y="166" on="1"/>
        <pt x="701" y="160" on="0"/>
      </contour>
    </TTGlyph>
    <TTGlyph name="florin" xMin="-12" yMin="-351" xMax="515" yMax="648">
      <contour>
        <pt x="460" y="-18" on="1"/>
        <pt x="460" y="-164" on="0"/>
        <pt x="311" y="-351" on="0"/>
        <pt x="56" y="-351" on="0"/>
        <pt x="14" y="-288" on="1"/>
        <pt x="-12" y="-248" on="0"/>
        <pt x="-12" y="-133" on="0"/>
        <pt x="-2" y="-76" on="1"/>
        <pt x="126" y="648" on="1"/>
        <pt x="296" y="648" on="1"/>
        <pt x="266" y="481" on="1"/>
        <pt x="515" y="481" on="1"/>
        <pt x="490" y="340" on="1"/>
        <pt x="294" y="340" on="1"/>
        <pt x="365" y="283" on="0"/>
        <pt x="460" y="101" on="0"/>
      </contour>
      <contour>
        <pt x="284" y="-24" on="1"/>
        <pt x="284" y="121" on="0"/>
        <pt x="224" y="245" on="1"/>
        <pt x="168" y="-75" on="1"/>
        <pt x="162" y="-110" on="0"/>
        <pt x="162" y="-136" on="1"/>
        <pt x="162" y="-208" on="0"/>
        <pt x="209" y="-208" on="1"/>
        <pt x="240" y="-208" on="0"/>
        <pt x="284" y="-108" on="0"/>
      </contour>
    </TTGlyph>
    <TTGlyph name="four" xMin="7" yMin="0" xMax="593" yMax="700">
      <contour>
        <pt x="447" y="0" on="1"/>
        <pt x="269" y="0" on="1"/>
        <pt x="291" y="127" on="1"/>
        <pt x="7" y="127" on="1"/>
        <pt x="48" y="358" on="1"/>
        <pt x="331" y="700" on="1"/>
        <pt x="521" y="700" on="1"/>
        <pt x="232" y="329" on="1"/>
        <pt x="222" y="271" on="1"/>
        <pt x="329" y="271" on="1"/>
        <pt x="354" y="408" on="1"/>
        <pt x="519" y="408" on="1"/>
        <pt x="494" y="271" on="1"/>
        <pt x="593" y="271" on="1"/>
        <pt x="568" y="127" on="1"/>
        <pt x="469" y="127" on="1"/>
      </contour>
    </TTGlyph>
    <TTGlyph name="g" xMin="-8" yMin="-291" xMax="550" yMax="494">
      <contour>
        <pt x="440" y="-143" on="0"/>
        <pt x="283" y="-291" on="0"/>
        <pt x="81" y="-291" on="0"/>
        <pt x="-8" y="-217" on="0"/>
        <pt x="-8" y="-157" on="1"/>
        <pt x="-8" y="-69" on="0"/>
        <pt x="104" y="-4" on="1"/>
        <pt x="19" y="23" on="0"/>
        <pt x="19" y="125" on="1"/>
        <pt x="19" y="150" on="0"/>
        <pt x="24" y="180" on="1"/>
        <pt x="44" y="297" on="1"/>
        <pt x="60" y="387" on="0"/>
        <pt x="176" y="494" on="0"/>
        <pt x="361" y="494" on="0"/>
        <pt x="395" y="449" on="1"/>
        <pt x="401" y="481" on="1"/>
        <pt x="550" y="481" on="1"/>
        <pt x="462" y="-16" on="1"/>
      </contour>
      <contour>
        <pt x="198" y="202" on="1"/>
        <pt x="196" y="193" on="0"/>
        <pt x="196" y="161" on="0"/>
        <pt x="226" y="130" on="0"/>
        <pt x="297" y="130" on="0"/>
        <pt x="323" y="158" on="1"/>
        <pt x="353" y="326" on="1"/>
        <pt x="339" y="351" on="0"/>
        <pt x="261" y="351" on="0"/>
        <pt x="217" y="311" on="0"/>
        <pt x="211" y="277" on="1"/>
      </contour>
      <contour>
        <pt x="205" y="-148" on="1"/>
        <pt x="270" y="-148" on="0"/>
        <pt x="290" y="-30" on="1"/>
        <pt x="300" y="28" on="1"/>
        <pt x="161" y="-37" on="0"/>
        <pt x="161" y="-103" on="1"/>
        <pt x="161" y="-123" on="0"/>
        <pt x="184" y="-148" on="0"/>
      </contour>
    </TTGlyph>
    <TTGlyph name="germandbls" xMin="8" yMin="0" xMax="623" yMax="727">
      <contour>
        <pt x="395" y="727" on="1"/>
        <pt x="494" y="727" on="0"/>
        <pt x="562" y="687" on="1"/>
        <pt x="597" y="666" on="0"/>
        <pt x="613" y="626" on="1"/>
        <pt x="623" y="601" on="0"/>
        <pt x="623" y="553" on="0"/>
        <pt x="619" y="532" on="1"/>
        <pt x="610" y="484" on="1"/>
        <pt x="599" y="427" on="0"/>
        <pt x="536" y="363" on="0"/>
        <pt x="512" y="363" on="1"/>
        <pt x="511" y="355" on="1"/>
        <pt x="539" y="355" on="0"/>
        <pt x="597" y="293" on="0"/>
        <pt x="597" y="251" on="1"/>
        <pt x="597" y="234" on="0"/>
        <pt x="593" y="215" on="1"/>
        <pt x="587" y="184" on="1"/>
        <pt x="571" y="98" on="0"/>
        <pt x="450" y="0" on="0"/>
        <pt x="342" y="0" on="1"/>
        <pt x="306" y="0" on="0"/>
        <pt x="259" y="15" on="0"/>
        <pt x="254" y="22" on="1"/>
        <pt x="248" y="30" on="1"/>
        <pt x="276" y="186" on="1"/>
        <pt x="280" y="175" on="0"/>
        <pt x="316" y="156" on="0"/>
        <pt x="369" y="156" on="0"/>
        <pt x="415" y="201" on="0"/>
        <pt x="415" y="232" on="1"/>
        <pt x="415" y="294" on="0"/>
        <pt x="335" y="294" on="1"/>
        <pt x="300" y="294" on="1"/>
        <pt x="321" y="415" on="1"/>
        <pt x="335" y="415" on="1"/>
        <pt x="432" y="415" on="0"/>
        <pt x="432" y="504" on="1"/>
        <pt x="432" y="533" on="0"/>
        <pt x="398" y="572" on="0"/>
        <pt x="364" y="572" on="1"/>
        <pt x="289" y="572" on="0"/>
        <pt x="272" y="475" on="1"/>
        <pt x="188" y="0" on="1"/>
        <pt x="8" y="0" on="1"/>
        <pt x="92" y="474" on="1"/>
        <pt x="137" y="727" on="0"/>
      </contour>
    </TTGlyph>
    <TTGlyph name="grave" xMin="192" yMin="568" xMax="452" yMax="807">
      <contour>
        <pt x="452" y="568" on="1"/>
        <pt x="304" y="568" on="1"/>
        <pt x="192" y="807" on="1"/>
        <pt x="372" y="807" on="1"/>
      </contour>
    </TTGlyph>
    <TTGlyph name="greater" xMin="-1" yMin="7" xMax="401" yMax="529">
      <contour>
        <pt x="383" y="216" on="1"/>
        <pt x="-1" y="7" on="1"/>
        <pt x="24" y="147" on="1"/>
        <pt x="244" y="267" on="1"/>
        <pt x="66" y="389" on="1"/>
        <pt x="91" y="529" on="1"/>
        <pt x="401" y="319" on="1"/>
      </contour>
    </TTGlyph>
    <TTGlyph name="guillemotleft" xMin="31" yMin="84" xMax="492" yMax="445">
      <contour>
        <pt x="148" y="84" on="1"/>
        <pt x="31" y="227" on="1"/>
        <pt x="44" y="302" on="1"/>
        <pt x="211" y="445" on="1"/>
        <pt x="261" y="367" on="1"/>
        <pt x="141" y="264" on="1"/>
        <pt x="225" y="162" on="1"/>
      </contour>
      <contour>
        <pt x="379" y="84" on="1"/>
        <pt x="262" y="227" on="1"/>
        <pt x="275" y="302" on="1"/>
        <pt x="442" y="445" on="1"/>
        <pt x="492" y="367" on="1"/>
        <pt x="372" y="264" on="1"/>
        <pt x="456" y="162" on="1"/>
      </contour>
    </TTGlyph>
    <TTGlyph name="guillemotright" xMin="13" yMin="84" xMax="474" yMax="445">
      <contour>
        <pt x="460" y="227" on="1"/>
        <pt x="293" y="84" on="1"/>
        <pt x="244" y="162" on="1"/>
        <pt x="364" y="264" on="1"/>
        <pt x="280" y="367" on="1"/>
        <pt x="357" y="445" on="1"/>
        <pt x="474" y="302" on="1"/>
      </contour>
      <contour>
        <pt x="229" y="227" on="1"/>
        <pt x="62" y="84" on="1"/>
        <pt x="13" y="162" on="1"/>
        <pt x="133" y="264" on="1"/>
        <pt x="49" y="367" on="1"/>
        <pt x="126" y="445" on="1"/>
        <pt x="243" y="302" on="1"/>
      </contour>
    </TTGlyph>
    <TTGlyph name="guilsinglleft" xMin="31" yMin="84" xMax="261" yMax="445">
      <contour>
        <pt x="148" y="84" on="1"/>
        <pt x="31" y="227" on="1"/>
        <pt x="44" y="302" on="1"/>
        <pt x="211" y="445" on="1"/>
        <pt x="261" y="367" on="1"/>
        <pt x="141" y="264" on="1"/>
        <pt x="225" y="162" on="1"/>
      </contour>
    </TTGlyph>
    <TTGlyph name="guilsinglright" xMin="13" yMin="84" xMax="243" yMax="445">
      <contour>
        <pt x="229" y="227" on="1"/>
        <pt x="62" y="84" on="1"/>
        <pt x="13" y="162" on="1"/>
        <pt x="133" y="264" on="1"/>
        <pt x="49" y="367" on="1"/>
        <pt x="126" y="445" on="1"/>
        <pt x="243" y="302" on="1"/>
      </contour>
    </TTGlyph>
    <TTGlyph name="h" xMin="8" yMin="-14" xMax="582" yMax="759">
      <contour>
        <pt x="541" y="128" on="1"/>
        <pt x="564" y="128" on="0"/>
        <pt x="582" y="138" on="1"/>
        <pt x="577" y="25" on="1"/>
        <pt x="530" y="-14" on="0"/>
        <pt x="470" y="-14" on="1"/>
        <pt x="334" y="-14" on="0"/>
        <pt x="334" y="100" on="1"/>
        <pt x="334" y="120" on="0"/>
        <pt x="338" y="143" on="1"/>
        <pt x="360" y="266" on="1"/>
        <pt x="363" y="284" on="0"/>
        <pt x="363" y="302" on="1"/>
        <pt x="363" y="350" on="0"/>
        <pt x="262" y="350" on="0"/>
        <pt x="234" y="316" on="1"/>
        <pt x="178" y="0" on="1"/>
        <pt x="8" y="0" on="1"/>
        <pt x="142" y="759" on="1"/>
        <pt x="312" y="759" on="1"/>
        <pt x="255" y="436" on="1"/>
        <pt x="310" y="495" on="0"/>
        <pt x="393" y="495" on="1"/>
        <pt x="494" y="495" on="0"/>
        <pt x="524" y="450" on="1"/>
        <pt x="545" y="420" on="0"/>
        <pt x="545" y="346" on="0"/>
        <pt x="539" y="315" on="1"/>
        <pt x="512" y="166" on="1"/>
        <pt x="511" y="160" on="0"/>
        <pt x="511" y="155" on="1"/>
        <pt x="511" y="128" on="0"/>
      </contour>
    </TTGlyph>
    <TTGlyph name="hungarumlaut" xMin="150" yMin="568" xMax="807" yMax="807">
      <contour>
        <pt x="298" y="568" on="1"/>
        <pt x="150" y="568" on="1"/>
        <pt x="314" y="807" on="1"/>
        <pt x="494" y="807" on="1"/>
      </contour>
      <contour>
        <pt x="611" y="568" on="1"/>
        <pt x="463" y="568" on="1"/>
        <pt x="627" y="807" on="1"/>
        <pt x="807" y="807" on="1"/>
      </contour>
    </TTGlyph>
    <TTGlyph name="hyphen" xMin="41" yMin="209" xMax="362" yMax="335">
      <contour>
        <pt x="340" y="209" on="1"/>
        <pt x="41" y="209" on="1"/>
        <pt x="63" y="335" on="1"/>
        <pt x="362" y="335" on="1"/>
      </contour>
    </TTGlyph>
    <TTGlyph name="i" xMin="25" yMin="-14" xMax="311" yMax="767">
      <contour>
        <pt x="233" y="128" on="1"/>
        <pt x="256" y="128" on="0"/>
        <pt x="274" y="138" on="1"/>
        <pt x="269" y="25" on="1"/>
        <pt x="222" y="-14" on="0"/>
        <pt x="162" y="-14" on="1"/>
        <pt x="71" y="-14" on="0"/>
        <pt x="44" y="28" on="1"/>
        <pt x="26" y="56" on="0"/>
        <pt x="26" y="119" on="0"/>
        <pt x="30" y="143" on="1"/>
        <pt x="90" y="481" on="1"/>
        <pt x="260" y="481" on="1"/>
        <pt x="204" y="166" on="1"/>
        <pt x="203" y="160" on="0"/>
        <pt x="203" y="155" on="1"/>
        <pt x="203" y="128" on="0"/>
      </contour>
      <contour>
        <pt x="110" y="644" on="1"/>
        <pt x="110" y="708" on="0"/>
        <pt x="167" y="767" on="0"/>
        <pt x="227" y="767" on="1"/>
        <pt x="311" y="767" on="0"/>
        <pt x="311" y="693" on="1"/>
        <pt x="311" y="630" on="0"/>
        <pt x="254" y="572" on="0"/>
        <pt x="193" y="572" on="1"/>
        <pt x="110" y="572" on="0"/>
      </contour>
    </TTGlyph>
    <TTGlyph name="iacute" xMin="24" yMin="-14" xMax="454" yMax="807">
      <contour>
        <pt x="202" y="154" on="1"/>
        <pt x="202" y="128" on="0"/>
        <pt x="255" y="128" on="0"/>
        <pt x="273" y="138" on="1"/>
        <pt x="268" y="25" on="1"/>
        <pt x="220" y="-14" on="0"/>
        <pt x="160" y="-14" on="1"/>
        <pt x="69" y="-14" on="0"/>
        <pt x="42" y="28" on="1"/>
        <pt x="25" y="55" on="0"/>
        <pt x="25" y="119" on="0"/>
        <pt x="29" y="143" on="1"/>
        <pt x="89" y="481" on="1"/>
        <pt x="259" y="481" on="1"/>
        <pt x="203" y="166" on="1"/>
        <pt x="202" y="160" on="0"/>
      </contour>
      <contour>
        <pt x="258" y="568" on="1"/>
        <pt x="110" y="568" on="1"/>
        <pt x="274" y="807" on="1"/>
        <pt x="454" y="807" on="1"/>
      </contour>
    </TTGlyph>
    <TTGlyph name="icircumflex" xMin="-21" yMin="-14" xMax="402" yMax="807">
      <contour>
        <pt x="203" y="154" on="1"/>
        <pt x="203" y="128" on="0"/>
        <pt x="256" y="128" on="0"/>
        <pt x="274" y="138" on="1"/>
        <pt x="269" y="25" on="1"/>
        <pt x="221" y="-14" on="0"/>
        <pt x="161" y="-14" on="1"/>
        <pt x="70" y="-14" on="0"/>
        <pt x="44" y="28" on="1"/>
        <pt x="26" y="55" on="0"/>
        <pt x="26" y="119" on="0"/>
        <pt x="30" y="143" on="1"/>
        <pt x="90" y="481" on="1"/>
        <pt x="260" y="481" on="1"/>
        <pt x="204" y="166" on="1"/>
        <pt x="203" y="160" on="0"/>
      </contour>
      <contour>
        <pt x="122" y="568" on="1"/>
        <pt x="-21" y="568" on="1"/>
        <pt x="142" y="807" on="1"/>
        <pt x="323" y="807" on="1"/>
        <pt x="402" y="568" on="1"/>
        <pt x="259" y="568" on="1"/>
        <pt x="211" y="686" on="1"/>
      </contour>
    </TTGlyph>
    <TTGlyph name="idieresis" xMin="-14" yMin="-14" xMax="429" yMax="720">
      <contour>
        <pt x="203" y="154" on="1"/>
        <pt x="203" y="128" on="0"/>
        <pt x="256" y="128" on="0"/>
        <pt x="274" y="138" on="1"/>
        <pt x="269" y="25" on="1"/>
        <pt x="221" y="-14" on="0"/>
        <pt x="161" y="-14" on="1"/>
        <pt x="70" y="-14" on="0"/>
        <pt x="44" y="28" on="1"/>
        <pt x="26" y="55" on="0"/>
        <pt x="26" y="119" on="0"/>
        <pt x="30" y="143" on="1"/>
        <pt x="90" y="481" on="1"/>
        <pt x="260" y="481" on="1"/>
        <pt x="204" y="166" on="1"/>
        <pt x="203" y="160" on="0"/>
      </contour>
      <contour>
        <pt x="-14" y="622" on="1"/>
        <pt x="-14" y="673" on="0"/>
        <pt x="32" y="720" on="0"/>
        <pt x="80" y="720" on="1"/>
        <pt x="147" y="720" on="0"/>
        <pt x="147" y="662" on="1"/>
        <pt x="147" y="611" on="0"/>
        <pt x="101" y="564" on="0"/>
        <pt x="52" y="564" on="1"/>
        <pt x="-14" y="564" on="0"/>
      </contour>
      <contour>
        <pt x="268" y="622" on="1"/>
        <pt x="268" y="673" on="0"/>
        <pt x="314" y="720" on="0"/>
        <pt x="362" y="720" on="1"/>
        <pt x="429" y="720" on="0"/>
        <pt x="429" y="662" on="1"/>
        <pt x="429" y="611" on="0"/>
        <pt x="383" y="564" on="0"/>
        <pt x="334" y="564" on="1"/>
        <pt x="268" y="564" on="0"/>
      </contour>
    </TTGlyph>
    <TTGlyph name="igrave" xMin="3" yMin="-14" xMax="274" yMax="807">
      <contour>
        <pt x="203" y="154" on="1"/>
        <pt x="203" y="128" on="0"/>
        <pt x="256" y="128" on="0"/>
        <pt x="274" y="138" on="1"/>
        <pt x="269" y="25" on="1"/>
        <pt x="221" y="-14" on="0"/>
        <pt x="161" y="-14" on="1"/>
        <pt x="70" y="-14" on="0"/>
        <pt x="44" y="28" on="1"/>
        <pt x="26" y="55" on="0"/>
        <pt x="26" y="119" on="0"/>
        <pt x="30" y="143" on="1"/>
        <pt x="90" y="481" on="1"/>
        <pt x="260" y="481" on="1"/>
        <pt x="204" y="166" on="1"/>
        <pt x="203" y="160" on="0"/>
      </contour>
      <contour>
        <pt x="263" y="568" on="1"/>
        <pt x="115" y="568" on="1"/>
        <pt x="3" y="807" on="1"/>
        <pt x="183" y="807" on="1"/>
      </contour>
    </TTGlyph>
    <TTGlyph name="j" xMin="-127" yMin="-287" xMax="311" yMax="767">
      <contour>
        <pt x="-33" y="-287" on="1"/>
        <pt x="-60" y="-287" on="0"/>
        <pt x="-107" y="-268" on="0"/>
        <pt x="-117" y="-258" on="1"/>
        <pt x="-127" y="-248" on="1"/>
        <pt x="-92" y="-135" on="1"/>
        <pt x="-80" y="-145" on="0"/>
        <pt x="-54" y="-145" on="1"/>
        <pt x="-19" y="-145" on="0"/>
        <pt x="-12" y="-107" on="1"/>
        <pt x="92" y="481" on="1"/>
        <pt x="262" y="481" on="1"/>
        <pt x="154" y="-130" on="1"/>
        <pt x="141" y="-202" on="0"/>
        <pt x="56" y="-287" on="0"/>
      </contour>
      <contour>
        <pt x="110" y="644" on="1"/>
        <pt x="110" y="708" on="0"/>
        <pt x="167" y="767" on="0"/>
        <pt x="227" y="767" on="1"/>
        <pt x="311" y="767" on="0"/>
        <pt x="311" y="693" on="1"/>
        <pt x="311" y="630" on="0"/>
        <pt x="253" y="572" on="0"/>
        <pt x="193" y="572" on="1"/>
        <pt x="110" y="572" on="0"/>
      </contour>
    </TTGlyph>
    <TTGlyph name="k" xMin="8" yMin="-14" xMax="547" yMax="759">
      <contour>
        <pt x="501" y="128" on="1"/>
        <pt x="524" y="128" on="0"/>
        <pt x="542" y="138" on="1"/>
        <pt x="537" y="25" on="1"/>
        <pt x="490" y="-14" on="0"/>
        <pt x="354" y="-14" on="0"/>
        <pt x="289" y="58" on="0"/>
        <pt x="271" y="143" on="1"/>
        <pt x="268" y="157" on="1"/>
        <pt x="247" y="154" on="0"/>
        <pt x="205" y="152" on="1"/>
        <pt x="178" y="0" on="1"/>
        <pt x="8" y="0" on="1"/>
        <pt x="142" y="759" on="1"/>
        <pt x="312" y="759" on="1"/>
        <pt x="254" y="430" on="1"/>
        <pt x="313" y="495" on="0"/>
        <pt x="414" y="495" on="1"/>
        <pt x="482" y="495" on="0"/>
        <pt x="547" y="428" on="0"/>
        <pt x="547" y="372" on="1"/>
        <pt x="547" y="264" on="0"/>
        <pt x="434" y="203" on="1"/>
        <pt x="445" y="166" on="1"/>
        <pt x="456" y="128" on="0"/>
      </contour>
      <contour>
        <pt x="328" y="359" on="1"/>
        <pt x="274" y="359" on="0"/>
        <pt x="232" y="308" on="1"/>
        <pt x="221" y="242" on="1"/>
        <pt x="369" y="248" on="0"/>
        <pt x="369" y="321" on="1"/>
        <pt x="369" y="338" on="0"/>
        <pt x="348" y="359" on="0"/>
      </contour>
    </TTGlyph>
    <TTGlyph name="l" xMin="30" yMin="-14" xMax="314" yMax="759">
      <contour>
        <pt x="208" y="154" on="1"/>
        <pt x="208" y="128" on="0"/>
        <pt x="261" y="128" on="0"/>
        <pt x="279" y="138" on="1"/>
        <pt x="274" y="25" on="1"/>
        <pt x="226" y="-14" on="0"/>
        <pt x="166" y="-14" on="1"/>
        <pt x="75" y="-14" on="0"/>
        <pt x="48" y="28" on="1"/>
        <pt x="31" y="55" on="0"/>
        <pt x="31" y="119" on="0"/>
        <pt x="35" y="143" on="1"/>
        <pt x="144" y="759" on="1"/>
        <pt x="314" y="759" on="1"/>
        <pt x="209" y="166" on="1"/>
        <pt x="208" y="160" on="0"/>
      </contour>
    </TTGlyph>
    <TTGlyph name="less" xMin="11" yMin="7" xMax="413" yMax="529">
      <contour>
        <pt x="321" y="7" on="1"/>
        <pt x="11" y="216" on="1"/>
        <pt x="29" y="319" on="1"/>
        <pt x="413" y="529" on="1"/>
        <pt x="389" y="389" on="1"/>
        <pt x="168" y="267" on="1"/>
        <pt x="346" y="147" on="1"/>
      </contour>
    </TTGlyph>
    <TTGlyph name="logicalnot" xMin="31" yMin="45" xMax="547" yMax="335">
      <contour>
        <pt x="375" y="45" on="1"/>
        <pt x="404" y="209" on="1"/>
        <pt x="31" y="209" on="1"/>
        <pt x="53" y="335" on="1"/>
        <pt x="547" y="335" on="1"/>
        <pt x="496" y="45" on="1"/>
      </contour>
    </TTGlyph>
    <TTGlyph name="lslash" xMin="14" yMin="-14" xMax="440" yMax="759">
      <contour>
        <pt x="296" y="128" on="1"/>
        <pt x="319" y="128" on="0"/>
        <pt x="337" y="138" on="1"/>
        <pt x="332" y="25" on="1"/>
        <pt x="284" y="-14" on="0"/>
        <pt x="224" y="-14" on="1"/>
        <pt x="133" y="-14" on="0"/>
        <pt x="106" y="28" on="1"/>
        <pt x="89" y="55" on="0"/>
        <pt x="89" y="119" on="0"/>
        <pt x="93" y="143" on="1"/>
        <pt x="116" y="273" on="1"/>
        <pt x="58" y="243" on="1"/>
        <pt x="14" y="352" on="1"/>
        <pt x="142" y="419" on="1"/>
        <pt x="202" y="759" on="1"/>
        <pt x="372" y="759" on="1"/>
        <pt x="329" y="517" on="1"/>
        <pt x="396" y="553" on="1"/>
        <pt x="440" y="444" on="1"/>
        <pt x="303" y="372" on="1"/>
        <pt x="267" y="166" on="1"/>
        <pt x="266" y="160" on="0"/>
        <pt x="266" y="155" on="1"/>
        <pt x="266" y="128" on="0"/>
      </contour>
    </TTGlyph>
    <TTGlyph name="m" xMin="8" yMin="-14" xMax="891" yMax="495">
      <contour>
        <pt x="850" y="128" on="1"/>
        <pt x="873" y="128" on="0"/>
        <pt x="891" y="138" on="1"/>
        <pt x="886" y="25" on="1"/>
        <pt x="839" y="-14" on="0"/>
        <pt x="779" y="-14" on="1"/>
        <pt x="643" y="-14" on="0"/>
        <pt x="643" y="100" on="1"/>
        <pt x="643" y="120" on="0"/>
        <pt x="647" y="143" on="1"/>
        <pt x="668" y="266" on="1"/>
        <pt x="671" y="284" on="0"/>
        <pt x="671" y="302" on="1"/>
        <pt x="671" y="350" on="0"/>
        <pt x="566" y="350" on="0"/>
        <pt x="536" y="309" on="1"/>
        <pt x="482" y="0" on="1"/>
        <pt x="312" y="0" on="1"/>
        <pt x="359" y="266" on="1"/>
        <pt x="362" y="284" on="0"/>
        <pt x="362" y="302" on="1"/>
        <pt x="362" y="350" on="0"/>
        <pt x="308" y="350" on="1"/>
        <pt x="265" y="350" on="0"/>
        <pt x="234" y="317" on="1"/>
        <pt x="178" y="0" on="1"/>
        <pt x="8" y="0" on="1"/>
        <pt x="93" y="481" on="1"/>
        <pt x="251" y="481" on="1"/>
        <pt x="240" y="421" on="1"/>
        <pt x="300" y="495" on="0"/>
        <pt x="392" y="495" on="1"/>
        <pt x="522" y="495" on="0"/>
        <pt x="540" y="409" on="1"/>
        <pt x="600" y="495" on="0"/>
        <pt x="801" y="495" on="0"/>
        <pt x="831" y="450" on="1"/>
        <pt x="851" y="419" on="0"/>
        <pt x="851" y="345" on="0"/>
        <pt x="846" y="315" on="1"/>
        <pt x="821" y="166" on="1"/>
        <pt x="820" y="160" on="0"/>
        <pt x="820" y="155" on="1"/>
        <pt x="820" y="128" on="0"/>
      </contour>
    </TTGlyph>
    <TTGlyph name="mu" xMin="-41" yMin="-278" xMax="566" yMax="481">
      <contour>
        <pt x="183" y="-14" on="1"/>
        <pt x="176" y="-14" on="1"/>
        <pt x="129" y="-278" on="1"/>
        <pt x="-41" y="-278" on="1"/>
        <pt x="93" y="481" on="1"/>
        <pt x="263" y="481" on="1"/>
        <pt x="216" y="215" on="1"/>
        <pt x="213" y="197" on="0"/>
        <pt x="213" y="179" on="1"/>
        <pt x="213" y="131" on="0"/>
        <pt x="267" y="131" on="1"/>
        <pt x="311" y="131" on="0"/>
        <pt x="340" y="162" on="1"/>
        <pt x="396" y="481" on="1"/>
        <pt x="566" y="481" on="1"/>
        <pt x="482" y="0" on="1"/>
        <pt x="333" y="0" on="1"/>
        <pt x="346" y="75" on="1"/>
        <pt x="286" y="-14" on="0"/>
      </contour>
    </TTGlyph>
    <TTGlyph name="multiply" xMin="14" yMin="74" xMax="392" yMax="422">
      <contour>
        <pt x="263" y="74" on="1"/>
        <pt x="187" y="165" on="1"/>
        <pt x="82" y="76" on="1"/>
        <pt x="14" y="160" on="1"/>
        <pt x="119" y="249" on="1"/>
        <pt x="46" y="337" on="1"/>
        <pt x="145" y="420" on="1"/>
        <pt x="216" y="332" on="1"/>
        <pt x="322" y="422" on="1"/>
        <pt x="392" y="339" on="1"/>
        <pt x="286" y="249" on="1"/>
        <pt x="361" y="158" on="1"/>
      </contour>
    </TTGlyph>
    <TTGlyph name="n" xMin="8" yMin="-14" xMax="561" yMax="495">
      <contour>
        <pt x="344" y="307" on="1"/>
        <pt x="344" y="350" on="0"/>
        <pt x="261" y="350" on="0"/>
        <pt x="234" y="319" on="1"/>
        <pt x="178" y="0" on="1"/>
        <pt x="8" y="0" on="1"/>
        <pt x="93" y="481" on="1"/>
        <pt x="251" y="481" on="1"/>
        <pt x="240" y="422" on="1"/>
        <pt x="299" y="495" on="0"/>
        <pt x="479" y="495" on="0"/>
        <pt x="506" y="451" on="1"/>
        <pt x="523" y="423" on="0"/>
        <pt x="523" y="351" on="0"/>
        <pt x="518" y="320" on="1"/>
        <pt x="491" y="166" on="1"/>
        <pt x="490" y="160" on="0"/>
        <pt x="490" y="155" on="1"/>
        <pt x="490" y="128" on="0"/>
        <pt x="520" y="128" on="1"/>
        <pt x="543" y="128" on="0"/>
        <pt x="561" y="138" on="1"/>
        <pt x="556" y="25" on="1"/>
        <pt x="509" y="-14" on="0"/>
        <pt x="449" y="-14" on="1"/>
        <pt x="313" y="-14" on="0"/>
        <pt x="313" y="100" on="1"/>
        <pt x="313" y="120" on="0"/>
        <pt x="317" y="143" on="1"/>
        <pt x="341" y="276" on="1"/>
        <pt x="344" y="294" on="0"/>
      </contour>
    </TTGlyph>
    <TTGlyph name="nine" xMin="27" yMin="-14" xMax="632" yMax="727">
      <contour>
        <pt x="248" y="291" on="1"/>
        <pt x="162" y="291" on="0"/>
        <pt x="75" y="382" on="0"/>
        <pt x="75" y="456" on="1"/>
        <pt x="75" y="584" on="0"/>
        <pt x="231" y="727" on="0"/>
        <pt x="539" y="727" on="0"/>
        <pt x="594" y="664" on="1"/>
        <pt x="632" y="621" on="0"/>
        <pt x="632" y="542" on="1"/>
        <pt x="632" y="508" on="0"/>
        <pt x="625" y="469" on="1"/>
        <pt x="584" y="239" on="1"/>
        <pt x="539" y="-14" on="0"/>
        <pt x="264" y="-14" on="1"/>
        <pt x="147" y="-14" on="0"/>
        <pt x="27" y="69" on="0"/>
        <pt x="27" y="143" on="1"/>
        <pt x="27" y="170" on="0"/>
        <pt x="42" y="223" on="0"/>
        <pt x="50" y="236" on="1"/>
        <pt x="57" y="249" on="1"/>
        <pt x="234" y="249" on="1"/>
        <pt x="216" y="224" on="0"/>
        <pt x="216" y="195" on="1"/>
        <pt x="216" y="141" on="0"/>
        <pt x="292" y="141" on="1"/>
        <pt x="387" y="141" on="0"/>
        <pt x="407" y="253" on="1"/>
        <pt x="414" y="291" on="1"/>
      </contour>
      <contour>
        <pt x="334" y="426" on="1"/>
        <pt x="437" y="426" on="1"/>
        <pt x="442" y="455" on="1"/>
        <pt x="446" y="480" on="0"/>
        <pt x="446" y="505" on="1"/>
        <pt x="446" y="572" on="0"/>
        <pt x="368" y="572" on="1"/>
        <pt x="259" y="572" on="0"/>
        <pt x="259" y="488" on="1"/>
        <pt x="259" y="426" on="0"/>
      </contour>
    </TTGlyph>
    <TTGlyph name="notequal" xMin="19" yMin="0" xMax="448" yMax="564">
      <contour>
        <pt x="390" y="95" on="1"/>
        <pt x="231" y="95" on="1"/>
        <pt x="190" y="0" on="1"/>
        <pt x="50" y="0" on="1"/>
        <pt x="91" y="95" on="1"/>
        <pt x="19" y="95" on="1"/>
        <pt x="40" y="213" on="1"/>
        <pt x="143" y="213" on="1"/>
        <pt x="184" y="306" on="1"/>
        <pt x="56" y="306" on="1"/>
        <pt x="77" y="424" on="1"/>
        <pt x="235" y="424" on="1"/>
        <pt x="297" y="564" on="1"/>
        <pt x="437" y="564" on="1"/>
        <pt x="375" y="424" on="1"/>
        <pt x="448" y="424" on="1"/>
        <pt x="427" y="306" on="1"/>
        <pt x="324" y="306" on="1"/>
        <pt x="283" y="213" on="1"/>
        <pt x="411" y="213" on="1"/>
      </contour>
    </TTGlyph>
    <TTGlyph name="ntilde" xMin="8" yMin="-14" xMax="573" yMax="766">
      <component glyphName="n" x="0" y="0" flags="0x1004"/>
      <component glyphName="tilde" x="-33" y="0" flags="0x1004"/>
    </TTGlyph>
    <TTGlyph name="numbersign" xMin="-1" yMin="49" xMax="639" yMax="492">
      <contour>
        <pt x="507" y="107" on="1"/>
        <pt x="429" y="107" on="1"/>
        <pt x="407" y="49" on="1"/>
        <pt x="287" y="49" on="1"/>
        <pt x="309" y="107" on="1"/>
        <pt x="207" y="107" on="1"/>
        <pt x="185" y="49" on="1"/>
        <pt x="65" y="49" on="1"/>
        <pt x="87" y="107" on="1"/>
        <pt x="-1" y="107" on="1"/>
        <pt x="36" y="197" on="1"/>
        <pt x="123" y="197" on="1"/>
        <pt x="171" y="321" on="1"/>
        <pt x="94" y="321" on="1"/>
        <pt x="131" y="411" on="1"/>
        <pt x="206" y="411" on="1"/>
        <pt x="238" y="492" on="1"/>
        <pt x="357" y="492" on="1"/>
        <pt x="326" y="411" on="1"/>
        <pt x="428" y="411" on="1"/>
        <pt x="460" y="492" on="1"/>
        <pt x="579" y="492" on="1"/>
        <pt x="548" y="411" on="1"/>
        <pt x="639" y="411" on="1"/>
        <pt x="602" y="321" on="1"/>
        <pt x="513" y="321" on="1"/>
        <pt x="464" y="197" on="1"/>
        <pt x="544" y="197" on="1"/>
      </contour>
      <contour>
        <pt x="345" y="197" on="1"/>
        <pt x="393" y="321" on="1"/>
        <pt x="291" y="321" on="1"/>
        <pt x="242" y="197" on="1"/>
      </contour>
    </TTGlyph>
    <TTGlyph name="o" xMin="17" yMin="-14" xMax="527" yMax="496">
      <contour>
        <pt x="321" y="495" on="1"/>
        <pt x="429" y="495" on="0"/>
        <pt x="484" y="448" on="1"/>
        <pt x="527" y="411" on="0"/>
        <pt x="527" y="345" on="1"/>
        <pt x="527" y="323" on="0"/>
        <pt x="522" y="297" on="1"/>
        <pt x="501" y="180" on="1"/>
        <pt x="482" y="74" on="0"/>
        <pt x="343" y="-14" on="0"/>
        <pt x="111" y="-14" on="0"/>
        <pt x="57" y="30" on="1"/>
        <pt x="17" y="63" on="0"/>
        <pt x="17" y="129" on="1"/>
        <pt x="17" y="152" on="0"/>
        <pt x="22" y="180" on="1"/>
        <pt x="43" y="297" on="1"/>
        <pt x="78" y="495" on="0"/>
      </contour>
      <contour>
        <pt x="348" y="277" on="1"/>
        <pt x="350" y="287" on="0"/>
        <pt x="350" y="318" on="0"/>
        <pt x="324" y="356" on="0"/>
        <pt x="259" y="356" on="0"/>
        <pt x="215" y="313" on="0"/>
        <pt x="209" y="277" on="1"/>
        <pt x="196" y="202" on="1"/>
        <pt x="194" y="192" on="0"/>
        <pt x="194" y="161" on="0"/>
        <pt x="220" y="125" on="0"/>
        <pt x="285" y="125" on="0"/>
        <pt x="329" y="170" on="0"/>
        <pt x="335" y="202" on="1"/>
      </contour>
    </TTGlyph>
    <TTGlyph name="oacute" xMin="17" yMin="-14" xMax="584" yMax="807">
      <contour>
        <pt x="321" y="495" on="1"/>
        <pt x="429" y="495" on="0"/>
        <pt x="484" y="448" on="1"/>
        <pt x="527" y="411" on="0"/>
        <pt x="527" y="345" on="1"/>
        <pt x="527" y="323" on="0"/>
        <pt x="522" y="297" on="1"/>
        <pt x="501" y="180" on="1"/>
        <pt x="482" y="74" on="0"/>
        <pt x="343" y="-14" on="0"/>
        <pt x="111" y="-14" on="0"/>
        <pt x="57" y="30" on="1"/>
        <pt x="17" y="63" on="0"/>
        <pt x="17" y="129" on="1"/>
        <pt x="17" y="152" on="0"/>
        <pt x="22" y="180" on="1"/>
        <pt x="43" y="297" on="1"/>
        <pt x="78" y="495" on="0"/>
      </contour>
      <contour>
        <pt x="348" y="277" on="1"/>
        <pt x="350" y="287" on="0"/>
        <pt x="350" y="318" on="0"/>
        <pt x="324" y="356" on="0"/>
        <pt x="259" y="356" on="0"/>
        <pt x="215" y="313" on="0"/>
        <pt x="209" y="277" on="1"/>
        <pt x="196" y="202" on="1"/>
        <pt x="194" y="192" on="0"/>
        <pt x="194" y="161" on="0"/>
        <pt x="220" y="125" on="0"/>
        <pt x="285" y="125" on="0"/>
        <pt x="329" y="170" on="0"/>
        <pt x="335" y="202" on="1"/>
      </contour>
      <contour>
        <pt x="388" y="568" on="1"/>
        <pt x="240" y="568" on="1"/>
        <pt x="404" y="807" on="1"/>
        <pt x="584" y="807" on="1"/>
      </contour>
    </TTGlyph>
    <TTGlyph name="ocircumflex" xMin="17" yMin="-14" xMax="538" yMax="807">
      <contour>
        <pt x="321" y="495" on="1"/>
        <pt x="429" y="495" on="0"/>
        <pt x="484" y="448" on="1"/>
        <pt x="527" y="411" on="0"/>
        <pt x="527" y="345" on="1"/>
        <pt x="527" y="323" on="0"/>
        <pt x="522" y="297" on="1"/>
        <pt x="501" y="180" on="1"/>
        <pt x="482" y="74" on="0"/>
        <pt x="343" y="-14" on="0"/>
        <pt x="111" y="-14" on="0"/>
        <pt x="57" y="30" on="1"/>
        <pt x="17" y="63" on="0"/>
        <pt x="17" y="129" on="1"/>
        <pt x="17" y="152" on="0"/>
        <pt x="22" y="180" on="1"/>
        <pt x="43" y="297" on="1"/>
        <pt x="78" y="495" on="0"/>
      </contour>
      <contour>
        <pt x="348" y="277" on="1"/>
        <pt x="350" y="287" on="0"/>
        <pt x="350" y="318" on="0"/>
        <pt x="324" y="356" on="0"/>
        <pt x="259" y="356" on="0"/>
        <pt x="215" y="313" on="0"/>
        <pt x="209" y="277" on="1"/>
        <pt x="196" y="202" on="1"/>
        <pt x="194" y="192" on="0"/>
        <pt x="194" y="161" on="0"/>
        <pt x="220" y="125" on="0"/>
        <pt x="285" y="125" on="0"/>
        <pt x="329" y="170" on="0"/>
        <pt x="335" y="202" on="1"/>
      </contour>
      <contour>
        <pt x="258" y="568" on="1"/>
        <pt x="115" y="568" on="1"/>
        <pt x="278" y="807" on="1"/>
        <pt x="459" y="807" on="1"/>
        <pt x="538" y="568" on="1"/>
        <pt x="395" y="568" on="1"/>
        <pt x="347" y="686" on="1"/>
      </contour>
    </TTGlyph>
    <TTGlyph name="odieresis" xMin="17" yMin="-14" xMax="562" yMax="720">
      <contour>
        <pt x="321" y="495" on="1"/>
        <pt x="429" y="495" on="0"/>
        <pt x="484" y="448" on="1"/>
        <pt x="527" y="411" on="0"/>
        <pt x="527" y="345" on="1"/>
        <pt x="527" y="323" on="0"/>
        <pt x="522" y="297" on="1"/>
        <pt x="501" y="180" on="1"/>
        <pt x="482" y="74" on="0"/>
        <pt x="343" y="-14" on="0"/>
        <pt x="111" y="-14" on="0"/>
        <pt x="57" y="30" on="1"/>
        <pt x="17" y="63" on="0"/>
        <pt x="17" y="129" on="1"/>
        <pt x="17" y="152" on="0"/>
        <pt x="22" y="180" on="1"/>
        <pt x="43" y="297" on="1"/>
        <pt x="78" y="495" on="0"/>
      </contour>
      <contour>
        <pt x="348" y="277" on="1"/>
        <pt x="350" y="287" on="0"/>
        <pt x="350" y="318" on="0"/>
        <pt x="324" y="356" on="0"/>
        <pt x="259" y="356" on="0"/>
        <pt x="215" y="313" on="0"/>
        <pt x="209" y="277" on="1"/>
        <pt x="196" y="202" on="1"/>
        <pt x="194" y="192" on="0"/>
        <pt x="194" y="161" on="0"/>
        <pt x="220" y="125" on="0"/>
        <pt x="285" y="125" on="0"/>
        <pt x="329" y="170" on="0"/>
        <pt x="335" y="202" on="1"/>
      </contour>
      <contour>
        <pt x="119" y="622" on="1"/>
        <pt x="119" y="673" on="0"/>
        <pt x="165" y="720" on="0"/>
        <pt x="213" y="720" on="1"/>
        <pt x="280" y="720" on="0"/>
        <pt x="280" y="662" on="1"/>
        <pt x="280" y="611" on="0"/>
        <pt x="234" y="564" on="0"/>
        <pt x="185" y="564" on="1"/>
        <pt x="119" y="564" on="0"/>
      </contour>
      <contour>
        <pt x="401" y="622" on="1"/>
        <pt x="401" y="673" on="0"/>
        <pt x="447" y="720" on="0"/>
        <pt x="495" y="720" on="1"/>
        <pt x="562" y="720" on="0"/>
        <pt x="562" y="662" on="1"/>
        <pt x="562" y="611" on="0"/>
        <pt x="516" y="564" on="0"/>
        <pt x="467" y="564" on="1"/>
        <pt x="401" y="564" on="0"/>
      </contour>
    </TTGlyph>
    <TTGlyph name="oe" xMin="17" yMin="-14" xMax="833" yMax="496">
      <contour>
        <pt x="535" y="-14" on="1"/>
        <pt x="441" y="-14" on="0"/>
        <pt x="387" y="16" on="1"/>
        <pt x="326" y="-14" on="0"/>
        <pt x="111" y="-14" on="0"/>
        <pt x="57" y="30" on="1"/>
        <pt x="17" y="63" on="0"/>
        <pt x="17" y="129" on="1"/>
        <pt x="17" y="152" on="0"/>
        <pt x="22" y="180" on="1"/>
        <pt x="43" y="297" on="1"/>
        <pt x="60" y="394" on="0"/>
        <pt x="200" y="495" on="0"/>
        <pt x="413" y="495" on="0"/>
        <pt x="467" y="460" on="1"/>
        <pt x="534" y="496" on="0"/>
        <pt x="630" y="496" on="1"/>
        <pt x="832" y="496" on="0"/>
        <pt x="832" y="344" on="1"/>
        <pt x="832" y="322" on="0"/>
        <pt x="828" y="296" on="1"/>
        <pt x="816" y="225" on="1"/>
        <pt x="510" y="225" on="1"/>
        <pt x="506" y="202" on="1"/>
        <pt x="504" y="190" on="0"/>
        <pt x="504" y="180" on="1"/>
        <pt x="504" y="125" on="0"/>
        <pt x="570" y="125" on="1"/>
        <pt x="594" y="125" on="0"/>
        <pt x="627" y="155" on="0"/>
        <pt x="630" y="175" on="1"/>
        <pt x="796" y="173" on="1"/>
        <pt x="763" y="-14" on="0"/>
      </contour>
      <contour>
        <pt x="348" y="277" on="1"/>
        <pt x="350" y="287" on="0"/>
        <pt x="350" y="318" on="0"/>
        <pt x="324" y="356" on="0"/>
        <pt x="259" y="356" on="0"/>
        <pt x="215" y="313" on="0"/>
        <pt x="209" y="277" on="1"/>
        <pt x="196" y="202" on="1"/>
        <pt x="194" y="192" on="0"/>
        <pt x="194" y="161" on="0"/>
        <pt x="220" y="125" on="0"/>
        <pt x="285" y="125" on="0"/>
        <pt x="329" y="170" on="0"/>
        <pt x="335" y="202" on="1"/>
      </contour>
      <contour>
        <pt x="656" y="286" on="1"/>
        <pt x="660" y="303" on="0"/>
        <pt x="660" y="332" on="0"/>
        <pt x="633" y="362" on="0"/>
        <pt x="576" y="362" on="0"/>
        <pt x="530" y="324" on="0"/>
        <pt x="521" y="286" on="1"/>
      </contour>
    </TTGlyph>
    <TTGlyph name="ogonek" xMin="31" yMin="-194" xMax="241" yMax="25">
      <contour>
        <pt x="157" y="-194" on="0"/>
        <pt x="86" y="-194" on="0"/>
        <pt x="31" y="-154" on="0"/>
        <pt x="31" y="-67" on="0"/>
        <pt x="115" y="3" on="0"/>
        <pt x="157" y="14" on="1"/>
        <pt x="199" y="25" on="1"/>
        <pt x="230" y="2" on="1"/>
        <pt x="161" y="-15" on="0"/>
        <pt x="133" y="-52" on="1"/>
        <pt x="121" y="-67" on="0"/>
        <pt x="121" y="-98" on="0"/>
        <pt x="141" y="-117" on="0"/>
        <pt x="174" y="-117" on="0"/>
        <pt x="202" y="-101" on="0"/>
        <pt x="208" y="-93" on="1"/>
        <pt x="215" y="-85" on="1"/>
        <pt x="241" y="-147" on="1"/>
        <pt x="222" y="-166" on="0"/>
      </contour>
    </TTGlyph>
    <TTGlyph name="ograve" xMin="22" yMin="-14" xMax="522" yMax="807">
      <component glyphName="o" x="0" y="0" flags="0x1004"/>
      <component glyphName="grave" x="-41" y="0" flags="0x1004"/>
    </TTGlyph>
    <TTGlyph name="one" xMin="53" yMin="0" xMax="510" yMax="720">
      <contour>
        <pt x="384" y="0" on="1"/>
        <pt x="203" y="0" on="1"/>
        <pt x="288" y="480" on="1"/>
        <pt x="264" y="441" on="0"/>
        <pt x="136" y="369" on="0"/>
        <pt x="66" y="369" on="1"/>
        <pt x="53" y="537" on="1"/>
        <pt x="147" y="537" on="0"/>
        <pt x="311" y="652" on="0"/>
        <pt x="330" y="720" on="1"/>
        <pt x="510" y="720" on="1"/>
      </contour>
    </TTGlyph>
    <TTGlyph name="onehalf" xMin="51" yMin="0" xMax="740" yMax="727">
      <contour>
        <pt x="51" y="0" on="1"/>
        <pt x="571" y="727" on="1"/>
        <pt x="711" y="727" on="1"/>
        <pt x="191" y="0" on="1"/>
      </contour>
      <contour>
        <pt x="263" y="360" on="1"/>
        <pt x="158" y="360" on="1"/>
        <pt x="198" y="585" on="1"/>
        <pt x="186" y="565" on="0"/>
        <pt x="122" y="529" on="0"/>
        <pt x="87" y="529" on="1"/>
        <pt x="83" y="628" on="1"/>
        <pt x="130" y="628" on="0"/>
        <pt x="212" y="685" on="0"/>
        <pt x="222" y="720" on="1"/>
        <pt x="327" y="720" on="1"/>
      </contour>
      <contour>
        <pt x="638" y="218" on="0"/>
        <pt x="638" y="276" on="0"/>
        <pt x="601" y="276" on="1"/>
        <pt x="576" y="276" on="0"/>
        <pt x="549" y="246" on="0"/>
        <pt x="549" y="220" on="1"/>
        <pt x="552" y="199" on="1"/>
        <pt x="454" y="199" on="1"/>
        <pt x="451" y="211" on="0"/>
        <pt x="451" y="230" on="1"/>
        <pt x="451" y="291" on="0"/>
        <pt x="535" y="363" on="0"/>
        <pt x="613" y="363" on="1"/>
        <pt x="740" y="363" on="0"/>
        <pt x="740" y="264" on="1"/>
        <pt x="740" y="223" on="0"/>
        <pt x="687" y="155" on="0"/>
        <pt x="624" y="121" on="0"/>
        <pt x="568" y="93" on="0"/>
        <pt x="567" y="88" on="1"/>
        <pt x="701" y="88" on="1"/>
        <pt x="685" y="0" on="1"/>
        <pt x="418" y="0" on="1"/>
        <pt x="425" y="37" on="1"/>
        <pt x="433" y="82" on="0"/>
        <pt x="504" y="145" on="0"/>
        <pt x="578" y="173" on="0"/>
      </contour>
    </TTGlyph>
    <TTGlyph name="onequarter" xMin="76" yMin="0" xMax="736" yMax="727">
      <contour>
        <pt x="76" y="0" on="1"/>
        <pt x="596" y="727" on="1"/>
        <pt x="736" y="727" on="1"/>
        <pt x="216" y="0" on="1"/>
      </contour>
      <contour>
        <pt x="262" y="360" on="1"/>
        <pt x="157" y="360" on="1"/>
        <pt x="197" y="585" on="1"/>
        <pt x="185" y="565" on="0"/>
        <pt x="121" y="529" on="0"/>
        <pt x="86" y="529" on="1"/>
        <pt x="82" y="628" on="1"/>
        <pt x="129" y="628" on="0"/>
        <pt x="211" y="685" on="0"/>
        <pt x="221" y="720" on="1"/>
        <pt x="326" y="720" on="1"/>
      </contour>
      <contour>
        <pt x="660" y="0" on="1"/>
        <pt x="556" y="0" on="1"/>
        <pt x="567" y="63" on="1"/>
        <pt x="415" y="63" on="1"/>
        <pt x="436" y="179" on="1"/>
        <pt x="579" y="360" on="1"/>
        <pt x="684" y="360" on="1"/>
        <pt x="538" y="164" on="1"/>
        <pt x="533" y="135" on="1"/>
        <pt x="587" y="135" on="1"/>
        <pt x="599" y="204" on="1"/>
        <pt x="696" y="204" on="1"/>
        <pt x="684" y="135" on="1"/>
        <pt x="734" y="135" on="1"/>
        <pt x="721" y="63" on="1"/>
        <pt x="671" y="63" on="1"/>
      </contour>
    </TTGlyph>
    <TTGlyph name="onesuperior" xMin="79" yMin="360" xMax="323" yMax="720">
      <contour>
        <pt x="260" y="360" on="1"/>
        <pt x="155" y="360" on="1"/>
        <pt x="194" y="585" on="1"/>
        <pt x="182" y="565" on="0"/>
        <pt x="119" y="529" on="0"/>
        <pt x="84" y="529" on="1"/>
        <pt x="79" y="628" on="1"/>
        <pt x="126" y="628" on="0"/>
        <pt x="208" y="685" on="0"/>
        <pt x="218" y="720" on="1"/>
        <pt x="323" y="720" on="1"/>
      </contour>
    </TTGlyph>
    <TTGlyph name="ordfeminine" xMin="88" yMin="473" xMax="377" yMax="727">
      <contour>
        <pt x="342" y="564" on="1"/>
        <pt x="342" y="549" on="0"/>
        <pt x="356" y="549" on="1"/>
        <pt x="377" y="554" on="1"/>
        <pt x="373" y="492" on="1"/>
        <pt x="346" y="473" on="0"/>
        <pt x="310" y="473" on="1"/>
        <pt x="256" y="473" on="0"/>
        <pt x="248" y="513" on="1"/>
        <pt x="225" y="473" on="0"/>
        <pt x="173" y="473" on="1"/>
        <pt x="89" y="473" on="0"/>
        <pt x="89" y="544" on="1"/>
        <pt x="89" y="556" on="0"/>
        <pt x="91" y="570" on="1"/>
        <pt x="101" y="628" on="1"/>
        <pt x="109" y="673" on="0"/>
        <pt x="169" y="727" on="0"/>
        <pt x="262" y="727" on="0"/>
        <pt x="281" y="705" on="1"/>
        <pt x="284" y="720" on="1"/>
        <pt x="369" y="720" on="1"/>
        <pt x="343" y="573" on="1"/>
        <pt x="342" y="568" on="0"/>
      </contour>
      <contour>
        <pt x="188" y="576" on="1"/>
        <pt x="188" y="550" on="0"/>
        <pt x="216" y="550" on="1"/>
        <pt x="233" y="550" on="0"/>
        <pt x="246" y="563" on="1"/>
        <pt x="259" y="638" on="1"/>
        <pt x="252" y="650" on="0"/>
        <pt x="229" y="650" on="1"/>
        <pt x="200" y="650" on="0"/>
        <pt x="194" y="613" on="1"/>
        <pt x="189" y="586" on="1"/>
        <pt x="188" y="581" on="0"/>
      </contour>
    </TTGlyph>
    <TTGlyph name="ordmasculine" xMin="87" yMin="472" xMax="352" yMax="727">
      <contour>
        <pt x="242" y="727" on="1"/>
        <pt x="351" y="727" on="0"/>
        <pt x="351" y="651" on="1"/>
        <pt x="351" y="640" on="0"/>
        <pt x="349" y="628" on="1"/>
        <pt x="339" y="569" on="1"/>
        <pt x="322" y="472" on="0"/>
        <pt x="197" y="472" on="1"/>
        <pt x="88" y="472" on="0"/>
        <pt x="88" y="545" on="1"/>
        <pt x="88" y="556" on="0"/>
        <pt x="90" y="569" on="1"/>
        <pt x="100" y="628" on="1"/>
        <pt x="117" y="725" on="0"/>
      </contour>
      <contour>
        <pt x="186" y="571" on="1"/>
        <pt x="186" y="547" on="0"/>
        <pt x="211" y="547" on="1"/>
        <pt x="225" y="547" on="0"/>
        <pt x="244" y="566" on="0"/>
        <pt x="246" y="580" on="1"/>
        <pt x="253" y="618" on="1"/>
        <pt x="254" y="623" on="0"/>
        <pt x="254" y="627" on="1"/>
        <pt x="254" y="652" on="0"/>
        <pt x="229" y="652" on="1"/>
        <pt x="200" y="652" on="0"/>
        <pt x="194" y="618" on="1"/>
        <pt x="187" y="580" on="1"/>
        <pt x="186" y="575" on="0"/>
      </contour>
    </TTGlyph>
    <TTGlyph name="oslash" xMin="17" yMin="-69" xMax="527" yMax="550">
      <contour>
        <pt x="227" y="-14" on="1"/>
        <pt x="192" y="-13" on="1"/>
        <pt x="165" y="-69" on="1"/>
        <pt x="80" y="-69" on="1"/>
        <pt x="114" y="0" on="1"/>
        <pt x="17" y="30" on="0"/>
        <pt x="17" y="132" on="1"/>
        <pt x="17" y="154" on="0"/>
        <pt x="22" y="180" on="1"/>
        <pt x="43" y="297" on="1"/>
        <pt x="60" y="394" on="0"/>
        <pt x="200" y="495" on="0"/>
        <pt x="317" y="495" on="1"/>
        <pt x="341" y="495" on="0"/>
        <pt x="353" y="494" on="1"/>
        <pt x="381" y="550" on="1"/>
        <pt x="465" y="550" on="1"/>
        <pt x="430" y="479" on="1"/>
        <pt x="526" y="444" on="0"/>
        <pt x="526" y="343" on="1"/>
        <pt x="526" y="321" on="0"/>
        <pt x="522" y="297" on="1"/>
        <pt x="501" y="180" on="1"/>
        <pt x="482" y="74" on="0"/>
        <pt x="343" y="-14" on="0"/>
      </contour>
      <contour>
        <pt x="196" y="202" on="1"/>
        <pt x="194" y="189" on="0"/>
        <pt x="194" y="173" on="0"/>
        <pt x="195" y="168" on="1"/>
        <pt x="286" y="356" on="1"/>
        <pt x="255" y="354" on="0"/>
        <pt x="215" y="312" on="0"/>
        <pt x="209" y="277" on="1"/>
      </contour>
      <contour>
        <pt x="350" y="288" on="0"/>
        <pt x="350" y="305" on="0"/>
        <pt x="348" y="311" on="1"/>
        <pt x="259" y="125" on="1"/>
        <pt x="288" y="127" on="0"/>
        <pt x="329" y="172" on="0"/>
        <pt x="335" y="202" on="1"/>
        <pt x="348" y="277" on="1"/>
      </contour>
    </TTGlyph>
    <TTGlyph name="otilde" xMin="22" yMin="-14" xMax="565" yMax="766">
      <component glyphName="o" x="0" y="0" flags="0x1004"/>
      <component glyphName="tilde" x="-41" y="0" flags="0x1004"/>
    </TTGlyph>
    <TTGlyph name="p" xMin="-41" yMin="-278" xMax="538" yMax="494">
      <contour>
        <pt x="369" y="494" on="1"/>
        <pt x="471" y="494" on="0"/>
        <pt x="510" y="440" on="1"/>
        <pt x="538" y="403" on="0"/>
        <pt x="538" y="346" on="1"/>
        <pt x="538" y="323" on="0"/>
        <pt x="533" y="297" on="1"/>
        <pt x="513" y="180" on="1"/>
        <pt x="496" y="85" on="0"/>
        <pt x="384" y="-14" on="0"/>
        <pt x="216" y="-14" on="0"/>
        <pt x="183" y="31" on="1"/>
        <pt x="129" y="-278" on="1"/>
        <pt x="-41" y="-278" on="1"/>
        <pt x="93" y="481" on="1"/>
        <pt x="247" y="481" on="1"/>
        <pt x="242" y="454" on="1"/>
        <pt x="289" y="494" on="0"/>
      </contour>
      <contour>
        <pt x="265" y="130" on="1"/>
        <pt x="293" y="130" on="0"/>
        <pt x="341" y="166" on="0"/>
        <pt x="347" y="202" on="1"/>
        <pt x="360" y="277" on="1"/>
        <pt x="362" y="287" on="0"/>
        <pt x="362" y="317" on="0"/>
        <pt x="336" y="351" on="0"/>
        <pt x="304" y="351" on="1"/>
        <pt x="252" y="351" on="0"/>
        <pt x="236" y="326" on="1"/>
        <pt x="206" y="158" on="1"/>
        <pt x="220" y="130" on="0"/>
      </contour>
    </TTGlyph>
    <TTGlyph name="paragraph" xMin="48" yMin="0" xMax="756" yMax="727">
      <contour>
        <pt x="252" y="219" on="1"/>
        <pt x="147" y="219" on="0"/>
        <pt x="92" y="272" on="1"/>
        <pt x="49" y="315" on="0"/>
        <pt x="49" y="375" on="1"/>
        <pt x="49" y="391" on="0"/>
        <pt x="52" y="409" on="1"/>
        <pt x="72" y="522" on="1"/>
        <pt x="88" y="614" on="0"/>
        <pt x="220" y="720" on="0"/>
        <pt x="334" y="720" on="1"/>
        <pt x="573" y="720" on="1"/>
        <pt x="446" y="0" on="1"/>
        <pt x="332" y="0" on="1"/>
        <pt x="371" y="219" on="1"/>
      </contour>
      <contour>
        <pt x="518" y="0" on="1"/>
        <pt x="646" y="727" on="1"/>
        <pt x="756" y="727" on="1"/>
        <pt x="628" y="0" on="1"/>
      </contour>
    </TTGlyph>
    <TTGlyph name="parenleft" xMin="17" yMin="-279" xMax="409" yMax="766">
      <contour>
        <pt x="58" y="-207" on="0"/>
        <pt x="17" y="-15" on="0"/>
        <pt x="17" y="209" on="0"/>
        <pt x="70" y="437" on="0"/>
        <pt x="146" y="591" on="0"/>
        <pt x="222" y="710" on="0"/>
        <pt x="248" y="738" on="1"/>
        <pt x="275" y="766" on="1"/>
        <pt x="409" y="704" on="1"/>
        <pt x="378" y="673" on="0"/>
        <pt x="293" y="544" on="0"/>
        <pt x="234" y="414" on="0"/>
        <pt x="186" y="209" on="0"/>
        <pt x="186" y="11" on="0"/>
        <pt x="216" y="-148" on="0"/>
        <pt x="232" y="-182" on="1"/>
        <pt x="247" y="-217" on="1"/>
        <pt x="91" y="-279" on="1"/>
        <pt x="83" y="-264" on="0"/>
      </contour>
    </TTGlyph>
    <TTGlyph name="parenright" xMin="-75" yMin="-279" xMax="317" yMax="766">
      <contour>
        <pt x="100" y="71" on="0"/>
        <pt x="148" y="275" on="0"/>
        <pt x="148" y="440" on="0"/>
        <pt x="135" y="549" on="0"/>
        <pt x="126" y="585" on="1"/>
        <pt x="109" y="661" on="0"/>
        <pt x="94" y="691" on="1"/>
        <pt x="87" y="704" on="1"/>
        <pt x="243" y="766" on="1"/>
        <pt x="251" y="751" on="0"/>
        <pt x="276" y="693" on="0"/>
        <pt x="317" y="501" on="0"/>
        <pt x="317" y="275" on="0"/>
        <pt x="264" y="47" on="0"/>
        <pt x="226" y="-29" on="1"/>
        <pt x="146" y="-188" on="0"/>
        <pt x="86" y="-252" on="1"/>
        <pt x="59" y="-279" on="1"/>
        <pt x="-75" y="-217" on="1"/>
        <pt x="-66" y="-208" on="0"/>
        <pt x="-36" y="-175" on="0"/>
        <pt x="41" y="-59" on="0"/>
      </contour>
    </TTGlyph>
    <TTGlyph name="percent" xMin="61" yMin="-16" xMax="797" yMax="727">
      <contour>
        <pt x="256" y="727" on="1"/>
        <pt x="383" y="727" on="0"/>
        <pt x="383" y="618" on="1"/>
        <pt x="383" y="600" on="0"/>
        <pt x="379" y="578" on="1"/>
        <pt x="367" y="508" on="1"/>
        <pt x="340" y="356" on="0"/>
        <pt x="190" y="356" on="1"/>
        <pt x="62" y="356" on="0"/>
        <pt x="62" y="465" on="1"/>
        <pt x="62" y="485" on="0"/>
        <pt x="66" y="508" on="1"/>
        <pt x="78" y="578" on="1"/>
        <pt x="103" y="727" on="0"/>
      </contour>
      <contour>
        <pt x="168" y="482" on="1"/>
        <pt x="168" y="444" on="0"/>
        <pt x="206" y="444" on="1"/>
        <pt x="228" y="444" on="0"/>
        <pt x="255" y="472" on="0"/>
        <pt x="262" y="510" on="1"/>
        <pt x="274" y="576" on="1"/>
        <pt x="276" y="588" on="0"/>
        <pt x="276" y="598" on="1"/>
        <pt x="276" y="639" on="0"/>
        <pt x="240" y="639" on="1"/>
        <pt x="194" y="639" on="0"/>
        <pt x="183" y="576" on="1"/>
        <pt x="171" y="510" on="1"/>
        <pt x="168" y="494" on="0"/>
      </contour>
      <contour>
        <pt x="101" y="0" on="1"/>
        <pt x="622" y="727" on="1"/>
        <pt x="762" y="727" on="1"/>
        <pt x="241" y="0" on="1"/>
      </contour>
      <contour>
        <pt x="668" y="355" on="1"/>
        <pt x="796" y="355" on="0"/>
        <pt x="796" y="248" on="1"/>
        <pt x="796" y="229" on="0"/>
        <pt x="792" y="206" on="1"/>
        <pt x="779" y="136" on="1"/>
        <pt x="765" y="59" on="0"/>
        <pt x="680" y="-16" on="0"/>
        <pt x="603" y="-16" on="1"/>
        <pt x="474" y="-16" on="0"/>
        <pt x="474" y="93" on="1"/>
        <pt x="474" y="112" on="0"/>
        <pt x="478" y="136" on="1"/>
        <pt x="491" y="206" on="1"/>
        <pt x="518" y="355" on="0"/>
      </contour>
      <contour>
        <pt x="582" y="111" on="1"/>
        <pt x="582" y="72" on="0"/>
        <pt x="618" y="72" on="1"/>
        <pt x="640" y="72" on="0"/>
        <pt x="669" y="100" on="0"/>
        <pt x="675" y="138" on="1"/>
        <pt x="686" y="204" on="1"/>
        <pt x="688" y="216" on="0"/>
        <pt x="688" y="226" on="1"/>
        <pt x="688" y="267" on="0"/>
        <pt x="652" y="267" on="1"/>
        <pt x="606" y="267" on="0"/>
        <pt x="595" y="204" on="1"/>
        <pt x="584" y="138" on="1"/>
        <pt x="582" y="123" on="0"/>
      </contour>
    </TTGlyph>
    <TTGlyph name="period" xMin="5" yMin="-14" xMax="206" yMax="181">
      <contour>
        <pt x="5" y="58" on="1"/>
        <pt x="5" y="122" on="0"/>
        <pt x="61" y="181" on="0"/>
        <pt x="122" y="181" on="1"/>
        <pt x="206" y="181" on="0"/>
        <pt x="206" y="107" on="1"/>
        <pt x="206" y="44" on="0"/>
        <pt x="149" y="-14" on="0"/>
        <pt x="88" y="-14" on="1"/>
        <pt x="5" y="-14" on="0"/>
      </contour>
    </TTGlyph>
    <TTGlyph name="periodcentered" xMin="49" yMin="238" xMax="250" yMax="433">
      <contour>
        <pt x="49" y="310" on="1"/>
        <pt x="49" y="374" on="0"/>
        <pt x="106" y="433" on="0"/>
        <pt x="166" y="433" on="1"/>
        <pt x="250" y="433" on="0"/>
        <pt x="250" y="359" on="1"/>
        <pt x="250" y="296" on="0"/>
        <pt x="193" y="238" on="0"/>
        <pt x="132" y="238" on="1"/>
        <pt x="49" y="238" on="0"/>
      </contour>
    </TTGlyph>
    <TTGlyph name="perthousand" xMin="63" yMin="-16" xMax="1167" yMax="727">
      <contour>
        <pt x="258" y="727" on="1"/>
        <pt x="385" y="727" on="0"/>
        <pt x="385" y="618" on="1"/>
        <pt x="385" y="600" on="0"/>
        <pt x="381" y="578" on="1"/>
        <pt x="369" y="508" on="1"/>
        <pt x="342" y="356" on="0"/>
        <pt x="192" y="356" on="1"/>
        <pt x="64" y="356" on="0"/>
        <pt x="64" y="465" on="1"/>
        <pt x="64" y="485" on="0"/>
        <pt x="68" y="508" on="1"/>
        <pt x="80" y="578" on="1"/>
        <pt x="105" y="727" on="0"/>
      </contour>
      <contour>
        <pt x="170" y="482" on="1"/>
        <pt x="170" y="444" on="0"/>
        <pt x="208" y="444" on="1"/>
        <pt x="230" y="444" on="0"/>
        <pt x="257" y="472" on="0"/>
        <pt x="264" y="510" on="1"/>
        <pt x="276" y="576" on="1"/>
        <pt x="278" y="588" on="0"/>
        <pt x="278" y="598" on="1"/>
        <pt x="278" y="639" on="0"/>
        <pt x="242" y="639" on="1"/>
        <pt x="196" y="639" on="0"/>
        <pt x="185" y="576" on="1"/>
        <pt x="173" y="510" on="1"/>
        <pt x="170" y="494" on="0"/>
      </contour>
      <contour>
        <pt x="103" y="0" on="1"/>
        <pt x="624" y="727" on="1"/>
        <pt x="764" y="727" on="1"/>
        <pt x="243" y="0" on="1"/>
      </contour>
      <contour>
        <pt x="670" y="355" on="1"/>
        <pt x="798" y="355" on="0"/>
        <pt x="798" y="248" on="1"/>
        <pt x="798" y="229" on="0"/>
        <pt x="794" y="206" on="1"/>
        <pt x="781" y="136" on="1"/>
        <pt x="767" y="59" on="0"/>
        <pt x="682" y="-16" on="0"/>
        <pt x="605" y="-16" on="1"/>
        <pt x="476" y="-16" on="0"/>
        <pt x="476" y="93" on="1"/>
        <pt x="476" y="112" on="0"/>
        <pt x="480" y="136" on="1"/>
        <pt x="493" y="206" on="1"/>
        <pt x="520" y="355" on="0"/>
      </contour>
      <contour>
        <pt x="584" y="111" on="1"/>
        <pt x="584" y="72" on="0"/>
        <pt x="620" y="72" on="1"/>
        <pt x="642" y="72" on="0"/>
        <pt x="671" y="100" on="0"/>
        <pt x="677" y="138" on="1"/>
        <pt x="688" y="204" on="1"/>
        <pt x="690" y="216" on="0"/>
        <pt x="690" y="226" on="1"/>
        <pt x="690" y="267" on="0"/>
        <pt x="654" y="267" on="1"/>
        <pt x="608" y="267" on="0"/>
        <pt x="597" y="204" on="1"/>
        <pt x="586" y="138" on="1"/>
        <pt x="584" y="123" on="0"/>
      </contour>
      <contour>
        <pt x="1038" y="355" on="1"/>
        <pt x="1166" y="355" on="0"/>
        <pt x="1166" y="248" on="1"/>
        <pt x="1166" y="229" on="0"/>
        <pt x="1162" y="206" on="1"/>
        <pt x="1149" y="136" on="1"/>
        <pt x="1135" y="59" on="0"/>
        <pt x="1050" y="-16" on="0"/>
        <pt x="973" y="-16" on="1"/>
        <pt x="844" y="-16" on="0"/>
        <pt x="844" y="93" on="1"/>
        <pt x="844" y="112" on="0"/>
        <pt x="848" y="136" on="1"/>
        <pt x="861" y="206" on="1"/>
        <pt x="888" y="355" on="0"/>
      </contour>
      <contour>
        <pt x="952" y="111" on="1"/>
        <pt x="952" y="72" on="0"/>
        <pt x="988" y="72" on="1"/>
        <pt x="1010" y="72" on="0"/>
        <pt x="1039" y="100" on="0"/>
        <pt x="1045" y="138" on="1"/>
        <pt x="1056" y="204" on="1"/>
        <pt x="1058" y="216" on="0"/>
        <pt x="1058" y="226" on="1"/>
        <pt x="1058" y="267" on="0"/>
        <pt x="1022" y="267" on="1"/>
        <pt x="976" y="267" on="0"/>
        <pt x="965" y="204" on="1"/>
        <pt x="954" y="138" on="1"/>
        <pt x="952" y="123" on="0"/>
      </contour>
    </TTGlyph>
    <TTGlyph name="plus" xMin="19" yMin="62" xMax="411" yMax="433">
      <contour>
        <pt x="122" y="62" on="1"/>
        <pt x="145" y="191" on="1"/>
        <pt x="19" y="191" on="1"/>
        <pt x="40" y="309" on="1"/>
        <pt x="166" y="309" on="1"/>
        <pt x="188" y="433" on="1"/>
        <pt x="306" y="433" on="1"/>
        <pt x="284" y="309" on="1"/>
        <pt x="411" y="309" on="1"/>
        <pt x="390" y="191" on="1"/>
        <pt x="263" y="191" on="1"/>
        <pt x="240" y="62" on="1"/>
      </contour>
    </TTGlyph>
    <TTGlyph name="plusminus" xMin="13" yMin="48" xMax="461" yMax="606">
      <contour>
        <pt x="172" y="235" on="1"/>
        <pt x="195" y="364" on="1"/>
        <pt x="69" y="364" on="1"/>
        <pt x="90" y="482" on="1"/>
        <pt x="216" y="482" on="1"/>
        <pt x="237" y="606" on="1"/>
        <pt x="355" y="606" on="1"/>
        <pt x="334" y="482" on="1"/>
        <pt x="461" y="482" on="1"/>
        <pt x="440" y="364" on="1"/>
        <pt x="313" y="364" on="1"/>
        <pt x="290" y="235" on="1"/>
      </contour>
      <contour>
        <pt x="384" y="48" on="1"/>
        <pt x="13" y="48" on="1"/>
        <pt x="34" y="166" on="1"/>
        <pt x="405" y="166" on="1"/>
      </contour>
    </TTGlyph>
    <TTGlyph name="q" xMin="15" yMin="-278" xMax="547" yMax="494">
      <contour>
        <pt x="175" y="-14" on="1"/>
        <pt x="82" y="-14" on="0"/>
        <pt x="43" y="36" on="1"/>
        <pt x="16" y="71" on="0"/>
        <pt x="16" y="127" on="1"/>
        <pt x="16" y="151" on="0"/>
        <pt x="21" y="180" on="1"/>
        <pt x="42" y="297" on="1"/>
        <pt x="58" y="387" on="0"/>
        <pt x="173" y="494" on="0"/>
        <pt x="358" y="494" on="0"/>
        <pt x="391" y="451" on="1"/>
        <pt x="396" y="481" on="1"/>
        <pt x="547" y="481" on="1"/>
        <pt x="413" y="-278" on="1"/>
        <pt x="243" y="-278" on="1"/>
        <pt x="298" y="31" on="1"/>
        <pt x="247" y="-14" on="0"/>
      </contour>
      <contour>
        <pt x="195" y="202" on="1"/>
        <pt x="193" y="193" on="0"/>
        <pt x="193" y="161" on="0"/>
        <pt x="223" y="130" on="0"/>
        <pt x="294" y="130" on="0"/>
        <pt x="320" y="158" on="1"/>
        <pt x="350" y="326" on="1"/>
        <pt x="339" y="351" on="0"/>
        <pt x="298" y="351" on="1"/>
        <pt x="221" y="351" on="0"/>
        <pt x="208" y="277" on="1"/>
      </contour>
    </TTGlyph>
    <TTGlyph name="question" xMin="70" yMin="-39" xMax="617" yMax="765">
      <contour>
        <pt x="246" y="494" on="1"/>
        <pt x="246" y="471" on="0"/>
        <pt x="253" y="452" on="1"/>
        <pt x="76" y="452" on="1"/>
        <pt x="70" y="476" on="0"/>
        <pt x="70" y="514" on="1"/>
        <pt x="70" y="630" on="0"/>
        <pt x="232" y="765" on="0"/>
        <pt x="383" y="765" on="1"/>
        <pt x="502" y="765" on="0"/>
        <pt x="617" y="676" on="0"/>
        <pt x="617" y="598" on="1"/>
        <pt x="617" y="543" on="0"/>
        <pt x="564" y="449" on="0"/>
        <pt x="486" y="387" on="0"/>
        <pt x="408" y="335" on="0"/>
        <pt x="348" y="285" on="0"/>
        <pt x="344" y="262" on="1"/>
        <pt x="332" y="197" on="1"/>
        <pt x="164" y="197" on="1"/>
        <pt x="175" y="262" on="1"/>
        <pt x="184" y="311" on="0"/>
        <pt x="240" y="380" on="0"/>
        <pt x="307" y="417" on="0"/>
        <pt x="340" y="435" on="1"/>
        <pt x="416" y="477" on="0"/>
        <pt x="416" y="556" on="1"/>
        <pt x="416" y="610" on="0"/>
        <pt x="346" y="610" on="1"/>
        <pt x="298" y="610" on="0"/>
        <pt x="246" y="547" on="0"/>
      </contour>
      <contour>
        <pt x="119" y="33" on="1"/>
        <pt x="119" y="97" on="0"/>
        <pt x="176" y="156" on="0"/>
        <pt x="236" y="156" on="1"/>
        <pt x="320" y="156" on="0"/>
        <pt x="320" y="82" on="1"/>
        <pt x="320" y="19" on="0"/>
        <pt x="263" y="-39" on="0"/>
        <pt x="202" y="-39" on="1"/>
        <pt x="119" y="-39" on="0"/>
      </contour>
    </TTGlyph>
    <TTGlyph name="questiondown" xMin="-51" yMin="-309" xMax="496" yMax="495">
      <contour>
        <pt x="320" y="-38" on="1"/>
        <pt x="320" y="-15" on="0"/>
        <pt x="313" y="4" on="1"/>
        <pt x="490" y="4" on="1"/>
        <pt x="496" y="-20" on="0"/>
        <pt x="496" y="-58" on="1"/>
        <pt x="496" y="-174" on="0"/>
        <pt x="334" y="-309" on="0"/>
        <pt x="183" y="-309" on="1"/>
        <pt x="64" y="-309" on="0"/>
        <pt x="-51" y="-220" on="0"/>
        <pt x="-51" y="-142" on="1"/>
        <pt x="-51" y="-87" on="0"/>
        <pt x="2" y="7" on="0"/>
        <pt x="80" y="69" on="0"/>
        <pt x="158" y="121" on="0"/>
        <pt x="218" y="171" on="0"/>
        <pt x="222" y="194" on="1"/>
        <pt x="234" y="259" on="1"/>
        <pt x="402" y="259" on="1"/>
        <pt x="391" y="194" on="1"/>
        <pt x="382" y="145" on="0"/>
        <pt x="326" y="76" on="0"/>
        <pt x="259" y="39" on="0"/>
        <pt x="226" y="21" on="1"/>
        <pt x="150" y="-21" on="0"/>
        <pt x="150" y="-100" on="1"/>
        <pt x="150" y="-154" on="0"/>
        <pt x="220" y="-154" on="1"/>
        <pt x="268" y="-154" on="0"/>
        <pt x="320" y="-91" on="0"/>
      </contour>
      <contour>
        <pt x="447" y="423" on="1"/>
        <pt x="447" y="359" on="0"/>
        <pt x="390" y="300" on="0"/>
        <pt x="330" y="300" on="1"/>
        <pt x="246" y="300" on="0"/>
        <pt x="246" y="374" on="1"/>
        <pt x="246" y="437" on="0"/>
        <pt x="303" y="495" on="0"/>
        <pt x="364" y="495" on="1"/>
        <pt x="447" y="495" on="0"/>
      </contour>
    </TTGlyph>
    <TTGlyph name="quotedbl" xMin="102" yMin="584" xMax="440" yMax="820">
      <contour>
        <pt x="204" y="584" on="1"/>
        <pt x="102" y="584" on="1"/>
        <pt x="139" y="820" on="1"/>
        <pt x="252" y="820" on="1"/>
      </contour>
      <contour>
        <pt x="392" y="584" on="1"/>
        <pt x="290" y="584" on="1"/>
        <pt x="327" y="820" on="1"/>
        <pt x="440" y="820" on="1"/>
      </contour>
    </TTGlyph>
    <TTGlyph name="quotedblbase" xMin="-65" yMin="-202" xMax="484" yMax="181">
      <contour>
        <pt x="5" y="58" on="1"/>
        <pt x="5" y="122" on="0"/>
        <pt x="62" y="181" on="0"/>
        <pt x="123" y="181" on="1"/>
        <pt x="213" y="181" on="0"/>
        <pt x="213" y="92" on="1"/>
        <pt x="213" y="-202" on="0"/>
        <pt x="-65" y="-202" on="1"/>
        <pt x="-52" y="-130" on="1"/>
        <pt x="1" y="-130" on="0"/>
        <pt x="53" y="-80" on="1"/>
        <pt x="82" y="-52" on="0"/>
        <pt x="88" y="-14" on="1"/>
        <pt x="5" y="-14" on="0"/>
      </contour>
      <contour>
        <pt x="276" y="58" on="1"/>
        <pt x="276" y="122" on="0"/>
        <pt x="334" y="181" on="0"/>
        <pt x="394" y="181" on="1"/>
        <pt x="484" y="181" on="0"/>
        <pt x="484" y="92" on="1"/>
        <pt x="484" y="-202" on="0"/>
        <pt x="206" y="-202" on="1"/>
        <pt x="219" y="-130" on="1"/>
        <pt x="272" y="-130" on="0"/>
        <pt x="324" y="-80" on="1"/>
        <pt x="353" y="-52" on="0"/>
        <pt x="359" y="-14" on="1"/>
        <pt x="276" y="-14" on="0"/>
      </contour>
    </TTGlyph>
    <TTGlyph name="quotedblleft" xMin="87" yMin="422" xMax="635" yMax="805">
      <contour>
        <pt x="565" y="545" on="1"/>
        <pt x="565" y="481" on="0"/>
        <pt x="508" y="422" on="0"/>
        <pt x="448" y="422" on="1"/>
        <pt x="357" y="422" on="0"/>
        <pt x="357" y="511" on="1"/>
        <pt x="357" y="662" on="0"/>
        <pt x="502" y="805" on="0"/>
        <pt x="635" y="805" on="1"/>
        <pt x="623" y="733" on="1"/>
        <pt x="587" y="733" on="0"/>
        <pt x="492" y="672" on="0"/>
        <pt x="482" y="617" on="1"/>
        <pt x="565" y="617" on="0"/>
      </contour>
      <contour>
        <pt x="295" y="545" on="1"/>
        <pt x="295" y="481" on="0"/>
        <pt x="238" y="422" on="0"/>
        <pt x="178" y="422" on="1"/>
        <pt x="87" y="422" on="0"/>
        <pt x="87" y="511" on="1"/>
        <pt x="87" y="662" on="0"/>
        <pt x="232" y="805" on="0"/>
        <pt x="365" y="805" on="1"/>
        <pt x="353" y="733" on="1"/>
        <pt x="317" y="733" on="0"/>
        <pt x="222" y="672" on="0"/>
        <pt x="212" y="617" on="1"/>
        <pt x="295" y="617" on="0"/>
      </contour>
    </TTGlyph>
    <TTGlyph name="quotedblright" xMin="65" yMin="422" xMax="614" yMax="805">
      <contour>
        <pt x="136" y="682" on="1"/>
        <pt x="136" y="746" on="0"/>
        <pt x="193" y="805" on="0"/>
        <pt x="253" y="805" on="1"/>
        <pt x="344" y="805" on="0"/>
        <pt x="344" y="716" on="1"/>
        <pt x="344" y="422" on="0"/>
        <pt x="65" y="422" on="1"/>
        <pt x="78" y="494" on="1"/>
        <pt x="114" y="494" on="0"/>
        <pt x="209" y="555" on="0"/>
        <pt x="219" y="610" on="1"/>
        <pt x="136" y="610" on="0"/>
      </contour>
      <contour>
        <pt x="406" y="682" on="1"/>
        <pt x="406" y="746" on="0"/>
        <pt x="463" y="805" on="0"/>
        <pt x="523" y="805" on="1"/>
        <pt x="614" y="805" on="0"/>
        <pt x="614" y="716" on="1"/>
        <pt x="614" y="422" on="0"/>
        <pt x="335" y="422" on="1"/>
        <pt x="348" y="494" on="1"/>
        <pt x="384" y="494" on="0"/>
        <pt x="479" y="555" on="0"/>
        <pt x="489" y="610" on="1"/>
        <pt x="406" y="610" on="0"/>
      </contour>
    </TTGlyph>
    <TTGlyph name="quoteleft" xMin="87" yMin="422" xMax="365" yMax="805">
      <contour>
        <pt x="295" y="545" on="1"/>
        <pt x="295" y="481" on="0"/>
        <pt x="238" y="422" on="0"/>
        <pt x="178" y="422" on="1"/>
        <pt x="87" y="422" on="0"/>
        <pt x="87" y="511" on="1"/>
        <pt x="87" y="662" on="0"/>
        <pt x="232" y="805" on="0"/>
        <pt x="365" y="805" on="1"/>
        <pt x="353" y="733" on="1"/>
        <pt x="317" y="733" on="0"/>
        <pt x="222" y="672" on="0"/>
        <pt x="212" y="617" on="1"/>
        <pt x="295" y="617" on="0"/>
      </contour>
    </TTGlyph>
    <TTGlyph name="quoteright" xMin="65" yMin="422" xMax="344" yMax="805">
      <contour>
        <pt x="136" y="682" on="1"/>
        <pt x="136" y="746" on="0"/>
        <pt x="193" y="805" on="0"/>
        <pt x="253" y="805" on="1"/>
        <pt x="344" y="805" on="0"/>
        <pt x="344" y="716" on="1"/>
        <pt x="344" y="422" on="0"/>
        <pt x="65" y="422" on="1"/>
        <pt x="78" y="494" on="1"/>
        <pt x="114" y="494" on="0"/>
        <pt x="209" y="555" on="0"/>
        <pt x="219" y="610" on="1"/>
        <pt x="136" y="610" on="0"/>
      </contour>
    </TTGlyph>
    <TTGlyph name="quotesinglbase" xMin="-65" yMin="-202" xMax="213" yMax="181">
      <contour>
        <pt x="5" y="58" on="1"/>
        <pt x="5" y="122" on="0"/>
        <pt x="62" y="181" on="0"/>
        <pt x="123" y="181" on="1"/>
        <pt x="213" y="181" on="0"/>
        <pt x="213" y="92" on="1"/>
        <pt x="213" y="-202" on="0"/>
        <pt x="-65" y="-202" on="1"/>
        <pt x="-52" y="-130" on="1"/>
        <pt x="1" y="-130" on="0"/>
        <pt x="53" y="-80" on="1"/>
        <pt x="82" y="-52" on="0"/>
        <pt x="88" y="-14" on="1"/>
        <pt x="5" y="-14" on="0"/>
      </contour>
    </TTGlyph>
    <TTGlyph name="quotesingle" xMin="102" yMin="584" xMax="252" yMax="820">
      <contour>
        <pt x="204" y="584" on="1"/>
        <pt x="102" y="584" on="1"/>
        <pt x="139" y="820" on="1"/>
        <pt x="252" y="820" on="1"/>
      </contour>
    </TTGlyph>
    <TTGlyph name="r" xMin="8" yMin="0" xMax="507" yMax="495">
      <contour>
        <pt x="507" y="379" on="1"/>
        <pt x="507" y="345" on="0"/>
        <pt x="484" y="281" on="0"/>
        <pt x="473" y="266" on="1"/>
        <pt x="462" y="252" on="1"/>
        <pt x="311" y="252" on="1"/>
        <pt x="336" y="275" on="0"/>
        <pt x="336" y="309" on="1"/>
        <pt x="336" y="327" on="0"/>
        <pt x="313" y="350" on="0"/>
        <pt x="293" y="350" on="1"/>
        <pt x="259" y="350" on="0"/>
        <pt x="234" y="316" on="1"/>
        <pt x="178" y="0" on="1"/>
        <pt x="8" y="0" on="1"/>
        <pt x="93" y="481" on="1"/>
        <pt x="251" y="481" on="1"/>
        <pt x="239" y="414" on="1"/>
        <pt x="296" y="495" on="0"/>
        <pt x="377" y="495" on="1"/>
        <pt x="442" y="495" on="0"/>
        <pt x="507" y="433" on="0"/>
      </contour>
    </TTGlyph>
    <TTGlyph name="registered" xMin="47" yMin="56" xMax="696" yMax="729">
      <contour>
        <pt x="107" y="599" on="0"/>
        <pt x="280" y="729" on="0"/>
        <pt x="584" y="729" on="0"/>
        <pt x="647" y="664" on="1"/>
        <pt x="696" y="613" on="0"/>
        <pt x="696" y="541" on="1"/>
        <pt x="696" y="520" on="0"/>
        <pt x="692" y="498" on="1"/>
        <pt x="656" y="293" on="1"/>
        <pt x="635" y="174" on="0"/>
        <pt x="467" y="56" on="0"/>
        <pt x="155" y="56" on="0"/>
        <pt x="94" y="116" on="1"/>
        <pt x="48" y="160" on="0"/>
        <pt x="48" y="237" on="1"/>
        <pt x="48" y="263" on="0"/>
        <pt x="53" y="293" on="1"/>
        <pt x="89" y="498" on="1"/>
      </contour>
      <contour>
        <pt x="161" y="278" on="1"/>
        <pt x="159" y="266" on="0"/>
        <pt x="159" y="233" on="0"/>
        <pt x="185" y="188" on="0"/>
        <pt x="216" y="176" on="1"/>
        <pt x="271" y="154" on="0"/>
        <pt x="361" y="154" on="0"/>
        <pt x="421" y="164" on="0"/>
        <pt x="489" y="188" on="0"/>
        <pt x="538" y="241" on="0"/>
        <pt x="545" y="278" on="1"/>
        <pt x="583" y="494" on="1"/>
        <pt x="585" y="508" on="0"/>
        <pt x="585" y="539" on="0"/>
        <pt x="571" y="580" on="0"/>
        <pt x="540" y="606" on="0"/>
        <pt x="513" y="613" on="1"/>
        <pt x="474" y="623" on="0"/>
        <pt x="420" y="623" on="0"/>
        <pt x="392" y="623" on="0"/>
        <pt x="363" y="622" on="0"/>
        <pt x="310" y="616" on="0"/>
        <pt x="272" y="599" on="0"/>
        <pt x="252" y="586" on="1"/>
        <pt x="212" y="559" on="0"/>
        <pt x="199" y="494" on="1"/>
      </contour>
      <contour>
        <pt x="412" y="561" on="1"/>
        <pt x="467" y="561" on="0"/>
        <pt x="511" y="520" on="0"/>
        <pt x="511" y="493" on="1"/>
        <pt x="511" y="485" on="0"/>
        <pt x="509" y="476" on="1"/>
        <pt x="503" y="441" on="1"/>
        <pt x="494" y="386" on="0"/>
        <pt x="456" y="363" on="1"/>
        <pt x="496" y="235" on="1"/>
        <pt x="395" y="235" on="1"/>
        <pt x="360" y="347" on="1"/>
        <pt x="328" y="347" on="1"/>
        <pt x="311" y="235" on="1"/>
        <pt x="214" y="235" on="1"/>
        <pt x="271" y="561" on="1"/>
      </contour>
      <contour>
        <pt x="383" y="480" on="1"/>
        <pt x="349" y="480" on="1"/>
        <pt x="337" y="412" on="1"/>
        <pt x="370" y="412" on="1"/>
        <pt x="414" y="412" on="0"/>
        <pt x="414" y="455" on="1"/>
        <pt x="414" y="480" on="0"/>
      </contour>
    </TTGlyph>
    <TTGlyph name="ring" xMin="164" yMin="549" xMax="386" yMax="767">
      <contour>
        <pt x="386" y="623" on="0"/>
        <pt x="307" y="549" on="0"/>
        <pt x="216" y="549" on="0"/>
        <pt x="164" y="602" on="0"/>
        <pt x="164" y="693" on="0"/>
        <pt x="243" y="767" on="0"/>
        <pt x="335" y="767" on="0"/>
        <pt x="386" y="714" on="0"/>
      </contour>
      <contour>
        <pt x="287" y="620" on="0"/>
        <pt x="314" y="645" on="0"/>
        <pt x="314" y="678" on="0"/>
        <pt x="296" y="696" on="0"/>
        <pt x="263" y="696" on="0"/>
        <pt x="236" y="671" on="0"/>
        <pt x="236" y="638" on="0"/>
        <pt x="254" y="620" on="0"/>
      </contour>
    </TTGlyph>
    <TTGlyph name="s" xMin="7" yMin="-14" xMax="522" yMax="496">
      <contour>
        <pt x="522" y="377" on="1"/>
        <pt x="522" y="344" on="0"/>
        <pt x="502" y="316" on="1"/>
        <pt x="338" y="316" on="1"/>
        <pt x="346" y="322" on="0"/>
        <pt x="346" y="350" on="0"/>
        <pt x="314" y="367" on="0"/>
        <pt x="289" y="367" on="1"/>
        <pt x="214" y="367" on="0"/>
        <pt x="214" y="321" on="1"/>
        <pt x="214" y="303" on="0"/>
        <pt x="270" y="287" on="0"/>
        <pt x="350" y="277" on="0"/>
        <pt x="430" y="258" on="0"/>
        <pt x="486" y="202" on="0"/>
        <pt x="486" y="155" on="1"/>
        <pt x="486" y="72" on="0"/>
        <pt x="353" y="-14" on="0"/>
        <pt x="99" y="-14" on="0"/>
        <pt x="48" y="27" on="1"/>
        <pt x="8" y="59" on="0"/>
        <pt x="8" y="115" on="1"/>
        <pt x="8" y="131" on="0"/>
        <pt x="11" y="148" on="1"/>
        <pt x="178" y="150" on="1"/>
        <pt x="176" y="136" on="0"/>
        <pt x="213" y="115" on="0"/>
        <pt x="285" y="115" on="0"/>
        <pt x="317" y="130" on="0"/>
        <pt x="317" y="151" on="1"/>
        <pt x="317" y="165" on="0"/>
        <pt x="261" y="176" on="0"/>
        <pt x="180" y="184" on="0"/>
        <pt x="99" y="202" on="0"/>
        <pt x="43" y="260" on="0"/>
        <pt x="43" y="307" on="1"/>
        <pt x="43" y="398" on="0"/>
        <pt x="184" y="496" on="0"/>
        <pt x="317" y="496" on="1"/>
        <pt x="522" y="496" on="0"/>
      </contour>
    </TTGlyph>
    <TTGlyph name="scaron" xMin="7" yMin="-14" xMax="592" yMax="807">
      <contour>
        <pt x="522" y="377" on="1"/>
        <pt x="522" y="344" on="0"/>
        <pt x="502" y="316" on="1"/>
        <pt x="338" y="316" on="1"/>
        <pt x="346" y="322" on="0"/>
        <pt x="346" y="350" on="0"/>
        <pt x="314" y="367" on="0"/>
        <pt x="289" y="367" on="1"/>
        <pt x="214" y="367" on="0"/>
        <pt x="214" y="321" on="1"/>
        <pt x="214" y="303" on="0"/>
        <pt x="270" y="287" on="0"/>
        <pt x="350" y="277" on="0"/>
        <pt x="430" y="258" on="0"/>
        <pt x="486" y="202" on="0"/>
        <pt x="486" y="155" on="1"/>
        <pt x="486" y="72" on="0"/>
        <pt x="353" y="-14" on="0"/>
        <pt x="99" y="-14" on="0"/>
        <pt x="48" y="27" on="1"/>
        <pt x="8" y="59" on="0"/>
        <pt x="8" y="115" on="1"/>
        <pt x="8" y="131" on="0"/>
        <pt x="11" y="148" on="1"/>
        <pt x="178" y="150" on="1"/>
        <pt x="176" y="136" on="0"/>
        <pt x="213" y="115" on="0"/>
        <pt x="285" y="115" on="0"/>
        <pt x="317" y="130" on="0"/>
        <pt x="317" y="151" on="1"/>
        <pt x="317" y="165" on="0"/>
        <pt x="261" y="176" on="0"/>
        <pt x="180" y="184" on="0"/>
        <pt x="99" y="202" on="0"/>
        <pt x="43" y="260" on="0"/>
        <pt x="43" y="307" on="1"/>
        <pt x="43" y="398" on="0"/>
        <pt x="184" y="496" on="0"/>
        <pt x="317" y="496" on="1"/>
        <pt x="522" y="496" on="0"/>
      </contour>
      <contour>
        <pt x="248" y="568" on="1"/>
        <pt x="248" y="569" on="1"/>
        <pt x="169" y="807" on="1"/>
        <pt x="312" y="807" on="1"/>
        <pt x="359" y="689" on="1"/>
        <pt x="449" y="807" on="1"/>
        <pt x="592" y="807" on="1"/>
        <pt x="428" y="569" on="1"/>
        <pt x="429" y="568" on="1"/>
      </contour>
    </TTGlyph>
</ttFont>
